<?xml version="1.0" encoding="UTF-8" standalone="no"?>
<!DOCTYPE svg PUBLIC "-//W3C//DTD SVG 1.1//EN"
 "http://www.w3.org/Graphics/SVG/1.1/DTD/svg11.dtd">
<!-- Generated by graphviz version 14.0.2 (20251019.1705)
 -->
<!-- Pages: 1 -->
<svg width="693pt" height="148pt"
 viewBox="0.00 0.00 693.00 148.00" xmlns="http://www.w3.org/2000/svg" xmlns:xlink="http://www.w3.org/1999/xlink">
<g id="graph0" class="graph" transform="scale(1 1) rotate(0) translate(4 143.71)">
<polygon fill="white" stroke="none" points="-4,4 -4,-143.71 688.88,-143.71 688.88,4 -4,4"/>
<!-- Agent X -->
<g id="node1" class="node">
<title>Agent X</title>
<polygon fill="lightgray" stroke="black" points="354.12,-139.71 307.38,-139.71 307.38,-121.21 354.12,-121.21 354.12,-139.71"/>
<text xml:space="preserve" text-anchor="middle" x="330.75" y="-127.16" font-family="Times,serif" font-size="9.00">Agent X</text>
</g>
<!-- Left Wheel -->
<g id="node13" class="node">
<title>Left Wheel</title>
<ellipse fill="lightblue" stroke="black" cx="253.75" cy="-42.6" rx="38.89" ry="38.89"/>
<text xml:space="preserve" text-anchor="middle" x="253.75" y="-39.3" font-family="Times,serif" font-size="9.00">Left Wheel</text>
</g>
<!-- Agent X&#45;&gt;Left Wheel -->
<g id="edge1" class="edge">
<title>Agent X&#45;&gt;Left Wheel</title>
<path fill="none" stroke="red" stroke-width="0.23" d="M323.09,-120.91C314.39,-111.22 299.64,-94.77 285.97,-79.53"/>
<polygon fill="red" stroke="red" stroke-width="0.23" points="288.89,-77.54 279.61,-72.44 283.68,-82.22 288.89,-77.54"/>
</g>
<!-- Right Wheel -->
<g id="node14" class="node">
<title>Right Wheel</title>
<ellipse fill="lightblue" stroke="black" cx="352.75" cy="-42.6" rx="42.6" ry="42.6"/>
<text xml:space="preserve" text-anchor="middle" x="352.75" y="-39.3" font-family="Times,serif" font-size="9.00">Right Wheel</text>
</g>
<!-- Agent X&#45;&gt;Right Wheel -->
<g id="edge2" class="edge">
<title>Agent X&#45;&gt;Right Wheel</title>
<path fill="none" stroke="green" stroke-width="0.2" d="M332.94,-120.91C334.65,-114.22 337.19,-104.32 339.88,-93.81"/>
<polygon fill="green" stroke="green" stroke-width="0.2" points="343.21,-94.92 342.31,-84.36 336.43,-93.18 343.21,-94.92"/>
</g>
<!-- Agent Z -->
<g id="node2" class="node">
<title>Agent Z</title>
<polygon fill="lightgray" stroke="black" points="417.38,-139.71 372.12,-139.71 372.12,-121.21 417.38,-121.21 417.38,-139.71"/>
<text xml:space="preserve" text-anchor="middle" x="394.75" y="-127.16" font-family="Times,serif" font-size="9.00">Agent Z</text>
</g>
<!-- Agent Z&#45;&gt;Left Wheel -->
<g id="edge3" class="edge">
<title>Agent Z&#45;&gt;Left Wheel</title>
<path fill="none" stroke="red" stroke-width="0.11" d="M371.76,-120.79C352.11,-112.89 323.5,-100.18 300.75,-85.21 296.86,-82.64 292.96,-79.78 289.16,-76.78"/>
<polygon fill="red" stroke="red" stroke-width="0.11" points="291.6,-74.26 281.66,-70.6 287.15,-79.66 291.6,-74.26"/>
</g>
<!-- Agent Z&#45;&gt;Right Wheel -->
<g id="edge4" class="edge">
<title>Agent Z&#45;&gt;Right Wheel</title>
<path fill="none" stroke="green" stroke-width="0.17" d="M390.57,-120.91C386.93,-113.47 381.35,-102.07 375.58,-90.28"/>
<polygon fill="green" stroke="green" stroke-width="0.17" points="378.82,-88.93 371.28,-81.49 372.53,-92.01 378.82,-88.93"/>
</g>
<!-- Target X -->
<g id="node3" class="node">
<title>Target X</title>
<polygon fill="lightgray" stroke="black" points="482.5,-139.71 435,-139.71 435,-121.21 482.5,-121.21 482.5,-139.71"/>
<text xml:space="preserve" text-anchor="middle" x="458.75" y="-127.16" font-family="Times,serif" font-size="9.00">Target X</text>
</g>
<!-- Target X&#45;&gt;Left Wheel -->
<g id="edge5" class="edge">
<title>Target X&#45;&gt;Left Wheel</title>
<path fill="none" stroke="red" stroke-width="0.61" d="M434.52,-122.98C391.73,-111.49 306.72,-88.46 300.75,-85.21 296.82,-83.07 292.94,-80.54 289.2,-77.81"/>
<polygon fill="red" stroke="red" stroke-width="0.61" points="291.5,-75.17 281.48,-71.72 287.16,-80.66 291.5,-75.17"/>
</g>
<!-- Target X&#45;&gt;Right Wheel -->
<g id="edge6" class="edge">
<title>Target X&#45;&gt;Right Wheel</title>
<path fill="none" stroke="red" stroke-width="0.37" d="M448.2,-120.91C435.5,-110.62 413.4,-92.73 393.67,-76.75"/>
<polygon fill="red" stroke="red" stroke-width="0.37" points="396.09,-74.21 386.12,-70.63 391.69,-79.65 396.09,-74.21"/>
</g>
<!-- Target Z -->
<g id="node4" class="node">
<title>Target Z</title>
<polygon fill="lightgray" stroke="black" points="546.75,-139.71 500.75,-139.71 500.75,-121.21 546.75,-121.21 546.75,-139.71"/>
<text xml:space="preserve" text-anchor="middle" x="523.75" y="-127.16" font-family="Times,serif" font-size="9.00">Target Z</text>
</g>
<!-- Target Z&#45;&gt;Left Wheel -->
<g id="edge7" class="edge">
<title>Target Z&#45;&gt;Left Wheel</title>
<path fill="none" stroke="red" stroke-width="0.1" d="M500.37,-123.24C497.48,-122.53 494.55,-121.83 491.75,-121.21 407.44,-102.41 378.33,-123.2 300.75,-85.21 296.45,-83.1 292.24,-80.49 288.22,-77.62"/>
<polygon fill="red" stroke="red" stroke-width="0.1" points="290.42,-74.89 280.38,-71.51 286.12,-80.41 290.42,-74.89"/>
</g>
<!-- Target Z&#45;&gt;Right Wheel -->
<g id="edge8" class="edge">
<title>Target Z&#45;&gt;Right Wheel</title>
<path fill="none" stroke="red" stroke-width="0.13" d="M506.41,-120.75C481.52,-108.25 434.76,-84.78 399.33,-66.99"/>
<polygon fill="red" stroke="red" stroke-width="0.13" points="401.26,-64.04 390.76,-62.69 398.12,-70.3 401.26,-64.04"/>
</g>
<!-- Blob Visible -->
<g id="node5" class="node">
<title>Blob Visible</title>
<polygon fill="lightgray" stroke="black" points="624.88,-139.71 564.62,-139.71 564.62,-121.21 624.88,-121.21 624.88,-139.71"/>
<text xml:space="preserve" text-anchor="middle" x="594.75" y="-127.16" font-family="Times,serif" font-size="9.00">Blob Visible</text>
</g>
<!-- Blob Visible&#45;&gt;Left Wheel -->
<g id="edge9" class="edge">
<title>Blob Visible&#45;&gt;Left Wheel</title>
<path fill="none" stroke="green" stroke-width="0.11" d="M564.13,-122.77C561.3,-122.22 558.48,-121.69 555.75,-121.21 443.03,-101.35 404.67,-133.17 300.75,-85.21 296.4,-83.2 292.16,-80.66 288.12,-77.82"/>
<polygon fill="green" stroke="green" stroke-width="0.11" points="290.32,-75.1 280.26,-71.76 286.05,-80.64 290.32,-75.1"/>
</g>
<!-- Blob Visible&#45;&gt;Right Wheel -->
<g id="edge10" class="edge">
<title>Blob Visible&#45;&gt;Right Wheel</title>
<path fill="none" stroke="green" stroke-width="0.52" d="M570.21,-120.75C531.12,-106.88 453.92,-79.49 402.81,-61.36"/>
<polygon fill="green" stroke="green" stroke-width="0.52" points="404.3,-58.18 393.7,-58.13 401.96,-64.77 404.3,-58.18"/>
</g>
<!-- Blob X -->
<g id="node6" class="node">
<title>Blob X</title>
<polygon fill="lightgray" stroke="black" points="684.88,-139.71 642.62,-139.71 642.62,-121.21 684.88,-121.21 684.88,-139.71"/>
<text xml:space="preserve" text-anchor="middle" x="663.75" y="-127.16" font-family="Times,serif" font-size="9.00">Blob X</text>
</g>
<!-- Blob X&#45;&gt;Left Wheel -->
<g id="edge11" class="edge">
<title>Blob X&#45;&gt;Left Wheel</title>
<path fill="none" stroke="red" stroke-width="0.36" d="M642.22,-123.09C639.39,-122.38 636.51,-121.73 633.75,-121.21 487.51,-93.38 436.91,-145.38 300.75,-85.21 296.49,-83.32 292.33,-80.91 288.38,-78.19"/>
<polygon fill="red" stroke="red" stroke-width="0.36" points="290.56,-75.45 280.49,-72.18 286.32,-81.02 290.56,-75.45"/>
</g>
<!-- Blob X&#45;&gt;Right Wheel -->
<g id="edge12" class="edge">
<title>Blob X&#45;&gt;Right Wheel</title>
<path fill="none" stroke="green" stroke-width="0.18" d="M642.37,-123.56C593.58,-110.09 472.91,-76.77 403.7,-57.67"/>
<polygon fill="green" stroke="green" stroke-width="0.18" points="404.71,-54.32 394.14,-55.03 402.85,-61.06 404.71,-54.32"/>
</g>
<!-- Blob Y -->
<g id="node7" class="node">
<title>Blob Y</title>
<polygon fill="lightgray" stroke="black" points="41.5,-139.71 0,-139.71 0,-121.21 41.5,-121.21 41.5,-139.71"/>
<text xml:space="preserve" text-anchor="middle" x="20.75" y="-127.16" font-family="Times,serif" font-size="9.00">Blob Y</text>
</g>
<!-- Blob Y&#45;&gt;Left Wheel -->
<g id="edge13" class="edge">
<title>Blob Y&#45;&gt;Left Wheel</title>
<path fill="none" stroke="green" stroke-width="0.5" d="M41.84,-121.69C79.04,-107.98 157.15,-79.2 207.44,-60.67"/>
<polygon fill="green" stroke="green" stroke-width="0.5" points="208.53,-63.99 216.71,-57.25 206.11,-57.43 208.53,-63.99"/>
</g>
<!-- Blob Y&#45;&gt;Right Wheel -->
<g id="edge14" class="edge">
<title>Blob Y&#45;&gt;Right Wheel</title>
<path fill="none" stroke="red" stroke-width="0.15" d="M41.97,-123.26C44.91,-122.51 47.89,-121.8 50.75,-121.21 161.08,-98.22 198.54,-130.48 301.75,-85.21 305.86,-83.4 309.92,-81.17 313.83,-78.69"/>
<polygon fill="red" stroke="red" stroke-width="0.15" points="315.74,-81.62 321.96,-73.04 311.75,-75.87 315.74,-81.62"/>
</g>
<!-- Blob Size -->
<g id="node8" class="node">
<title>Blob Size</title>
<polygon fill="lightgray" stroke="black" points="110,-139.71 59.5,-139.71 59.5,-121.21 110,-121.21 110,-139.71"/>
<text xml:space="preserve" text-anchor="middle" x="84.75" y="-127.16" font-family="Times,serif" font-size="9.00">Blob Size</text>
</g>
<!-- Blob Size&#45;&gt;Left Wheel -->
<g id="edge15" class="edge">
<title>Blob Size&#45;&gt;Left Wheel</title>
<path fill="none" stroke="green" stroke-width="0.39" d="M101.88,-120.75C127.07,-107.96 174.93,-83.65 210.21,-65.72"/>
<polygon fill="green" stroke="green" stroke-width="0.39" points="211.49,-69 218.82,-61.35 208.32,-62.75 211.49,-69"/>
</g>
<!-- Blob Size&#45;&gt;Right Wheel -->
<g id="edge16" class="edge">
<title>Blob Size&#45;&gt;Right Wheel</title>
<path fill="none" stroke="red" stroke-width="0.38" d="M110.34,-123.12C113.17,-122.46 116.02,-121.81 118.75,-121.21 199.71,-103.43 226.73,-120.46 301.75,-85.21 305.71,-83.35 309.62,-81.12 313.41,-78.66"/>
<polygon fill="red" stroke="red" stroke-width="0.38" points="315.38,-81.56 321.54,-72.94 311.35,-75.83 315.38,-81.56"/>
</g>
<!-- &#45;9 -->
<g id="node9" class="node">
<title>&#45;9</title>
<polygon fill="lightgray" stroke="black" points="151.5,-139.71 128,-139.71 128,-121.21 151.5,-121.21 151.5,-139.71"/>
<text xml:space="preserve" text-anchor="middle" x="139.75" y="-127.16" font-family="Times,serif" font-size="9.00">&#45;9</text>
</g>
<!-- &#45;9&#45;&gt;Left Wheel -->
<g id="edge17" class="edge">
<title>&#45;9&#45;&gt;Left Wheel</title>
<path fill="none" stroke="red" stroke-width="0.44" d="M151.1,-120.91C165.78,-109.85 192.12,-90.01 214.45,-73.2"/>
<polygon fill="red" stroke="red" stroke-width="0.44" points="216.36,-76.14 222.24,-67.33 212.15,-70.55 216.36,-76.14"/>
</g>
<!-- &#45;9&#45;&gt;Right Wheel -->
<g id="edge18" class="edge">
<title>&#45;9&#45;&gt;Right Wheel</title>
<path fill="none" stroke="red" stroke-width="0.17" d="M151.65,-124.48C154.6,-123.34 157.77,-122.17 160.75,-121.21 222.3,-101.34 244,-114.33 301.75,-85.21 305.76,-83.18 309.74,-80.8 313.61,-78.22"/>
<polygon fill="red" stroke="red" stroke-width="0.17" points="315.57,-81.12 321.65,-72.45 311.48,-75.43 315.57,-81.12"/>
</g>
<!-- &#45;10 -->
<g id="node10" class="node">
<title>&#45;10</title>
<polygon fill="lightgray" stroke="black" points="197.75,-139.71 169.75,-139.71 169.75,-121.21 197.75,-121.21 197.75,-139.71"/>
<text xml:space="preserve" text-anchor="middle" x="183.75" y="-127.16" font-family="Times,serif" font-size="9.00">&#45;10</text>
</g>
<!-- &#45;10&#45;&gt;Left Wheel -->
<g id="edge19" class="edge">
<title>&#45;10&#45;&gt;Left Wheel</title>
<path fill="none" stroke="green" stroke-width="0.68" d="M190.72,-120.91C198.23,-111.69 210.73,-96.37 222.62,-81.79"/>
<polygon fill="green" stroke="green" stroke-width="0.68" points="225.25,-84.09 228.86,-74.13 219.83,-79.67 225.25,-84.09"/>
</g>
<!-- &#45;10&#45;&gt;Right Wheel -->
<g id="edge20" class="edge">
<title>&#45;10&#45;&gt;Right Wheel</title>
<path fill="none" stroke="red" stroke-width="0.35" d="M197.99,-124.26C228.35,-113.15 297.03,-87.92 301.75,-85.21 305.48,-83.06 309.22,-80.65 312.89,-78.09"/>
<polygon fill="red" stroke="red" stroke-width="0.35" points="314.86,-80.98 320.83,-72.23 310.7,-75.35 314.86,-80.98"/>
</g>
<!-- &#45;11 -->
<g id="node11" class="node">
<title>&#45;11</title>
<polygon fill="lightgray" stroke="black" points="243.75,-139.71 215.75,-139.71 215.75,-121.21 243.75,-121.21 243.75,-139.71"/>
<text xml:space="preserve" text-anchor="middle" x="229.75" y="-127.16" font-family="Times,serif" font-size="9.00">&#45;11</text>
</g>
<!-- &#45;11&#45;&gt;Left Wheel -->
<g id="edge21" class="edge">
<title>&#45;11&#45;&gt;Left Wheel</title>
<path fill="none" stroke="red" stroke-width="0.53" d="M232.14,-120.91C234.19,-113.56 237.33,-102.34 240.59,-90.7"/>
<polygon fill="red" stroke="red" stroke-width="0.53" points="243.91,-91.79 243.24,-81.22 237.17,-89.9 243.91,-91.79"/>
</g>
<!-- &#45;11&#45;&gt;Right Wheel -->
<g id="edge22" class="edge">
<title>&#45;11&#45;&gt;Right Wheel</title>
<path fill="none" stroke="green" stroke-width="0.19" d="M244.18,-121.35C258.98,-112.86 282.49,-98.89 301.75,-85.21 305.36,-82.64 309.04,-79.9 312.7,-77.1"/>
<polygon fill="green" stroke="green" stroke-width="0.19" points="314.67,-80 320.38,-71.08 310.35,-74.49 314.67,-80"/>
</g>
<!-- &#45;12 -->
<g id="node12" class="node">
<title>&#45;12</title>
<polygon fill="lightgray" stroke="black" points="289.75,-139.71 261.75,-139.71 261.75,-121.21 289.75,-121.21 289.75,-139.71"/>
<text xml:space="preserve" text-anchor="middle" x="275.75" y="-127.16" font-family="Times,serif" font-size="9.00">&#45;12</text>
</g>
<!-- &#45;12&#45;&gt;Left Wheel -->
<g id="edge23" class="edge">
<title>&#45;12&#45;&gt;Left Wheel</title>
<path fill="none" stroke="green" stroke-width="0.36" d="M273.56,-120.91C271.66,-113.49 268.74,-102.11 265.73,-90.34"/>
<polygon fill="green" stroke="green" stroke-width="0.36" points="269.2,-89.79 263.33,-80.97 262.42,-91.53 269.2,-89.79"/>
</g>
<!-- &#45;12&#45;&gt;Right Wheel -->
<g id="edge24" class="edge">
<title>&#45;12&#45;&gt;Right Wheel</title>
<path fill="none" stroke="green" stroke-width="0.43" d="M283.41,-120.91C291.5,-111.89 304.83,-97.03 317.65,-82.74"/>
<polygon fill="green" stroke="green" stroke-width="0.43" points="320.18,-85.16 324.25,-75.38 314.97,-80.49 320.18,-85.16"/>
</g>
</g>
</svg>
