<?xml version="1.0" encoding="UTF-8" standalone="no"?>
<!DOCTYPE svg PUBLIC "-//W3C//DTD SVG 1.1//EN"
 "http://www.w3.org/Graphics/SVG/1.1/DTD/svg11.dtd">
<!-- Generated by graphviz version 14.0.2 (20251019.1705)
 -->
<!-- Pages: 1 -->
<svg width="514pt" height="148pt"
 viewBox="0.00 0.00 514.00 148.00" xmlns="http://www.w3.org/2000/svg" xmlns:xlink="http://www.w3.org/1999/xlink">
<g id="graph0" class="graph" transform="scale(1 1) rotate(0) translate(4 143.71)">
<polygon fill="white" stroke="none" points="-4,4 -4,-143.71 509.88,-143.71 509.88,4 -4,4"/>
<!-- Agent X -->
<g id="node1" class="node">
<title>Agent X</title>
<polygon fill="lightgray" stroke="black" points="175.12,-139.71 128.38,-139.71 128.38,-121.21 175.12,-121.21 175.12,-139.71"/>
<text xml:space="preserve" text-anchor="middle" x="151.75" y="-127.16" font-family="Times,serif" font-size="9.00">Agent X</text>
</g>
<!-- Left Wheel -->
<g id="node9" class="node">
<title>Left Wheel</title>
<ellipse fill="lightblue" stroke="black" cx="197.75" cy="-42.6" rx="38.89" ry="38.89"/>
<text xml:space="preserve" text-anchor="middle" x="197.75" y="-39.3" font-family="Times,serif" font-size="9.00">Left Wheel</text>
</g>
<!-- Agent X&#45;&gt;Left Wheel -->
<g id="edge1" class="edge">
<title>Agent X&#45;&gt;Left Wheel</title>
<path fill="none" stroke="red" stroke-width="0.45" d="M156.33,-120.91C160.76,-112.64 167.82,-99.46 174.87,-86.3"/>
<polygon fill="red" stroke="red" stroke-width="0.45" points="177.76,-88.33 179.4,-77.86 171.59,-85.02 177.76,-88.33"/>
</g>
<!-- Right Wheel -->
<g id="node10" class="node">
<title>Right Wheel</title>
<ellipse fill="lightblue" stroke="black" cx="296.75" cy="-42.6" rx="42.6" ry="42.6"/>
<text xml:space="preserve" text-anchor="middle" x="296.75" y="-39.3" font-family="Times,serif" font-size="9.00">Right Wheel</text>
</g>
<!-- Agent X&#45;&gt;Right Wheel -->
<g id="edge2" class="edge">
<title>Agent X&#45;&gt;Right Wheel</title>
<path fill="none" stroke="red" stroke-width="0.23" d="M174.2,-120.72C193.76,-112.68 222.55,-99.82 245.75,-85.21 249.49,-82.85 253.27,-80.25 256.99,-77.54"/>
<polygon fill="red" stroke="red" stroke-width="0.23" points="258.86,-80.52 264.72,-71.69 254.63,-74.94 258.86,-80.52"/>
</g>
<!-- Agent Z -->
<g id="node2" class="node">
<title>Agent Z</title>
<polygon fill="lightgray" stroke="black" points="238.38,-139.71 193.12,-139.71 193.12,-121.21 238.38,-121.21 238.38,-139.71"/>
<text xml:space="preserve" text-anchor="middle" x="215.75" y="-127.16" font-family="Times,serif" font-size="9.00">Agent Z</text>
</g>
<!-- Agent Z&#45;&gt;Left Wheel -->
<g id="edge3" class="edge">
<title>Agent Z&#45;&gt;Left Wheel</title>
<path fill="none" stroke="green" stroke-width="0.36" d="M213.96,-120.91C212.43,-113.63 210.11,-102.54 207.69,-91.01"/>
<polygon fill="green" stroke="green" stroke-width="0.36" points="211.15,-90.45 205.67,-81.38 204.3,-91.89 211.15,-90.45"/>
</g>
<!-- Agent Z&#45;&gt;Right Wheel -->
<g id="edge4" class="edge">
<title>Agent Z&#45;&gt;Right Wheel</title>
<path fill="none" stroke="red" stroke-width="0.11" d="M223.81,-120.91C232.62,-111.58 247.32,-95.99 261.23,-81.25"/>
<polygon fill="red" stroke="red" stroke-width="0.11" points="263.53,-83.91 267.85,-74.24 258.44,-79.11 263.53,-83.91"/>
</g>
<!-- Target X -->
<g id="node3" class="node">
<title>Target X</title>
<polygon fill="lightgray" stroke="black" points="303.5,-139.71 256,-139.71 256,-121.21 303.5,-121.21 303.5,-139.71"/>
<text xml:space="preserve" text-anchor="middle" x="279.75" y="-127.16" font-family="Times,serif" font-size="9.00">Target X</text>
</g>
<!-- Target X&#45;&gt;Left Wheel -->
<g id="edge5" class="edge">
<title>Target X&#45;&gt;Left Wheel</title>
<path fill="none" stroke="red" stroke-width="0.36" d="M271.59,-120.91C262.19,-111.07 246.14,-94.27 231.41,-78.84"/>
<polygon fill="red" stroke="red" stroke-width="0.36" points="234.13,-76.62 224.69,-71.81 229.07,-81.46 234.13,-76.62"/>
</g>
<!-- Target X&#45;&gt;Right Wheel -->
<g id="edge6" class="edge">
<title>Target X&#45;&gt;Right Wheel</title>
<path fill="none" stroke="red" stroke-width="0.37" d="M281.44,-120.91C282.71,-114.48 284.57,-105.09 286.56,-95.05"/>
<polygon fill="red" stroke="red" stroke-width="0.37" points="289.96,-95.92 288.47,-85.43 283.09,-94.56 289.96,-95.92"/>
</g>
<!-- Target Z -->
<g id="node4" class="node">
<title>Target Z</title>
<polygon fill="lightgray" stroke="black" points="367.75,-139.71 321.75,-139.71 321.75,-121.21 367.75,-121.21 367.75,-139.71"/>
<text xml:space="preserve" text-anchor="middle" x="344.75" y="-127.16" font-family="Times,serif" font-size="9.00">Target Z</text>
</g>
<!-- Target Z&#45;&gt;Left Wheel -->
<g id="edge7" class="edge">
<title>Target Z&#45;&gt;Left Wheel</title>
<path fill="none" stroke="red" stroke-width="0.43" d="M321.49,-121.5C300.55,-113.8 269.36,-101 244.75,-85.21 240.88,-82.72 237.01,-79.93 233.24,-76.99"/>
<polygon fill="red" stroke="red" stroke-width="0.43" points="235.66,-74.44 225.7,-70.81 231.22,-79.86 235.66,-74.44"/>
</g>
<!-- Target Z&#45;&gt;Right Wheel -->
<g id="edge8" class="edge">
<title>Target Z&#45;&gt;Right Wheel</title>
<path fill="none" stroke="red" stroke-width="0.15" d="M339.97,-120.91C335.7,-113.27 329.08,-101.42 322.29,-89.28"/>
<polygon fill="red" stroke="red" stroke-width="0.15" points="325.4,-87.67 317.46,-80.65 319.29,-91.08 325.4,-87.67"/>
</g>
<!-- Blob Visible -->
<g id="node5" class="node">
<title>Blob Visible</title>
<polygon fill="lightgray" stroke="black" points="445.88,-139.71 385.62,-139.71 385.62,-121.21 445.88,-121.21 445.88,-139.71"/>
<text xml:space="preserve" text-anchor="middle" x="415.75" y="-127.16" font-family="Times,serif" font-size="9.00">Blob Visible</text>
</g>
<!-- Blob Visible&#45;&gt;Left Wheel -->
<g id="edge9" class="edge">
<title>Blob Visible&#45;&gt;Left Wheel</title>
<path fill="none" stroke="green" stroke-width="0.41" d="M385.36,-122.41C339.64,-111.68 257.17,-91.81 244.75,-85.21 240.69,-83.05 236.69,-80.47 232.84,-77.67"/>
<polygon fill="green" stroke="green" stroke-width="0.41" points="235.21,-75.07 225.18,-71.64 230.88,-80.58 235.21,-75.07"/>
</g>
<!-- Blob Visible&#45;&gt;Right Wheel -->
<g id="edge10" class="edge">
<title>Blob Visible&#45;&gt;Right Wheel</title>
<path fill="none" stroke="green" stroke-width="0.36" d="M403.9,-120.91C388.93,-110.11 362.33,-90.92 339.39,-74.36"/>
<polygon fill="green" stroke="green" stroke-width="0.36" points="341.72,-71.73 331.56,-68.72 337.62,-77.41 341.72,-71.73"/>
</g>
<!-- Blob X -->
<g id="node6" class="node">
<title>Blob X</title>
<polygon fill="lightgray" stroke="black" points="505.88,-139.71 463.62,-139.71 463.62,-121.21 505.88,-121.21 505.88,-139.71"/>
<text xml:space="preserve" text-anchor="middle" x="484.75" y="-127.16" font-family="Times,serif" font-size="9.00">Blob X</text>
</g>
<!-- Blob X&#45;&gt;Left Wheel -->
<g id="edge11" class="edge">
<title>Blob X&#45;&gt;Left Wheel</title>
<path fill="none" stroke="green" stroke-width="0.43" d="M463.18,-123.25C460.36,-122.52 457.49,-121.82 454.75,-121.21 362.32,-100.63 330.13,-126.15 244.75,-85.21 240.55,-83.19 236.44,-80.69 232.5,-77.91"/>
<polygon fill="green" stroke="green" stroke-width="0.43" points="234.77,-75.25 224.72,-71.89 230.49,-80.78 234.77,-75.25"/>
</g>
<!-- Blob X&#45;&gt;Right Wheel -->
<g id="edge12" class="edge">
<title>Blob X&#45;&gt;Right Wheel</title>
<path fill="none" stroke="red" stroke-width="0.31" d="M465.69,-120.75C437.52,-107.89 383.86,-83.38 344.55,-65.43"/>
<polygon fill="red" stroke="red" stroke-width="0.31" points="346.37,-62.41 335.81,-61.44 343.46,-68.78 346.37,-62.41"/>
</g>
<!-- Blob Y -->
<g id="node7" class="node">
<title>Blob Y</title>
<polygon fill="lightgray" stroke="black" points="41.5,-139.71 0,-139.71 0,-121.21 41.5,-121.21 41.5,-139.71"/>
<text xml:space="preserve" text-anchor="middle" x="20.75" y="-127.16" font-family="Times,serif" font-size="9.00">Blob Y</text>
</g>
<!-- Blob Y&#45;&gt;Left Wheel -->
<g id="edge13" class="edge">
<title>Blob Y&#45;&gt;Left Wheel</title>
<path fill="none" stroke="green" stroke-width="0.14" d="M38.7,-120.75C65.43,-107.78 116.55,-82.99 153.64,-65"/>
<polygon fill="green" stroke="green" stroke-width="0.14" points="155.07,-68.19 162.54,-60.68 152.02,-61.89 155.07,-68.19"/>
</g>
<!-- Blob Y&#45;&gt;Right Wheel -->
<g id="edge14" class="edge">
<title>Blob Y&#45;&gt;Right Wheel</title>
<path fill="none" stroke="red" stroke-width="0.16" d="M42,-123.37C44.93,-122.6 47.91,-121.86 50.75,-121.21 136.65,-101.5 165.77,-122.22 245.75,-85.21 249.83,-83.32 253.85,-81.03 257.75,-78.51"/>
<polygon fill="red" stroke="red" stroke-width="0.16" points="259.68,-81.43 265.85,-72.82 255.65,-75.71 259.68,-81.43"/>
</g>
<!-- Blob Size -->
<g id="node8" class="node">
<title>Blob Size</title>
<polygon fill="lightgray" stroke="black" points="110,-139.71 59.5,-139.71 59.5,-121.21 110,-121.21 110,-139.71"/>
<text xml:space="preserve" text-anchor="middle" x="84.75" y="-127.16" font-family="Times,serif" font-size="9.00">Blob Size</text>
</g>
<!-- Blob Size&#45;&gt;Left Wheel -->
<g id="edge15" class="edge">
<title>Blob Size&#45;&gt;Left Wheel</title>
<path fill="none" stroke="green" stroke-width="0.25" d="M96,-120.91C110.55,-109.85 136.66,-90.01 158.79,-73.2"/>
<polygon fill="green" stroke="green" stroke-width="0.25" points="160.9,-76 166.74,-67.16 156.66,-70.42 160.9,-76"/>
</g>
<!-- Blob Size&#45;&gt;Right Wheel -->
<g id="edge16" class="edge">
<title>Blob Size&#45;&gt;Right Wheel</title>
<path fill="none" stroke="green" stroke-width="0.19" d="M110.23,-123.07C152.49,-112.39 233.64,-91.45 245.75,-85.21 249.74,-83.15 253.71,-80.74 257.57,-78.14"/>
<polygon fill="green" stroke="green" stroke-width="0.19" points="259.5,-81.06 265.57,-72.37 255.41,-75.38 259.5,-81.06"/>
</g>
</g>
</svg>
