<?xml version="1.0" encoding="UTF-8" standalone="no"?>
<!DOCTYPE svg PUBLIC "-//W3C//DTD SVG 1.1//EN"
 "http://www.w3.org/Graphics/SVG/1.1/DTD/svg11.dtd">
<!-- Generated by graphviz version 14.0.1 (0)
 -->
<!-- Pages: 1 -->
<svg width="515pt" height="212pt"
 viewBox="0.00 0.00 515.00 212.00" xmlns="http://www.w3.org/2000/svg" xmlns:xlink="http://www.w3.org/1999/xlink">
<g id="graph0" class="graph" transform="scale(1 1) rotate(0) translate(4 207.64)">
<polygon fill="white" stroke="none" points="-4,4 -4,-207.64 511.31,-207.64 511.31,4 -4,4"/>
<!-- Agent X -->
<g id="node1" class="node">
<title>Agent X</title>
<polygon fill="lightgray" stroke="black" points="443.39,-143.89 398.14,-143.89 398.14,-125.39 443.39,-125.39 443.39,-143.89"/>
<text xml:space="preserve" text-anchor="middle" x="420.77" y="-131.34" font-family="Times,serif" font-size="9.00">Agent X</text>
</g>
<!-- Left Wheel -->
<g id="node9" class="node">
<title>Left Wheel</title>
<ellipse fill="lightblue" stroke="black" cx="186.77" cy="-42.07" rx="38.89" ry="38.89"/>
<text xml:space="preserve" text-anchor="middle" x="186.77" y="-38.77" font-family="Times,serif" font-size="9.00">Left Wheel</text>
</g>
<!-- Agent X&#45;&gt;Left Wheel -->
<g id="edge1" class="edge">
<title>Agent X&#45;&gt;Left Wheel</title>
<path fill="none" stroke="red" stroke-width="0.46" d="M400.5,-124.97C396.61,-123.34 392.57,-121.67 388.77,-120.15 335.62,-98.81 274.08,-75.53 233.02,-60.2"/>
<polygon fill="red" stroke="red" stroke-width="0.46" points="234.29,-56.94 223.7,-56.73 231.84,-63.5 234.29,-56.94"/>
</g>
<!-- Right Wheel -->
<g id="node10" class="node">
<title>Right Wheel</title>
<ellipse fill="lightblue" stroke="black" cx="354.77" cy="-42.07" rx="42.07" ry="42.07"/>
<text xml:space="preserve" text-anchor="middle" x="354.77" y="-38.77" font-family="Times,serif" font-size="9.00">Right Wheel</text>
</g>
<!-- Agent X&#45;&gt;Right Wheel -->
<g id="edge2" class="edge">
<title>Agent X&#45;&gt;Right Wheel</title>
<path fill="none" stroke="green" stroke-width="0.12" d="M414.44,-124.96C407.57,-115.53 396.1,-99.79 385.03,-84.61"/>
<polygon fill="green" stroke="green" stroke-width="0.12" points="388.14,-82.93 379.42,-76.91 382.48,-87.05 388.14,-82.93"/>
</g>
<!-- Agent Z -->
<g id="node2" class="node">
<title>Agent Z</title>
<polygon fill="lightgray" stroke="black" points="173.64,-143.89 129.89,-143.89 129.89,-125.39 173.64,-125.39 173.64,-143.89"/>
<text xml:space="preserve" text-anchor="middle" x="151.77" y="-131.34" font-family="Times,serif" font-size="9.00">Agent Z</text>
</g>
<!-- Agent Z&#45;&gt;Left Wheel -->
<g id="edge3" class="edge">
<title>Agent Z&#45;&gt;Left Wheel</title>
<path fill="none" stroke="red" stroke-width="0.14" d="M155.12,-124.96C158.49,-116.24 163.95,-102.12 169.39,-88.04"/>
<polygon fill="red" stroke="red" stroke-width="0.14" points="172.52,-89.64 172.86,-79.05 166,-87.11 172.52,-89.64"/>
</g>
<!-- Agent Z&#45;&gt;Right Wheel -->
<g id="edge4" class="edge">
<title>Agent Z&#45;&gt;Right Wheel</title>
<path fill="none" stroke="green" stroke-width="0.26" d="M171.23,-124.96C202.23,-111.13 263.72,-83.69 306.96,-64.4"/>
<polygon fill="green" stroke="green" stroke-width="0.26" points="308.36,-67.61 316.07,-60.34 305.51,-61.22 308.36,-67.61"/>
</g>
<!-- Target X -->
<g id="node3" class="node">
<title>Target X</title>
<polygon fill="lightgray" stroke="black" points="65.14,-143.89 18.39,-143.89 18.39,-125.39 65.14,-125.39 65.14,-143.89"/>
<text xml:space="preserve" text-anchor="middle" x="41.77" y="-131.34" font-family="Times,serif" font-size="9.00">Target X</text>
</g>
<!-- Target X&#45;&gt;Left Wheel -->
<g id="edge5" class="edge">
<title>Target X&#45;&gt;Left Wheel</title>
<path fill="none" stroke="green" stroke-width="0.16" d="M55.67,-124.96C76.12,-112.18 115.15,-87.8 145.33,-68.95"/>
<polygon fill="green" stroke="green" stroke-width="0.16" points="147.14,-71.95 153.77,-63.68 143.44,-66.01 147.14,-71.95"/>
</g>
<!-- Target Z -->
<g id="node4" class="node">
<title>Target Z</title>
<polygon fill="lightgray" stroke="black" points="246.39,-203.64 201.14,-203.64 201.14,-185.14 246.39,-185.14 246.39,-203.64"/>
<text xml:space="preserve" text-anchor="middle" x="223.77" y="-191.09" font-family="Times,serif" font-size="9.00">Target Z</text>
</g>
<!-- Target Z&#45;&gt;Left Wheel -->
<g id="edge6" class="edge">
<title>Target Z&#45;&gt;Left Wheel</title>
<path fill="none" stroke="red" stroke-width="0.31" d="M200.96,-192.18C150.86,-189.02 33.72,-178.55 9.77,-149.14 -30.93,-99.17 72.95,-67.06 138.33,-52.38"/>
<polygon fill="red" stroke="red" stroke-width="0.31" points="138.97,-55.82 148,-50.27 137.48,-48.98 138.97,-55.82"/>
</g>
<!-- 9 -->
<g id="node12" class="node">
<title>9</title>
<ellipse fill="white" stroke="black" cx="475.77" cy="-134.64" rx="14.5" ry="14.5"/>
<text xml:space="preserve" text-anchor="middle" x="475.77" y="-131.34" font-family="Times,serif" font-size="9.00">9</text>
</g>
<!-- Target Z&#45;&gt;9 -->
<g id="edge16" class="edge">
<title>Target Z&#45;&gt;9</title>
<path fill="none" stroke="green" stroke-width="0.18" d="M246.78,-189.96C297.01,-182.3 414.98,-163.39 452.77,-149.14 453.48,-148.87 454.2,-148.58 454.92,-148.27"/>
<polygon fill="green" stroke="green" stroke-width="0.18" points="456.45,-151.42 463.73,-143.72 453.24,-145.2 456.45,-151.42"/>
</g>
<!-- Blob Visible -->
<g id="node5" class="node">
<title>Blob Visible</title>
<polygon fill="lightgray" stroke="black" points="251.52,-143.89 192.02,-143.89 192.02,-125.39 251.52,-125.39 251.52,-143.89"/>
<text xml:space="preserve" text-anchor="middle" x="221.77" y="-131.34" font-family="Times,serif" font-size="9.00">Blob Visible</text>
</g>
<!-- Blob Visible&#45;&gt;Left Wheel -->
<g id="edge7" class="edge">
<title>Blob Visible&#45;&gt;Left Wheel</title>
<path fill="none" stroke="green" stroke-width="0.2" d="M218.41,-124.96C215.07,-116.32 209.69,-102.39 204.3,-88.44"/>
<polygon fill="green" stroke="green" stroke-width="0.2" points="207.57,-87.21 200.7,-79.14 201.04,-89.73 207.57,-87.21"/>
</g>
<!-- Blob Visible&#45;&gt;Right Wheel -->
<g id="edge8" class="edge">
<title>Blob Visible&#45;&gt;Right Wheel</title>
<path fill="none" stroke="red" stroke-width="0.18" d="M234.52,-124.96C252.25,-112.88 285.22,-90.43 312.16,-72.09"/>
<polygon fill="red" stroke="red" stroke-width="0.18" points="313.78,-75.22 320.08,-66.69 309.84,-69.43 313.78,-75.22"/>
</g>
<!-- Blob X -->
<g id="node6" class="node">
<title>Blob X</title>
<polygon fill="lightgray" stroke="black" points="328.89,-203.64 286.64,-203.64 286.64,-185.14 328.89,-185.14 328.89,-203.64"/>
<text xml:space="preserve" text-anchor="middle" x="307.77" y="-191.09" font-family="Times,serif" font-size="9.00">Blob X</text>
</g>
<!-- Blob X&#45;&gt;Right Wheel -->
<g id="edge9" class="edge">
<title>Blob X&#45;&gt;Right Wheel</title>
<path fill="none" stroke="green" stroke-width="0.29" d="M329.16,-191.7C374.49,-187.62 477.75,-175.58 498.77,-149.14 531.32,-108.18 458.62,-75.18 405.13,-57.42"/>
<polygon fill="green" stroke="green" stroke-width="0.29" points="406.4,-54.15 395.81,-54.41 404.25,-60.81 406.4,-54.15"/>
</g>
<!-- 5 -->
<g id="node11" class="node">
<title>5</title>
<ellipse fill="white" stroke="black" cx="97.77" cy="-134.64" rx="14.5" ry="14.5"/>
<text xml:space="preserve" text-anchor="middle" x="97.77" y="-131.34" font-family="Times,serif" font-size="9.00">5</text>
</g>
<!-- Blob X&#45;&gt;5 -->
<g id="edge14" class="edge">
<title>Blob X&#45;&gt;5</title>
<path fill="none" stroke="green" stroke-width="0.45" d="M286.44,-189.18C244.13,-180.68 151.03,-161.28 120.77,-149.14 120.18,-148.9 119.58,-148.65 118.99,-148.39"/>
<polygon fill="green" stroke="green" stroke-width="0.45" points="120.69,-145.33 110.2,-143.81 117.45,-151.53 120.69,-145.33"/>
</g>
<!-- Blob Y -->
<g id="node7" class="node">
<title>Blob Y</title>
<polygon fill="lightgray" stroke="black" points="311.52,-143.89 270.02,-143.89 270.02,-125.39 311.52,-125.39 311.52,-143.89"/>
<text xml:space="preserve" text-anchor="middle" x="290.77" y="-131.34" font-family="Times,serif" font-size="9.00">Blob Y</text>
</g>
<!-- Blob Y&#45;&gt;Left Wheel -->
<g id="edge10" class="edge">
<title>Blob Y&#45;&gt;Left Wheel</title>
<path fill="none" stroke="green" stroke-width="0.19" d="M280.79,-124.96C267.63,-113.49 243.73,-92.68 223.33,-74.91"/>
<polygon fill="green" stroke="green" stroke-width="0.19" points="225.76,-72.39 215.92,-68.46 221.17,-77.67 225.76,-72.39"/>
</g>
<!-- Blob Y&#45;&gt;Right Wheel -->
<g id="edge11" class="edge">
<title>Blob Y&#45;&gt;Right Wheel</title>
<path fill="none" stroke="green" stroke-width="0.28" d="M296.9,-124.96C303.5,-115.62 314.49,-100.08 325.12,-85.03"/>
<polygon fill="green" stroke="green" stroke-width="0.28" points="327.81,-87.29 330.72,-77.1 322.09,-83.25 327.81,-87.29"/>
</g>
<!-- Blob Size -->
<g id="node8" class="node">
<title>Blob Size</title>
<polygon fill="lightgray" stroke="black" points="379.64,-143.89 329.89,-143.89 329.89,-125.39 379.64,-125.39 379.64,-143.89"/>
<text xml:space="preserve" text-anchor="middle" x="354.77" y="-131.34" font-family="Times,serif" font-size="9.00">Blob Size</text>
</g>
<!-- Blob Size&#45;&gt;Left Wheel -->
<g id="edge12" class="edge">
<title>Blob Size&#45;&gt;Left Wheel</title>
<path fill="none" stroke="green" stroke-width="0.15" d="M338.66,-124.96C313.75,-111.53 265.05,-85.28 229.49,-66.1"/>
<polygon fill="green" stroke="green" stroke-width="0.15" points="231.41,-63.17 220.95,-61.5 228.09,-69.33 231.41,-63.17"/>
</g>
<!-- Blob Size&#45;&gt;Right Wheel -->
<g id="edge13" class="edge">
<title>Blob Size&#45;&gt;Right Wheel</title>
<path fill="none" stroke="green" stroke-width="0.57" d="M354.77,-124.96C354.77,-117.7 354.77,-106.71 354.77,-95.11"/>
<polygon fill="green" stroke="green" stroke-width="0.57" points="358.27,-95.23 354.77,-85.23 351.27,-95.23 358.27,-95.23"/>
</g>
<!-- 5&#45;&gt;Left Wheel -->
<g id="edge15" class="edge">
<title>5&#45;&gt;Left Wheel</title>
<path fill="none" stroke="red" stroke-width="0.39" d="M107.63,-123.6C118.46,-112.58 136.46,-94.26 152.56,-77.88"/>
<polygon fill="red" stroke="red" stroke-width="0.39" points="154.86,-80.53 159.38,-70.95 149.87,-75.63 154.86,-80.53"/>
</g>
<!-- 9&#45;&gt;Right Wheel -->
<g id="edge17" class="edge">
<title>9&#45;&gt;Right Wheel</title>
<path fill="none" stroke="red" stroke-width="0.34" d="M464.6,-125.28C449.21,-113.77 420.65,-92.39 396.52,-74.32"/>
<polygon fill="red" stroke="red" stroke-width="0.34" points="398.7,-71.59 388.6,-68.4 394.51,-77.19 398.7,-71.59"/>
</g>
</g>
</svg>
