<?xml version="1.0" encoding="UTF-8" standalone="no"?>
<!DOCTYPE svg PUBLIC "-//W3C//DTD SVG 1.1//EN"
 "http://www.w3.org/Graphics/SVG/1.1/DTD/svg11.dtd">
<!-- Generated by graphviz version 14.0.1 (0)
 -->
<!-- Pages: 1 -->
<svg width="607pt" height="212pt"
 viewBox="0.00 0.00 607.00 212.00" xmlns="http://www.w3.org/2000/svg" xmlns:xlink="http://www.w3.org/1999/xlink">
<g id="graph0" class="graph" transform="scale(1 1) rotate(0) translate(4 207.64)">
<polygon fill="white" stroke="none" points="-4,4 -4,-207.64 603.45,-207.64 603.45,4 -4,4"/>
<!-- Agent X -->
<g id="node1" class="node">
<title>Agent X</title>
<polygon fill="lightgray" stroke="black" points="414.58,-143.89 369.33,-143.89 369.33,-125.39 414.58,-125.39 414.58,-143.89"/>
<text xml:space="preserve" text-anchor="middle" x="391.95" y="-131.34" font-family="Times,serif" font-size="9.00">Agent X</text>
</g>
<!-- Left Wheel -->
<g id="node9" class="node">
<title>Left Wheel</title>
<ellipse fill="lightblue" stroke="black" cx="192.95" cy="-42.07" rx="38.89" ry="38.89"/>
<text xml:space="preserve" text-anchor="middle" x="192.95" y="-38.77" font-family="Times,serif" font-size="9.00">Left Wheel</text>
</g>
<!-- Agent X&#45;&gt;Left Wheel -->
<g id="edge1" class="edge">
<title>Agent X&#45;&gt;Left Wheel</title>
<path fill="none" stroke="red" stroke-width="0.46" d="M372.87,-124.96C342,-110.91 280.3,-82.83 237.83,-63.5"/>
<polygon fill="red" stroke="red" stroke-width="0.46" points="239.47,-60.4 228.92,-59.44 236.57,-66.77 239.47,-60.4"/>
</g>
<!-- Right Wheel -->
<g id="node10" class="node">
<title>Right Wheel</title>
<ellipse fill="lightblue" stroke="black" cx="422.95" cy="-42.07" rx="42.07" ry="42.07"/>
<text xml:space="preserve" text-anchor="middle" x="422.95" y="-38.77" font-family="Times,serif" font-size="9.00">Right Wheel</text>
</g>
<!-- Agent X&#45;&gt;Right Wheel -->
<g id="edge2" class="edge">
<title>Agent X&#45;&gt;Right Wheel</title>
<path fill="none" stroke="green" stroke-width="0.12" d="M394.92,-124.96C397.65,-116.98 401.94,-104.47 406.34,-91.61"/>
<polygon fill="green" stroke="green" stroke-width="0.12" points="409.56,-93 409.49,-82.41 402.94,-90.74 409.56,-93"/>
</g>
<!-- Agent Z -->
<g id="node2" class="node">
<title>Agent Z</title>
<polygon fill="lightgray" stroke="black" points="476.83,-143.89 433.08,-143.89 433.08,-125.39 476.83,-125.39 476.83,-143.89"/>
<text xml:space="preserve" text-anchor="middle" x="454.95" y="-131.34" font-family="Times,serif" font-size="9.00">Agent Z</text>
</g>
<!-- Agent Z&#45;&gt;Left Wheel -->
<g id="edge3" class="edge">
<title>Agent Z&#45;&gt;Left Wheel</title>
<path fill="none" stroke="red" stroke-width="0.14" d="M435.71,-124.95C431.84,-123.29 427.79,-121.62 423.95,-120.15 360.93,-95.97 286.68,-71.97 239.71,-57.34"/>
<polygon fill="red" stroke="red" stroke-width="0.14" points="240.9,-54.04 230.31,-54.42 238.83,-60.73 240.9,-54.04"/>
</g>
<!-- Agent Z&#45;&gt;Right Wheel -->
<g id="edge4" class="edge">
<title>Agent Z&#45;&gt;Right Wheel</title>
<path fill="none" stroke="green" stroke-width="0.26" d="M451.88,-124.96C449.09,-117.05 444.73,-104.71 440.23,-91.98"/>
<polygon fill="green" stroke="green" stroke-width="0.26" points="443.55,-90.88 436.92,-82.61 436.95,-93.21 443.55,-90.88"/>
</g>
<!-- Target X -->
<g id="node3" class="node">
<title>Target X</title>
<polygon fill="lightgray" stroke="black" points="107.33,-143.89 60.58,-143.89 60.58,-125.39 107.33,-125.39 107.33,-143.89"/>
<text xml:space="preserve" text-anchor="middle" x="83.95" y="-131.34" font-family="Times,serif" font-size="9.00">Target X</text>
</g>
<!-- Target X&#45;&gt;Left Wheel -->
<g id="edge5" class="edge">
<title>Target X&#45;&gt;Left Wheel</title>
<path fill="none" stroke="green" stroke-width="0.16" d="M94.4,-124.96C108.45,-113.29 134.16,-91.92 155.79,-73.95"/>
<polygon fill="green" stroke="green" stroke-width="0.16" points="157.91,-76.74 163.36,-67.66 153.43,-71.36 157.91,-76.74"/>
</g>
<!-- Target Z -->
<g id="node4" class="node">
<title>Target Z</title>
<polygon fill="lightgray" stroke="black" points="565.58,-203.64 520.33,-203.64 520.33,-185.14 565.58,-185.14 565.58,-203.64"/>
<text xml:space="preserve" text-anchor="middle" x="542.95" y="-191.09" font-family="Times,serif" font-size="9.00">Target Z</text>
</g>
<!-- Target Z&#45;&gt;Left Wheel -->
<g id="edge6" class="edge">
<title>Target Z&#45;&gt;Left Wheel</title>
<path fill="none" stroke="red" stroke-width="0.31" d="M520.05,-192.52C440.33,-189.28 178.48,-176.61 153.95,-149.14 136.88,-130.01 147.39,-102.78 161.78,-80.7"/>
<polygon fill="red" stroke="red" stroke-width="0.31" points="164.57,-82.82 167.39,-72.6 158.82,-78.83 164.57,-82.82"/>
</g>
<!-- Target Z&#45;&gt;Right Wheel -->
<g id="edge7" class="edge">
<title>Target Z&#45;&gt;Right Wheel</title>
<path fill="none" stroke="green" stroke-width="0.2" stroke-dasharray="1,5" d="M541.8,-185.01C539.5,-170.63 533.27,-140.83 518.95,-120.15 505.34,-100.49 485.3,-83.29 467.04,-70.16"/>
<polygon fill="green" stroke="green" stroke-width="0.2" points="469.25,-67.44 459.04,-64.59 465.25,-73.18 469.25,-67.44"/>
</g>
<!-- 9 -->
<g id="node12" class="node">
<title>9</title>
<ellipse fill="white" stroke="black" cx="584.95" cy="-134.64" rx="14.5" ry="14.5"/>
<text xml:space="preserve" text-anchor="middle" x="584.95" y="-131.34" font-family="Times,serif" font-size="9.00">9</text>
</g>
<!-- Target Z&#45;&gt;9 -->
<g id="edge18" class="edge">
<title>Target Z&#45;&gt;9</title>
<path fill="none" stroke="green" stroke-width="0.18" d="M549.15,-184.87C554.8,-177.1 563.35,-165.34 570.68,-155.26"/>
<polygon fill="green" stroke="green" stroke-width="0.18" points="573.49,-157.35 576.54,-147.21 567.83,-153.24 573.49,-157.35"/>
</g>
<!-- Blob Visible -->
<g id="node5" class="node">
<title>Blob Visible</title>
<polygon fill="lightgray" stroke="black" points="222.7,-143.89 163.2,-143.89 163.2,-125.39 222.7,-125.39 222.7,-143.89"/>
<text xml:space="preserve" text-anchor="middle" x="192.95" y="-131.34" font-family="Times,serif" font-size="9.00">Blob Visible</text>
</g>
<!-- Blob Visible&#45;&gt;Left Wheel -->
<g id="edge8" class="edge">
<title>Blob Visible&#45;&gt;Left Wheel</title>
<path fill="none" stroke="green" stroke-width="0.2" d="M192.95,-124.96C192.95,-116.99 192.95,-104.51 192.95,-91.68"/>
<polygon fill="green" stroke="green" stroke-width="0.2" points="196.45,-91.7 192.95,-81.7 189.45,-91.7 196.45,-91.7"/>
</g>
<!-- Blob Visible&#45;&gt;Right Wheel -->
<g id="edge9" class="edge">
<title>Blob Visible&#45;&gt;Right Wheel</title>
<path fill="none" stroke="red" stroke-width="0.18" d="M215,-124.96C251.48,-110.6 325.2,-81.56 374.34,-62.22"/>
<polygon fill="red" stroke="red" stroke-width="0.18" points="375.54,-65.5 383.56,-58.58 372.98,-58.99 375.54,-65.5"/>
</g>
<!-- Blob X -->
<g id="node6" class="node">
<title>Blob X</title>
<polygon fill="lightgray" stroke="black" points="49.08,-203.64 6.83,-203.64 6.83,-185.14 49.08,-185.14 49.08,-203.64"/>
<text xml:space="preserve" text-anchor="middle" x="27.95" y="-191.09" font-family="Times,serif" font-size="9.00">Blob X</text>
</g>
<!-- Blob X&#45;&gt;Left Wheel -->
<g id="edge10" class="edge">
<title>Blob X&#45;&gt;Left Wheel</title>
<path fill="none" stroke="red" stroke-width="0.2" stroke-dasharray="1,5" d="M20.99,-185.03C9.94,-170.7 -9.01,-140.95 4.95,-120.15 35.76,-74.22 99.35,-55.64 144.01,-48.13"/>
<polygon fill="red" stroke="red" stroke-width="0.2" points="144.44,-51.61 153.78,-46.62 143.36,-44.69 144.44,-51.61"/>
</g>
<!-- Blob X&#45;&gt;Right Wheel -->
<g id="edge11" class="edge">
<title>Blob X&#45;&gt;Right Wheel</title>
<path fill="none" stroke="green" stroke-width="0.29" d="M49.33,-192.97C135.79,-191.07 456.25,-181.85 485.95,-149.14 505.96,-127.1 485.68,-97.74 462.96,-75.49"/>
<polygon fill="green" stroke="green" stroke-width="0.29" points="465.55,-73.12 455.86,-68.84 460.76,-78.23 465.55,-73.12"/>
</g>
<!-- 5 -->
<g id="node11" class="node">
<title>5</title>
<ellipse fill="white" stroke="black" cx="27.95" cy="-134.64" rx="14.5" ry="14.5"/>
<text xml:space="preserve" text-anchor="middle" x="27.95" y="-131.34" font-family="Times,serif" font-size="9.00">5</text>
</g>
<!-- Blob X&#45;&gt;5 -->
<g id="edge16" class="edge">
<title>Blob X&#45;&gt;5</title>
<path fill="none" stroke="green" stroke-width="0.45" d="M27.95,-184.87C27.95,-178.34 27.95,-168.98 27.95,-160.18"/>
<polygon fill="green" stroke="green" stroke-width="0.45" points="31.45,-160.26 27.95,-150.26 24.45,-160.26 31.45,-160.26"/>
</g>
<!-- Blob Y -->
<g id="node7" class="node">
<title>Blob Y</title>
<polygon fill="lightgray" stroke="black" points="282.7,-143.89 241.2,-143.89 241.2,-125.39 282.7,-125.39 282.7,-143.89"/>
<text xml:space="preserve" text-anchor="middle" x="261.95" y="-131.34" font-family="Times,serif" font-size="9.00">Blob Y</text>
</g>
<!-- Blob Y&#45;&gt;Left Wheel -->
<g id="edge12" class="edge">
<title>Blob Y&#45;&gt;Left Wheel</title>
<path fill="none" stroke="green" stroke-width="0.19" d="M255.33,-124.96C247.62,-114.84 234.36,-97.43 222.04,-81.26"/>
<polygon fill="green" stroke="green" stroke-width="0.19" points="225.12,-79.52 216.28,-73.69 219.55,-83.77 225.12,-79.52"/>
</g>
<!-- Blob Y&#45;&gt;Right Wheel -->
<g id="edge13" class="edge">
<title>Blob Y&#45;&gt;Right Wheel</title>
<path fill="none" stroke="green" stroke-width="0.28" d="M277.39,-124.96C300.29,-112.07 344.18,-87.38 377.8,-68.47"/>
<polygon fill="green" stroke="green" stroke-width="0.28" points="379.18,-71.71 386.18,-63.76 375.75,-65.61 379.18,-71.71"/>
</g>
<!-- Blob Size -->
<g id="node8" class="node">
<title>Blob Size</title>
<polygon fill="lightgray" stroke="black" points="350.83,-143.89 301.08,-143.89 301.08,-125.39 350.83,-125.39 350.83,-143.89"/>
<text xml:space="preserve" text-anchor="middle" x="325.95" y="-131.34" font-family="Times,serif" font-size="9.00">Blob Size</text>
</g>
<!-- Blob Size&#45;&gt;Left Wheel -->
<g id="edge14" class="edge">
<title>Blob Size&#45;&gt;Left Wheel</title>
<path fill="none" stroke="green" stroke-width="0.15" d="M313.2,-124.96C294.93,-112.52 260.51,-89.08 233.16,-70.45"/>
<polygon fill="green" stroke="green" stroke-width="0.15" points="235.34,-67.71 225.11,-64.97 231.4,-73.49 235.34,-67.71"/>
</g>
<!-- Blob Size&#45;&gt;Right Wheel -->
<g id="edge15" class="edge">
<title>Blob Size&#45;&gt;Right Wheel</title>
<path fill="none" stroke="green" stroke-width="0.57" d="M335.25,-124.96C346.7,-114.26 366.86,-95.44 384.97,-78.54"/>
<polygon fill="green" stroke="green" stroke-width="0.57" points="387.02,-81.41 391.94,-72.02 382.25,-76.29 387.02,-81.41"/>
</g>
<!-- 5&#45;&gt;Left Wheel -->
<g id="edge17" class="edge">
<title>5&#45;&gt;Left Wheel</title>
<path fill="none" stroke="red" stroke-width="0.39" d="M40.14,-126.75C43.92,-124.62 48.1,-122.28 51.95,-120.15 84.72,-101.98 121.92,-81.66 149.88,-66.44"/>
<polygon fill="red" stroke="red" stroke-width="0.39" points="151.36,-69.62 158.47,-61.77 148.01,-63.47 151.36,-69.62"/>
</g>
<!-- 9&#45;&gt;Right Wheel -->
<g id="edge19" class="edge">
<title>9&#45;&gt;Right Wheel</title>
<path fill="none" stroke="red" stroke-width="0.34" d="M572.51,-126.69C550.51,-114.39 503.75,-88.25 468.33,-68.44"/>
<polygon fill="red" stroke="red" stroke-width="0.34" points="470.48,-65.63 460.04,-63.81 467.06,-71.74 470.48,-65.63"/>
</g>
</g>
</svg>
