<?xml version="1.0" encoding="UTF-8" standalone="no"?>
<!DOCTYPE svg PUBLIC "-//W3C//DTD SVG 1.1//EN"
 "http://www.w3.org/Graphics/SVG/1.1/DTD/svg11.dtd">
<!-- Generated by graphviz version 14.0.2 (20251019.1705)
 -->
<!-- Pages: 1 -->
<svg width="693pt" height="148pt"
 viewBox="0.00 0.00 693.00 148.00" xmlns="http://www.w3.org/2000/svg" xmlns:xlink="http://www.w3.org/1999/xlink">
<g id="graph0" class="graph" transform="scale(1 1) rotate(0) translate(4 143.71)">
<polygon fill="white" stroke="none" points="-4,4 -4,-143.71 688.88,-143.71 688.88,4 -4,4"/>
<!-- Agent X -->
<g id="node1" class="node">
<title>Agent X</title>
<polygon fill="lightgray" stroke="black" points="354.12,-139.71 307.38,-139.71 307.38,-121.21 354.12,-121.21 354.12,-139.71"/>
<text xml:space="preserve" text-anchor="middle" x="330.75" y="-127.16" font-family="Times,serif" font-size="9.00">Agent X</text>
</g>
<!-- Left Wheel -->
<g id="node13" class="node">
<title>Left Wheel</title>
<ellipse fill="lightblue" stroke="black" cx="253.75" cy="-42.6" rx="38.89" ry="38.89"/>
<text xml:space="preserve" text-anchor="middle" x="253.75" y="-39.3" font-family="Times,serif" font-size="9.00">Left Wheel</text>
</g>
<!-- Agent X&#45;&gt;Left Wheel -->
<g id="edge1" class="edge">
<title>Agent X&#45;&gt;Left Wheel</title>
<path fill="none" stroke="red" stroke-width="0.48" d="M323.09,-120.91C314.47,-111.3 299.91,-95.07 286.34,-79.94"/>
<polygon fill="red" stroke="red" stroke-width="0.48" points="289.15,-77.83 279.86,-72.72 283.94,-82.5 289.15,-77.83"/>
</g>
<!-- Right Wheel -->
<g id="node14" class="node">
<title>Right Wheel</title>
<ellipse fill="lightblue" stroke="black" cx="352.75" cy="-42.6" rx="42.6" ry="42.6"/>
<text xml:space="preserve" text-anchor="middle" x="352.75" y="-39.3" font-family="Times,serif" font-size="9.00">Right Wheel</text>
</g>
<!-- Agent X&#45;&gt;Right Wheel -->
<g id="edge2" class="edge">
<title>Agent X&#45;&gt;Right Wheel</title>
<path fill="none" stroke="red" stroke-width="0.29" d="M332.94,-120.91C334.64,-114.29 337.14,-104.52 339.8,-94.14"/>
<polygon fill="red" stroke="red" stroke-width="0.29" points="343.18,-95.05 342.27,-84.5 336.4,-93.31 343.18,-95.05"/>
</g>
<!-- Agent Z -->
<g id="node2" class="node">
<title>Agent Z</title>
<polygon fill="lightgray" stroke="black" points="417.38,-139.71 372.12,-139.71 372.12,-121.21 417.38,-121.21 417.38,-139.71"/>
<text xml:space="preserve" text-anchor="middle" x="394.75" y="-127.16" font-family="Times,serif" font-size="9.00">Agent Z</text>
</g>
<!-- Agent Z&#45;&gt;Left Wheel -->
<g id="edge3" class="edge">
<title>Agent Z&#45;&gt;Left Wheel</title>
<path fill="none" stroke="green" stroke-width="0.12" d="M371.76,-120.79C352.11,-112.89 323.5,-100.18 300.75,-85.21 296.86,-82.64 292.96,-79.78 289.16,-76.78"/>
<polygon fill="green" stroke="green" stroke-width="0.12" points="291.61,-74.27 281.67,-70.61 287.16,-79.67 291.61,-74.27"/>
</g>
<!-- Agent Z&#45;&gt;Right Wheel -->
<g id="edge4" class="edge">
<title>Agent Z&#45;&gt;Right Wheel</title>
<path fill="none" stroke="green" stroke-width="0.39" d="M390.57,-120.91C386.97,-113.55 381.46,-102.29 375.75,-90.63"/>
<polygon fill="green" stroke="green" stroke-width="0.39" points="378.97,-89.23 371.43,-81.79 372.68,-92.31 378.97,-89.23"/>
</g>
<!-- Target X -->
<g id="node3" class="node">
<title>Target X</title>
<polygon fill="lightgray" stroke="black" points="482.5,-139.71 435,-139.71 435,-121.21 482.5,-121.21 482.5,-139.71"/>
<text xml:space="preserve" text-anchor="middle" x="458.75" y="-127.16" font-family="Times,serif" font-size="9.00">Target X</text>
</g>
<!-- Target X&#45;&gt;Left Wheel -->
<g id="edge5" class="edge">
<title>Target X&#45;&gt;Left Wheel</title>
<path fill="none" stroke="red" stroke-width="0.42" d="M434.52,-122.98C391.73,-111.49 306.72,-88.46 300.75,-85.21 296.71,-83.01 292.73,-80.4 288.89,-77.58"/>
<polygon fill="red" stroke="red" stroke-width="0.42" points="291.26,-75 281.25,-71.54 286.92,-80.49 291.26,-75"/>
</g>
<!-- Target X&#45;&gt;Right Wheel -->
<g id="edge6" class="edge">
<title>Target X&#45;&gt;Right Wheel</title>
<path fill="none" stroke="green" stroke-width="0.16" d="M448.2,-120.91C435.44,-110.58 413.21,-92.57 393.41,-76.53"/>
<polygon fill="green" stroke="green" stroke-width="0.16" points="395.84,-74 385.86,-70.42 391.43,-79.44 395.84,-74"/>
</g>
<!-- Target Z -->
<g id="node4" class="node">
<title>Target Z</title>
<polygon fill="lightgray" stroke="black" points="546.75,-139.71 500.75,-139.71 500.75,-121.21 546.75,-121.21 546.75,-139.71"/>
<text xml:space="preserve" text-anchor="middle" x="523.75" y="-127.16" font-family="Times,serif" font-size="9.00">Target Z</text>
</g>
<!-- Target Z&#45;&gt;Left Wheel -->
<g id="edge7" class="edge">
<title>Target Z&#45;&gt;Left Wheel</title>
<path fill="none" stroke="green" stroke-width="0.12" d="M500.37,-123.24C497.48,-122.53 494.55,-121.83 491.75,-121.21 407.44,-102.41 378.33,-123.2 300.75,-85.21 296.45,-83.1 292.24,-80.49 288.22,-77.62"/>
<polygon fill="green" stroke="green" stroke-width="0.12" points="290.44,-74.91 280.4,-71.52 286.14,-80.43 290.44,-74.91"/>
</g>
<!-- Target Z&#45;&gt;Right Wheel -->
<g id="edge8" class="edge">
<title>Target Z&#45;&gt;Right Wheel</title>
<path fill="none" stroke="red" stroke-width="0.14" d="M506.41,-120.75C481.52,-108.25 434.76,-84.78 399.33,-66.99"/>
<polygon fill="red" stroke="red" stroke-width="0.14" points="401.29,-64.06 390.78,-62.7 398.15,-70.31 401.29,-64.06"/>
</g>
<!-- Blob Visible -->
<g id="node5" class="node">
<title>Blob Visible</title>
<polygon fill="lightgray" stroke="black" points="624.88,-139.71 564.62,-139.71 564.62,-121.21 624.88,-121.21 624.88,-139.71"/>
<text xml:space="preserve" text-anchor="middle" x="594.75" y="-127.16" font-family="Times,serif" font-size="9.00">Blob Visible</text>
</g>
<!-- Blob Visible&#45;&gt;Left Wheel -->
<g id="edge9" class="edge">
<title>Blob Visible&#45;&gt;Left Wheel</title>
<path fill="none" stroke="red" stroke-width="0.15" d="M564.13,-122.77C561.3,-122.22 558.48,-121.69 555.75,-121.21 443.03,-101.35 404.67,-133.17 300.75,-85.21 296.4,-83.2 292.16,-80.66 288.12,-77.82"/>
<polygon fill="red" stroke="red" stroke-width="0.15" points="290.38,-75.14 280.32,-71.81 286.1,-80.68 290.38,-75.14"/>
</g>
<!-- Blob Visible&#45;&gt;Right Wheel -->
<g id="edge10" class="edge">
<title>Blob Visible&#45;&gt;Right Wheel</title>
<path fill="none" stroke="green" stroke-width="0.42" d="M570.21,-120.75C531.12,-106.88 453.92,-79.49 402.81,-61.36"/>
<polygon fill="green" stroke="green" stroke-width="0.42" points="404.15,-58.12 393.55,-58.08 401.81,-64.72 404.15,-58.12"/>
</g>
<!-- Blob X -->
<g id="node6" class="node">
<title>Blob X</title>
<polygon fill="lightgray" stroke="black" points="684.88,-139.71 642.62,-139.71 642.62,-121.21 684.88,-121.21 684.88,-139.71"/>
<text xml:space="preserve" text-anchor="middle" x="663.75" y="-127.16" font-family="Times,serif" font-size="9.00">Blob X</text>
</g>
<!-- Blob X&#45;&gt;Left Wheel -->
<g id="edge11" class="edge">
<title>Blob X&#45;&gt;Left Wheel</title>
<path fill="none" stroke="green" stroke-width="0.25" d="M642.22,-123.09C639.39,-122.38 636.51,-121.73 633.75,-121.21 487.51,-93.38 436.91,-145.38 300.75,-85.21 296.37,-83.27 292.11,-80.77 288.06,-77.97"/>
<polygon fill="green" stroke="green" stroke-width="0.25" points="290.42,-75.37 280.35,-72.07 286.17,-80.93 290.42,-75.37"/>
</g>
<!-- Blob X&#45;&gt;Right Wheel -->
<g id="edge12" class="edge">
<title>Blob X&#45;&gt;Right Wheel</title>
<path fill="none" stroke="red" stroke-width="0.32" d="M642.37,-123.56C593.58,-110.09 472.91,-76.77 403.7,-57.67"/>
<polygon fill="red" stroke="red" stroke-width="0.32" points="404.92,-54.37 394.35,-55.09 403.06,-61.12 404.92,-54.37"/>
</g>
<!-- Blob Y -->
<g id="node7" class="node">
<title>Blob Y</title>
<polygon fill="lightgray" stroke="black" points="41.5,-139.71 0,-139.71 0,-121.21 41.5,-121.21 41.5,-139.71"/>
<text xml:space="preserve" text-anchor="middle" x="20.75" y="-127.16" font-family="Times,serif" font-size="9.00">Blob Y</text>
</g>
<!-- Blob Y&#45;&gt;Left Wheel -->
<g id="edge13" class="edge">
<title>Blob Y&#45;&gt;Left Wheel</title>
<path fill="none" stroke="red" stroke-width="0.24" d="M41.84,-121.69C79.12,-107.95 157.47,-79.08 207.75,-60.55"/>
<polygon fill="red" stroke="red" stroke-width="0.24" points="208.89,-63.86 217.07,-57.12 206.47,-57.29 208.89,-63.86"/>
</g>
<!-- Blob Y&#45;&gt;Right Wheel -->
<g id="edge14" class="edge">
<title>Blob Y&#45;&gt;Right Wheel</title>
<path fill="none" stroke="green" stroke-width="0.63" d="M41.97,-123.26C44.91,-122.51 47.89,-121.8 50.75,-121.21 161.08,-98.22 198.54,-130.48 301.75,-85.21 305.64,-83.5 309.48,-81.41 313.19,-79.09"/>
<polygon fill="green" stroke="green" stroke-width="0.63" points="315.12,-82.01 321.36,-73.45 311.14,-76.25 315.12,-82.01"/>
</g>
<!-- Blob Size -->
<g id="node8" class="node">
<title>Blob Size</title>
<polygon fill="lightgray" stroke="black" points="110,-139.71 59.5,-139.71 59.5,-121.21 110,-121.21 110,-139.71"/>
<text xml:space="preserve" text-anchor="middle" x="84.75" y="-127.16" font-family="Times,serif" font-size="9.00">Blob Size</text>
</g>
<!-- Blob Size&#45;&gt;Left Wheel -->
<g id="edge15" class="edge">
<title>Blob Size&#45;&gt;Left Wheel</title>
<path fill="none" stroke="green" stroke-width="0.16" d="M101.88,-120.75C127.18,-107.9 175.33,-83.44 210.66,-65.49"/>
<polygon fill="green" stroke="green" stroke-width="0.16" points="211.8,-68.84 219.13,-61.19 208.63,-62.6 211.8,-68.84"/>
</g>
<!-- Blob Size&#45;&gt;Right Wheel -->
<g id="edge16" class="edge">
<title>Blob Size&#45;&gt;Right Wheel</title>
<path fill="none" stroke="green" stroke-width="0.16" d="M110.34,-123.12C113.17,-122.46 116.02,-121.81 118.75,-121.21 199.71,-103.43 226.73,-120.46 301.75,-85.21 305.82,-83.3 309.84,-80.99 313.73,-78.46"/>
<polygon fill="green" stroke="green" stroke-width="0.16" points="315.66,-81.38 321.81,-72.75 311.62,-75.66 315.66,-81.38"/>
</g>
<!-- &#45;9 -->
<g id="node9" class="node">
<title>&#45;9</title>
<polygon fill="lightgray" stroke="black" points="151.5,-139.71 128,-139.71 128,-121.21 151.5,-121.21 151.5,-139.71"/>
<text xml:space="preserve" text-anchor="middle" x="139.75" y="-127.16" font-family="Times,serif" font-size="9.00">&#45;9</text>
</g>
<!-- &#45;9&#45;&gt;Left Wheel -->
<g id="edge17" class="edge">
<title>&#45;9&#45;&gt;Left Wheel</title>
<path fill="none" stroke="green" stroke-width="0.64" d="M151.1,-120.91C165.71,-109.9 191.89,-90.19 214.15,-73.42"/>
<polygon fill="green" stroke="green" stroke-width="0.64" points="216.12,-76.32 222,-67.51 211.91,-70.73 216.12,-76.32"/>
</g>
<!-- &#45;9&#45;&gt;Right Wheel -->
<g id="edge18" class="edge">
<title>&#45;9&#45;&gt;Right Wheel</title>
<path fill="none" stroke="green" stroke-width="0.12" d="M151.65,-124.48C154.6,-123.34 157.77,-122.17 160.75,-121.21 222.3,-101.34 244,-114.33 301.75,-85.21 305.76,-83.18 309.74,-80.8 313.61,-78.22"/>
<polygon fill="green" stroke="green" stroke-width="0.12" points="315.62,-81.08 321.71,-72.41 311.54,-75.39 315.62,-81.08"/>
</g>
<!-- &#45;10 -->
<g id="node10" class="node">
<title>&#45;10</title>
<polygon fill="lightgray" stroke="black" points="197.75,-139.71 169.75,-139.71 169.75,-121.21 197.75,-121.21 197.75,-139.71"/>
<text xml:space="preserve" text-anchor="middle" x="183.75" y="-127.16" font-family="Times,serif" font-size="9.00">&#45;10</text>
</g>
<!-- &#45;10&#45;&gt;Left Wheel -->
<g id="edge19" class="edge">
<title>&#45;10&#45;&gt;Left Wheel</title>
<path fill="none" stroke="red" stroke-width="0.26" d="M190.72,-120.91C198.3,-111.61 210.96,-96.08 222.95,-81.38"/>
<polygon fill="red" stroke="red" stroke-width="0.26" points="225.65,-83.6 229.26,-73.64 220.23,-79.18 225.65,-83.6"/>
</g>
<!-- &#45;10&#45;&gt;Right Wheel -->
<g id="edge20" class="edge">
<title>&#45;10&#45;&gt;Right Wheel</title>
<path fill="none" stroke="green" stroke-width="0.38" d="M197.99,-124.26C228.35,-113.15 297.03,-87.92 301.75,-85.21 305.48,-83.06 309.22,-80.65 312.89,-78.09"/>
<polygon fill="green" stroke="green" stroke-width="0.38" points="314.83,-81 320.8,-72.25 310.67,-75.37 314.83,-81"/>
</g>
<!-- &#45;11 -->
<g id="node11" class="node">
<title>&#45;11</title>
<polygon fill="lightgray" stroke="black" points="243.75,-139.71 215.75,-139.71 215.75,-121.21 243.75,-121.21 243.75,-139.71"/>
<text xml:space="preserve" text-anchor="middle" x="229.75" y="-127.16" font-family="Times,serif" font-size="9.00">&#45;11</text>
</g>
<!-- &#45;11&#45;&gt;Left Wheel -->
<g id="edge21" class="edge">
<title>&#45;11&#45;&gt;Left Wheel</title>
<path fill="none" stroke="green" stroke-width="0.38" d="M232.14,-120.91C234.21,-113.49 237.4,-102.11 240.68,-90.34"/>
<polygon fill="green" stroke="green" stroke-width="0.38" points="243.97,-91.58 243.29,-81 237.23,-89.69 243.97,-91.58"/>
</g>
<!-- &#45;11&#45;&gt;Right Wheel -->
<g id="edge22" class="edge">
<title>&#45;11&#45;&gt;Right Wheel</title>
<path fill="none" stroke="red" stroke-width="0.15" d="M244.18,-121.35C258.98,-112.86 282.49,-98.89 301.75,-85.21 305.36,-82.64 309.04,-79.9 312.7,-77.1"/>
<polygon fill="red" stroke="red" stroke-width="0.15" points="314.72,-79.96 320.43,-71.04 310.4,-74.45 314.72,-79.96"/>
</g>
<!-- &#45;12 -->
<g id="node12" class="node">
<title>&#45;12</title>
<polygon fill="lightgray" stroke="black" points="289.75,-139.71 261.75,-139.71 261.75,-121.21 289.75,-121.21 289.75,-139.71"/>
<text xml:space="preserve" text-anchor="middle" x="275.75" y="-127.16" font-family="Times,serif" font-size="9.00">&#45;12</text>
</g>
<!-- &#45;12&#45;&gt;Left Wheel -->
<g id="edge23" class="edge">
<title>&#45;12&#45;&gt;Left Wheel</title>
<path fill="none" stroke="green" stroke-width="0.72" d="M273.56,-120.91C271.7,-113.64 268.86,-102.56 265.91,-91.05"/>
<polygon fill="green" stroke="green" stroke-width="0.72" points="269.34,-90.33 263.46,-81.51 262.56,-92.07 269.34,-90.33"/>
</g>
<!-- &#45;12&#45;&gt;Right Wheel -->
<g id="edge24" class="edge">
<title>&#45;12&#45;&gt;Right Wheel</title>
<path fill="none" stroke="green" stroke-width="0.24" d="M283.41,-120.91C291.58,-111.81 305.08,-96.76 318.01,-82.34"/>
<polygon fill="green" stroke="green" stroke-width="0.24" points="320.37,-84.95 324.44,-75.17 315.16,-80.28 320.37,-84.95"/>
</g>
</g>
</svg>
