<?xml version="1.0" encoding="UTF-8" standalone="no"?>
<!DOCTYPE svg PUBLIC "-//W3C//DTD SVG 1.1//EN"
 "http://www.w3.org/Graphics/SVG/1.1/DTD/svg11.dtd">
<!-- Generated by graphviz version 14.0.2 (20251019.1705)
 -->
<!-- Pages: 1 -->
<svg width="514pt" height="148pt"
 viewBox="0.00 0.00 514.00 148.00" xmlns="http://www.w3.org/2000/svg" xmlns:xlink="http://www.w3.org/1999/xlink">
<g id="graph0" class="graph" transform="scale(1 1) rotate(0) translate(4 143.71)">
<polygon fill="white" stroke="none" points="-4,4 -4,-143.71 509.5,-143.71 509.5,4 -4,4"/>
<!-- Agent X -->
<g id="node1" class="node">
<title>Agent X</title>
<polygon fill="lightgray" stroke="black" points="46.75,-139.71 0,-139.71 0,-121.21 46.75,-121.21 46.75,-139.71"/>
<text xml:space="preserve" text-anchor="middle" x="23.38" y="-127.16" font-family="Times,serif" font-size="9.00">Agent X</text>
</g>
<!-- Left Wheel -->
<g id="node9" class="node">
<title>Left Wheel</title>
<ellipse fill="lightblue" stroke="black" cx="172.38" cy="-42.6" rx="38.89" ry="38.89"/>
<text xml:space="preserve" text-anchor="middle" x="172.38" y="-39.3" font-family="Times,serif" font-size="9.00">Left Wheel</text>
</g>
<!-- Agent X&#45;&gt;Left Wheel -->
<g id="edge1" class="edge">
<title>Agent X&#45;&gt;Left Wheel</title>
<path fill="none" stroke="green" stroke-width="0.41" d="M38.48,-120.75C59.67,-108.54 99.04,-85.86 129.63,-68.23"/>
<polygon fill="green" stroke="green" stroke-width="0.41" points="131.36,-71.28 138.28,-63.25 127.87,-65.21 131.36,-71.28"/>
</g>
<!-- Right Wheel -->
<g id="node10" class="node">
<title>Right Wheel</title>
<ellipse fill="lightblue" stroke="black" cx="281.38" cy="-42.6" rx="42.6" ry="42.6"/>
<text xml:space="preserve" text-anchor="middle" x="281.38" y="-39.3" font-family="Times,serif" font-size="9.00">Right Wheel</text>
</g>
<!-- Agent X&#45;&gt;Right Wheel -->
<g id="edge2" class="edge">
<title>Agent X&#45;&gt;Right Wheel</title>
<path fill="none" stroke="red" stroke-width="0.35" d="M47.12,-123.23C49.9,-122.53 52.7,-121.84 55.38,-121.21 128.4,-103.83 151.44,-114.9 220.38,-85.21 226.78,-82.45 233.22,-78.98 239.39,-75.23"/>
<polygon fill="red" stroke="red" stroke-width="0.35" points="241.22,-78.22 247.76,-69.87 237.45,-72.32 241.22,-78.22"/>
</g>
<!-- Agent Z -->
<g id="node2" class="node">
<title>Agent Z</title>
<polygon fill="lightgray" stroke="black" points="110,-139.71 64.75,-139.71 64.75,-121.21 110,-121.21 110,-139.71"/>
<text xml:space="preserve" text-anchor="middle" x="87.38" y="-127.16" font-family="Times,serif" font-size="9.00">Agent Z</text>
</g>
<!-- Agent Z&#45;&gt;Left Wheel -->
<g id="edge3" class="edge">
<title>Agent Z&#45;&gt;Left Wheel</title>
<path fill="none" stroke="green" stroke-width="0.22" d="M95.84,-120.91C105.74,-110.91 122.76,-93.71 138.24,-78.08"/>
<polygon fill="green" stroke="green" stroke-width="0.22" points="140.43,-80.84 144.98,-71.27 135.46,-75.92 140.43,-80.84"/>
</g>
<!-- Agent Z&#45;&gt;Right Wheel -->
<g id="edge4" class="edge">
<title>Agent Z&#45;&gt;Right Wheel</title>
<path fill="none" stroke="green" stroke-width="0.45" d="M110.39,-122.64C142.97,-112.85 200.75,-94.93 220.38,-85.21 226.55,-82.15 232.82,-78.54 238.87,-74.75"/>
<polygon fill="green" stroke="green" stroke-width="0.45" points="240.51,-77.86 246.98,-69.47 236.69,-71.99 240.51,-77.86"/>
</g>
<!-- Target X -->
<g id="node3" class="node">
<title>Target X</title>
<polygon fill="lightgray" stroke="black" points="175.12,-139.71 127.62,-139.71 127.62,-121.21 175.12,-121.21 175.12,-139.71"/>
<text xml:space="preserve" text-anchor="middle" x="151.38" y="-127.16" font-family="Times,serif" font-size="9.00">Target X</text>
</g>
<!-- Target X&#45;&gt;Left Wheel -->
<g id="edge5" class="edge">
<title>Target X&#45;&gt;Left Wheel</title>
<path fill="none" stroke="green" stroke-width="0.29" d="M153.47,-120.91C155.26,-113.55 158.01,-102.31 160.87,-90.66"/>
<polygon fill="green" stroke="green" stroke-width="0.29" points="164.18,-91.82 163.16,-81.28 157.38,-90.16 164.18,-91.82"/>
</g>
<!-- Target X&#45;&gt;Right Wheel -->
<g id="edge6" class="edge">
<title>Target X&#45;&gt;Right Wheel</title>
<path fill="none" stroke="red" stroke-width="0.24" d="M165.2,-120.75C179.18,-111.91 201.38,-97.77 220.38,-85.21 226.12,-81.41 232.14,-77.37 238.07,-73.36"/>
<polygon fill="red" stroke="red" stroke-width="0.24" points="240.04,-76.25 246.35,-67.74 236.11,-70.46 240.04,-76.25"/>
</g>
<!-- Target Z -->
<g id="node4" class="node">
<title>Target Z</title>
<polygon fill="lightgray" stroke="black" points="445.38,-139.71 399.38,-139.71 399.38,-121.21 445.38,-121.21 445.38,-139.71"/>
<text xml:space="preserve" text-anchor="middle" x="422.38" y="-127.16" font-family="Times,serif" font-size="9.00">Target Z</text>
</g>
<!-- Target Z&#45;&gt;Right Wheel -->
<g id="edge7" class="edge">
<title>Target Z&#45;&gt;Right Wheel</title>
<path fill="none" stroke="red" stroke-width="0.33" d="M408.08,-120.75C389.06,-109.17 354.57,-88.17 326.37,-71"/>
<polygon fill="red" stroke="red" stroke-width="0.33" points="328.25,-68.05 317.89,-65.83 324.61,-74.02 328.25,-68.05"/>
</g>
<!-- Blob Visible -->
<g id="node5" class="node">
<title>Blob Visible</title>
<polygon fill="lightgray" stroke="black" points="253.5,-139.71 193.25,-139.71 193.25,-121.21 253.5,-121.21 253.5,-139.71"/>
<text xml:space="preserve" text-anchor="middle" x="223.38" y="-127.16" font-family="Times,serif" font-size="9.00">Blob Visible</text>
</g>
<!-- Blob Visible&#45;&gt;Left Wheel -->
<g id="edge8" class="edge">
<title>Blob Visible&#45;&gt;Left Wheel</title>
<path fill="none" stroke="green" stroke-width="0.88" d="M218.3,-120.91C213.35,-112.58 205.45,-99.27 197.58,-86.03"/>
<polygon fill="green" stroke="green" stroke-width="0.88" points="200.7,-84.43 192.58,-77.62 194.68,-88 200.7,-84.43"/>
</g>
<!-- Blob Visible&#45;&gt;Right Wheel -->
<g id="edge9" class="edge">
<title>Blob Visible&#45;&gt;Right Wheel</title>
<path fill="none" stroke="green" stroke-width="0.91" d="M229.15,-120.91C234.54,-112.92 243.03,-100.36 251.61,-87.66"/>
<polygon fill="green" stroke="green" stroke-width="0.91" points="254.37,-89.83 257.07,-79.59 248.57,-85.91 254.37,-89.83"/>
</g>
<!-- Blob X -->
<g id="node6" class="node">
<title>Blob X</title>
<polygon fill="lightgray" stroke="black" points="505.5,-139.71 463.25,-139.71 463.25,-121.21 505.5,-121.21 505.5,-139.71"/>
<text xml:space="preserve" text-anchor="middle" x="484.38" y="-127.16" font-family="Times,serif" font-size="9.00">Blob X</text>
</g>
<!-- Blob X&#45;&gt;Right Wheel -->
<g id="edge10" class="edge">
<title>Blob X&#45;&gt;Right Wheel</title>
<path fill="none" stroke="green" stroke-width="0.98" d="M463.79,-120.75C432.85,-107.67 373.43,-82.54 330.81,-64.51"/>
<polygon fill="green" stroke="green" stroke-width="0.98" points="332.3,-61.34 321.73,-60.67 329.57,-67.79 332.3,-61.34"/>
</g>
<!-- Blob Y -->
<g id="node7" class="node">
<title>Blob Y</title>
<polygon fill="lightgray" stroke="black" points="313.12,-139.71 271.62,-139.71 271.62,-121.21 313.12,-121.21 313.12,-139.71"/>
<text xml:space="preserve" text-anchor="middle" x="292.38" y="-127.16" font-family="Times,serif" font-size="9.00">Blob Y</text>
</g>
<!-- Blob Y&#45;&gt;Left Wheel -->
<g id="edge11" class="edge">
<title>Blob Y&#45;&gt;Left Wheel</title>
<path fill="none" stroke="red" stroke-width="0.11" d="M279.78,-120.71C267.03,-111.83 246.76,-97.66 229.38,-85.21 223.55,-81.04 217.42,-76.61 211.42,-72.25"/>
<polygon fill="red" stroke="red" stroke-width="0.11" points="213.65,-69.54 203.5,-66.48 209.53,-75.2 213.65,-69.54"/>
</g>
<!-- Blob Y&#45;&gt;Right Wheel -->
<g id="edge12" class="edge">
<title>Blob Y&#45;&gt;Right Wheel</title>
<path fill="none" stroke="red" stroke-width="0.16" d="M291.28,-120.91C290.46,-114.55 289.28,-105.28 288.01,-95.35"/>
<polygon fill="red" stroke="red" stroke-width="0.16" points="291.49,-95 286.75,-85.52 284.55,-95.89 291.49,-95"/>
</g>
<!-- Blob Size -->
<g id="node8" class="node">
<title>Blob Size</title>
<polygon fill="lightgray" stroke="black" points="381.62,-139.71 331.12,-139.71 331.12,-121.21 381.62,-121.21 381.62,-139.71"/>
<text xml:space="preserve" text-anchor="middle" x="356.38" y="-127.16" font-family="Times,serif" font-size="9.00">Blob Size</text>
</g>
<!-- Blob Size&#45;&gt;Left Wheel -->
<g id="edge13" class="edge">
<title>Blob Size&#45;&gt;Left Wheel</title>
<path fill="none" stroke="green" stroke-width="0.5" d="M330.64,-122.91C304.32,-115.66 262.67,-102.66 229.38,-85.21 223.18,-81.96 216.91,-78.09 210.91,-74.04"/>
<polygon fill="green" stroke="green" stroke-width="0.5" points="213.16,-71.34 202.97,-68.45 209.13,-77.07 213.16,-71.34"/>
</g>
<!-- Blob Size&#45;&gt;Right Wheel -->
<g id="edge14" class="edge">
<title>Blob Size&#45;&gt;Right Wheel</title>
<path fill="none" stroke="green" stroke-width="0.17" d="M348.91,-120.91C341.02,-111.88 328.02,-96.99 315.51,-82.68"/>
<polygon fill="green" stroke="green" stroke-width="0.17" points="318.43,-80.71 309.22,-75.48 313.16,-85.31 318.43,-80.71"/>
</g>
</g>
</svg>
