<?xml version="1.0" encoding="UTF-8" standalone="no"?>
<!DOCTYPE svg PUBLIC "-//W3C//DTD SVG 1.1//EN"
 "http://www.w3.org/Graphics/SVG/1.1/DTD/svg11.dtd">
<!-- Generated by graphviz version 14.0.2 (20251019.1705)
 -->
<!-- Pages: 1 -->
<svg width="697pt" height="213pt"
 viewBox="0.00 0.00 697.00 213.00" xmlns="http://www.w3.org/2000/svg" xmlns:xlink="http://www.w3.org/1999/xlink">
<g id="graph0" class="graph" transform="scale(1 1) rotate(0) translate(4 208.7)">
<polygon fill="white" stroke="none" points="-4,4 -4,-208.7 693.25,-208.7 693.25,4 -4,4"/>
<!-- Agent X -->
<g id="node1" class="node">
<title>Agent X</title>
<polygon fill="lightgray" stroke="black" points="378.87,-204.7 332.12,-204.7 332.12,-186.2 378.87,-186.2 378.87,-204.7"/>
<text xml:space="preserve" text-anchor="middle" x="355.5" y="-192.15" font-family="Times,serif" font-size="9.00">Agent X</text>
</g>
<!-- Right Wheel -->
<g id="node14" class="node">
<title>Right Wheel</title>
<ellipse fill="lightblue" stroke="black" cx="449.5" cy="-42.6" rx="42.6" ry="42.6"/>
<text xml:space="preserve" text-anchor="middle" x="449.5" y="-39.3" font-family="Times,serif" font-size="9.00">Right Wheel</text>
</g>
<!-- Agent X&#45;&gt;Right Wheel -->
<g id="edge1" class="edge">
<title>Agent X&#45;&gt;Right Wheel</title>
<path fill="none" stroke="red" stroke-width="0.53" d="M379.18,-195C446.82,-196.02 638.56,-194.85 677.5,-150.2 731.07,-88.75 585.46,-60.25 502.53,-49.31"/>
<polygon fill="red" stroke="red" stroke-width="0.53" points="503.17,-45.87 492.81,-48.08 502.28,-52.81 503.17,-45.87"/>
</g>
<!-- 6 -->
<g id="node15" class="node">
<title>6</title>
<ellipse fill="white" stroke="black" cx="14.5" cy="-135.7" rx="14.5" ry="14.5"/>
<text xml:space="preserve" text-anchor="middle" x="14.5" y="-132.4" font-family="Times,serif" font-size="9.00">6</text>
</g>
<!-- Agent X&#45;&gt;6 -->
<g id="edge24" class="edge">
<title>Agent X&#45;&gt;6</title>
<path fill="none" stroke="green" stroke-width="0.37" d="M332.02,-194.28C278.33,-193.25 143.06,-186.88 37.5,-150.2 36.77,-149.95 36.05,-149.67 35.33,-149.38"/>
<polygon fill="green" stroke="green" stroke-width="0.37" points="37.24,-146.42 26.74,-145.03 34.08,-152.67 37.24,-146.42"/>
</g>
<!-- Agent Z -->
<g id="node2" class="node">
<title>Agent Z</title>
<polygon fill="lightgray" stroke="black" points="668.12,-144.95 622.87,-144.95 622.87,-126.45 668.12,-126.45 668.12,-144.95"/>
<text xml:space="preserve" text-anchor="middle" x="645.5" y="-132.4" font-family="Times,serif" font-size="9.00">Agent Z</text>
</g>
<!-- Left Wheel -->
<g id="node13" class="node">
<title>Left Wheel</title>
<ellipse fill="lightblue" stroke="black" cx="345.5" cy="-42.6" rx="38.89" ry="38.89"/>
<text xml:space="preserve" text-anchor="middle" x="345.5" y="-39.3" font-family="Times,serif" font-size="9.00">Left Wheel</text>
</g>
<!-- Agent Z&#45;&gt;Left Wheel -->
<g id="edge2" class="edge">
<title>Agent Z&#45;&gt;Left Wheel</title>
<path fill="none" stroke="red" stroke-width="0.11" d="M626.81,-125.96C622.51,-124.19 617.9,-122.48 613.5,-121.21 520.02,-94.11 486.36,-124.89 397.5,-85.21 391.95,-82.73 386.5,-79.52 381.33,-75.98"/>
<polygon fill="red" stroke="red" stroke-width="0.11" points="383.72,-73.4 373.59,-70.31 379.58,-79.05 383.72,-73.4"/>
</g>
<!-- Agent Z&#45;&gt;Right Wheel -->
<g id="edge3" class="edge">
<title>Agent Z&#45;&gt;Right Wheel</title>
<path fill="none" stroke="green" stroke-width="0.46" d="M626.7,-125.97C597.25,-112.28 539.3,-85.34 497.68,-66"/>
<polygon fill="green" stroke="green" stroke-width="0.46" points="499.18,-62.83 488.63,-61.79 496.23,-69.18 499.18,-62.83"/>
</g>
<!-- Target X -->
<g id="node3" class="node">
<title>Target X</title>
<polygon fill="lightgray" stroke="black" points="94.25,-144.95 46.75,-144.95 46.75,-126.45 94.25,-126.45 94.25,-144.95"/>
<text xml:space="preserve" text-anchor="middle" x="70.5" y="-132.4" font-family="Times,serif" font-size="9.00">Target X</text>
</g>
<!-- Target X&#45;&gt;Left Wheel -->
<g id="edge4" class="edge">
<title>Target X&#45;&gt;Left Wheel</title>
<path fill="none" stroke="red" stroke-width="0.13" d="M91,-126.03C95.11,-124.37 99.42,-122.69 103.5,-121.21 170.59,-96.77 249.58,-72.21 298.6,-57.46"/>
<polygon fill="red" stroke="red" stroke-width="0.13" points="299.53,-60.83 308.1,-54.61 297.51,-54.13 299.53,-60.83"/>
</g>
<!-- Target X&#45;&gt;Right Wheel -->
<g id="edge5" class="edge">
<title>Target X&#45;&gt;Right Wheel</title>
<path fill="none" stroke="green" stroke-width="0.82" d="M89.4,-125.97C93.94,-124.16 98.82,-122.43 103.5,-121.21 229.15,-88.34 272.94,-133.53 393.5,-85.21 398.63,-83.15 403.72,-80.5 408.61,-77.53"/>
<polygon fill="green" stroke="green" stroke-width="0.82" points="410.28,-80.63 416.7,-72.2 406.42,-74.78 410.28,-80.63"/>
</g>
<!-- Target Z -->
<g id="node4" class="node">
<title>Target Z</title>
<polygon fill="lightgray" stroke="black" points="158.5,-144.95 112.5,-144.95 112.5,-126.45 158.5,-126.45 158.5,-144.95"/>
<text xml:space="preserve" text-anchor="middle" x="135.5" y="-132.4" font-family="Times,serif" font-size="9.00">Target Z</text>
</g>
<!-- Target Z&#45;&gt;Left Wheel -->
<g id="edge6" class="edge">
<title>Target Z&#45;&gt;Left Wheel</title>
<path fill="none" stroke="red" stroke-width="0.48" d="M155.63,-125.97C188.65,-111.64 255.13,-82.81 299.98,-63.35"/>
<polygon fill="red" stroke="red" stroke-width="0.48" points="301.32,-66.58 309.1,-59.39 298.54,-60.16 301.32,-66.58"/>
</g>
<!-- Target Z&#45;&gt;Right Wheel -->
<g id="edge7" class="edge">
<title>Target Z&#45;&gt;Right Wheel</title>
<path fill="none" stroke="red" stroke-width="0.32" d="M153.84,-126.08C158.24,-124.26 162.97,-122.5 167.5,-121.21 265.29,-93.24 299.75,-124.67 393.5,-85.21 398.86,-82.95 404.18,-80.07 409.29,-76.89"/>
<polygon fill="red" stroke="red" stroke-width="0.32" points="410.88,-80.04 417.25,-71.57 406.99,-74.22 410.88,-80.04"/>
</g>
<!-- Blob Visible -->
<g id="node5" class="node">
<title>Blob Visible</title>
<polygon fill="lightgray" stroke="black" points="236.62,-144.95 176.37,-144.95 176.37,-126.45 236.62,-126.45 236.62,-144.95"/>
<text xml:space="preserve" text-anchor="middle" x="206.5" y="-132.4" font-family="Times,serif" font-size="9.00">Blob Visible</text>
</g>
<!-- Blob Visible&#45;&gt;Left Wheel -->
<g id="edge8" class="edge">
<title>Blob Visible&#45;&gt;Left Wheel</title>
<path fill="none" stroke="green" stroke-width="0.71" d="M219.82,-125.97C239.08,-113.35 275.51,-89.47 304.21,-70.66"/>
<polygon fill="green" stroke="green" stroke-width="0.71" points="305.87,-73.76 312.32,-65.35 302.04,-67.9 305.87,-73.76"/>
</g>
<!-- Blob Visible&#45;&gt;Right Wheel -->
<g id="edge9" class="edge">
<title>Blob Visible&#45;&gt;Right Wheel</title>
<path fill="none" stroke="red" stroke-width="0.38" d="M230.31,-126.06C235.3,-124.37 240.55,-122.66 245.5,-121.21 310.44,-102.12 332.21,-113.97 393.5,-85.21 398.57,-82.83 403.63,-79.95 408.53,-76.83"/>
<polygon fill="red" stroke="red" stroke-width="0.38" points="410.33,-79.84 416.66,-71.33 406.41,-74.04 410.33,-79.84"/>
</g>
<!-- Blob X -->
<g id="node6" class="node">
<title>Blob X</title>
<polygon fill="lightgray" stroke="black" points="296.62,-144.95 254.37,-144.95 254.37,-126.45 296.62,-126.45 296.62,-144.95"/>
<text xml:space="preserve" text-anchor="middle" x="275.5" y="-132.4" font-family="Times,serif" font-size="9.00">Blob X</text>
</g>
<!-- Blob X&#45;&gt;Left Wheel -->
<g id="edge10" class="edge">
<title>Blob X&#45;&gt;Left Wheel</title>
<path fill="none" stroke="red" stroke-width="0.41" d="M282.21,-125.97C289.96,-115.88 303.24,-98.6 315.64,-82.46"/>
<polygon fill="red" stroke="red" stroke-width="0.41" points="318.31,-84.73 321.63,-74.67 312.76,-80.46 318.31,-84.73"/>
</g>
<!-- Blob X&#45;&gt;Right Wheel -->
<g id="edge11" class="edge">
<title>Blob X&#45;&gt;Right Wheel</title>
<path fill="none" stroke="red" stroke-width="1.4" d="M294.5,-126.04C298.14,-124.41 301.93,-122.74 305.5,-121.21 344.33,-104.54 356.69,-105.97 393.5,-85.21 398.01,-82.66 402.58,-79.8 407.06,-76.81"/>
<polygon fill="red" stroke="red" stroke-width="1.4" points="408.72,-79.91 414.92,-71.32 404.72,-74.17 408.72,-79.91"/>
</g>
<!-- Blob Y -->
<g id="node7" class="node">
<title>Blob Y</title>
<polygon fill="lightgray" stroke="black" points="356.25,-144.95 314.75,-144.95 314.75,-126.45 356.25,-126.45 356.25,-144.95"/>
<text xml:space="preserve" text-anchor="middle" x="335.5" y="-132.4" font-family="Times,serif" font-size="9.00">Blob Y</text>
</g>
<!-- Blob Y&#45;&gt;Left Wheel -->
<g id="edge12" class="edge">
<title>Blob Y&#45;&gt;Left Wheel</title>
<path fill="none" stroke="red" stroke-width="0.26" d="M336.45,-125.97C337.35,-117.8 338.76,-104.93 340.21,-91.77"/>
<polygon fill="red" stroke="red" stroke-width="0.26" points="343.66,-92.43 341.27,-82.11 336.7,-91.67 343.66,-92.43"/>
</g>
<!-- Blob Y&#45;&gt;Right Wheel -->
<g id="edge13" class="edge">
<title>Blob Y&#45;&gt;Right Wheel</title>
<path fill="none" stroke="red" stroke-width="0.36" d="M346.43,-125.97C360.72,-114.54 386.56,-93.9 408.79,-76.13"/>
<polygon fill="red" stroke="red" stroke-width="0.36" points="410.73,-79.06 416.36,-70.08 406.36,-73.59 410.73,-79.06"/>
</g>
<!-- Blob Size -->
<g id="node8" class="node">
<title>Blob Size</title>
<polygon fill="lightgray" stroke="black" points="424.75,-144.95 374.25,-144.95 374.25,-126.45 424.75,-126.45 424.75,-144.95"/>
<text xml:space="preserve" text-anchor="middle" x="399.5" y="-132.4" font-family="Times,serif" font-size="9.00">Blob Size</text>
</g>
<!-- Blob Size&#45;&gt;Left Wheel -->
<g id="edge14" class="edge">
<title>Blob Size&#45;&gt;Left Wheel</title>
<path fill="none" stroke="red" stroke-width="0.81" d="M394.32,-125.97C388.77,-116.6 379.53,-101.03 370.59,-85.93"/>
<polygon fill="red" stroke="red" stroke-width="0.81" points="373.82,-84.53 365.71,-77.71 367.8,-88.09 373.82,-84.53"/>
</g>
<!-- Blob Size&#45;&gt;Right Wheel -->
<g id="edge15" class="edge">
<title>Blob Size&#45;&gt;Right Wheel</title>
<path fill="none" stroke="green" stroke-width="0.36" d="M404.29,-125.97C409.02,-117.35 416.64,-103.47 424.28,-89.54"/>
<polygon fill="green" stroke="green" stroke-width="0.36" points="427.27,-91.37 429.02,-80.91 421.14,-88 427.27,-91.37"/>
</g>
<!-- &#45;9 -->
<g id="node9" class="node">
<title>&#45;9</title>
<polygon fill="lightgray" stroke="black" points="466.25,-144.95 442.75,-144.95 442.75,-126.45 466.25,-126.45 466.25,-144.95"/>
<text xml:space="preserve" text-anchor="middle" x="454.5" y="-132.4" font-family="Times,serif" font-size="9.00">&#45;9</text>
</g>
<!-- &#45;9&#45;&gt;Left Wheel -->
<g id="edge16" class="edge">
<title>&#45;9&#45;&gt;Left Wheel</title>
<path fill="none" stroke="red" stroke-width="0.67" d="M444.04,-125.97C430.12,-114.33 404.74,-93.12 383.22,-75.13"/>
<polygon fill="red" stroke="red" stroke-width="0.67" points="385.59,-72.55 375.67,-68.82 381.1,-77.92 385.59,-72.55"/>
</g>
<!-- &#45;9&#45;&gt;Right Wheel -->
<g id="edge17" class="edge">
<title>&#45;9&#45;&gt;Right Wheel</title>
<path fill="none" stroke="green" stroke-width="0.29" d="M454.02,-125.97C453.62,-118.66 453.01,-107.59 452.37,-95.91"/>
<polygon fill="green" stroke="green" stroke-width="0.29" points="455.87,-95.81 451.82,-86.01 448.88,-96.19 455.87,-95.81"/>
</g>
<!-- &#45;10 -->
<g id="node10" class="node">
<title>&#45;10</title>
<polygon fill="lightgray" stroke="black" points="512.5,-144.95 484.5,-144.95 484.5,-126.45 512.5,-126.45 512.5,-144.95"/>
<text xml:space="preserve" text-anchor="middle" x="498.5" y="-132.4" font-family="Times,serif" font-size="9.00">&#45;10</text>
</g>
<!-- &#45;10&#45;&gt;Left Wheel -->
<g id="edge18" class="edge">
<title>&#45;10&#45;&gt;Left Wheel</title>
<path fill="none" stroke="red" stroke-width="0.58" d="M484.51,-126.2C481.56,-124.49 478.45,-122.75 475.5,-121.21 441.66,-103.52 429.97,-105.28 397.5,-85.21 392.64,-82.21 387.72,-78.81 382.95,-75.29"/>
<polygon fill="red" stroke="red" stroke-width="0.58" points="385.33,-72.71 375.26,-69.42 381.08,-78.27 385.33,-72.71"/>
</g>
<!-- &#45;10&#45;&gt;Right Wheel -->
<g id="edge19" class="edge">
<title>&#45;10&#45;&gt;Right Wheel</title>
<path fill="none" stroke="green" stroke-width="0.2" d="M493.8,-125.97C489.12,-117.26 481.55,-103.2 473.99,-89.14"/>
<polygon fill="green" stroke="green" stroke-width="0.2" points="477.27,-87.85 469.45,-80.7 471.11,-91.17 477.27,-87.85"/>
</g>
<!-- &#45;11 -->
<g id="node11" class="node">
<title>&#45;11</title>
<polygon fill="lightgray" stroke="black" points="558.5,-144.95 530.5,-144.95 530.5,-126.45 558.5,-126.45 558.5,-144.95"/>
<text xml:space="preserve" text-anchor="middle" x="544.5" y="-132.4" font-family="Times,serif" font-size="9.00">&#45;11</text>
</g>
<!-- &#45;11&#45;&gt;Left Wheel -->
<g id="edge20" class="edge">
<title>&#45;11&#45;&gt;Left Wheel</title>
<path fill="none" stroke="green" stroke-width="1.54" d="M531.17,-126.13C528.07,-124.35 524.73,-122.6 521.5,-121.21 468.79,-98.51 448.43,-111.64 397.5,-85.21 392.75,-82.74 388.02,-79.81 383.46,-76.66"/>
<polygon fill="green" stroke="green" stroke-width="1.54" points="385.79,-74.03 375.67,-70.9 381.63,-79.66 385.79,-74.03"/>
</g>
<!-- &#45;11&#45;&gt;Right Wheel -->
<g id="edge21" class="edge">
<title>&#45;11&#45;&gt;Right Wheel</title>
<path fill="none" stroke="red" stroke-width="0.23" d="M535.39,-125.97C524.33,-115.37 505,-96.83 487.47,-80.01"/>
<polygon fill="red" stroke="red" stroke-width="0.23" points="489.98,-77.58 480.34,-73.18 485.14,-82.63 489.98,-77.58"/>
</g>
<!-- &#45;12 -->
<g id="node12" class="node">
<title>&#45;12</title>
<polygon fill="lightgray" stroke="black" points="604.5,-144.95 576.5,-144.95 576.5,-126.45 604.5,-126.45 604.5,-144.95"/>
<text xml:space="preserve" text-anchor="middle" x="590.5" y="-132.4" font-family="Times,serif" font-size="9.00">&#45;12</text>
</g>
<!-- &#45;12&#45;&gt;Left Wheel -->
<g id="edge22" class="edge">
<title>&#45;12&#45;&gt;Left Wheel</title>
<path fill="none" stroke="green" stroke-width="0.5" d="M577.24,-125.95C574.14,-124.18 570.78,-122.48 567.5,-121.21 495.48,-93.3 467.31,-118.22 397.5,-85.21 392.27,-82.74 387.1,-79.64 382.17,-76.26"/>
<polygon fill="green" stroke="green" stroke-width="0.5" points="384.32,-73.5 374.19,-70.4 380.17,-79.14 384.32,-73.5"/>
</g>
<!-- &#45;12&#45;&gt;Right Wheel -->
<g id="edge23" class="edge">
<title>&#45;12&#45;&gt;Right Wheel</title>
<path fill="none" stroke="green" stroke-width="0.58" d="M576.98,-125.97C558.07,-113.75 522.83,-90.98 494.18,-72.48"/>
<polygon fill="green" stroke="green" stroke-width="0.58" points="496.18,-69.6 485.88,-67.11 492.38,-75.48 496.18,-69.6"/>
</g>
<!-- 6&#45;&gt;Left Wheel -->
<g id="edge25" class="edge">
<title>6&#45;&gt;Left Wheel</title>
<path fill="none" stroke="red" stroke-width="0.34" d="M26.34,-126.89C29.83,-124.83 33.73,-122.75 37.5,-121.21 125.53,-85.15 234.79,-62.45 296.68,-51.48"/>
<polygon fill="red" stroke="red" stroke-width="0.34" points="297.18,-54.94 306.43,-49.78 295.98,-48.05 297.18,-54.94"/>
</g>
</g>
</svg>
