<?xml version="1.0" encoding="utf-8" standalone="no"?>
<!DOCTYPE svg PUBLIC "-//W3C//DTD SVG 1.1//EN"
  "http://www.w3.org/Graphics/SVG/1.1/DTD/svg11.dtd">
<svg xmlns:xlink="http://www.w3.org/1999/xlink" width="460.8pt" height="345.6pt" viewBox="0 0 460.8 345.6" xmlns="http://www.w3.org/2000/svg" version="1.1">
 <metadata>
  <rdf:RDF xmlns:dc="http://purl.org/dc/elements/1.1/" xmlns:cc="http://creativecommons.org/ns#" xmlns:rdf="http://www.w3.org/1999/02/22-rdf-syntax-ns#">
   <cc:Work>
    <dc:type rdf:resource="http://purl.org/dc/dcmitype/StillImage"/>
    <dc:date>2025-11-03T14:08:32.402420</dc:date>
    <dc:format>image/svg+xml</dc:format>
    <dc:creator>
     <cc:Agent>
      <dc:title>Matplotlib v3.10.7, https://matplotlib.org/</dc:title>
     </cc:Agent>
    </dc:creator>
   </cc:Work>
  </rdf:RDF>
 </metadata>
 <defs>
  <style type="text/css">*{stroke-linejoin: round; stroke-linecap: butt}</style>
 </defs>
 <g id="figure_1">
  <g id="patch_1">
   <path d="M 0 345.6 
L 460.8 345.6 
L 460.8 0 
L 0 0 
z
" style="fill: #ffffff"/>
  </g>
  <g id="axes_1">
   <g id="patch_2">
    <path d="M 57.6 307.584 
L 414.72 307.584 
L 414.72 41.472 
L 57.6 41.472 
z
" style="fill: #ffffff"/>
   </g>
   <g id="FillBetweenPolyCollection_1">
    <path d="M 73.832727 269.837617 
L 73.832727 307.584 
L 85.027712 307.584 
L 96.222696 307.584 
L 107.41768 307.584 
L 118.612665 307.584 
L 129.807649 307.584 
L 141.002633 307.584 
L 152.197618 307.584 
L 163.392602 307.584 
L 174.587586 307.584 
L 185.782571 307.584 
L 196.977555 307.584 
L 208.172539 307.584 
L 219.367524 307.584 
L 230.562508 307.584 
L 241.757492 307.584 
L 252.952476 307.584 
L 264.147461 307.584 
L 275.342445 307.584 
L 286.537429 307.584 
L 297.732414 307.584 
L 308.927398 307.584 
L 320.122382 307.584 
L 331.317367 307.584 
L 342.512351 307.584 
L 353.707335 307.584 
L 364.90232 307.584 
L 376.097304 307.584 
L 387.292288 307.584 
L 398.487273 307.584 
L 398.487273 307.584 
L 398.487273 307.584 
L 387.292288 307.584 
L 376.097304 307.584 
L 364.90232 307.584 
L 353.707335 307.584 
L 342.512351 307.584 
L 331.317367 307.584 
L 320.122382 307.584 
L 308.927398 307.584 
L 297.732414 307.584 
L 286.537429 307.584 
L 275.342445 307.584 
L 264.147461 307.584 
L 252.952476 307.584 
L 241.757492 307.584 
L 230.562508 307.584 
L 219.367524 307.584 
L 208.172539 296.799319 
L 196.977555 296.799319 
L 185.782571 296.799319 
L 174.587586 296.799319 
L 163.392602 296.799319 
L 152.197618 296.799319 
L 141.002633 296.799319 
L 129.807649 296.799319 
L 118.612665 296.799319 
L 107.41768 296.799319 
L 96.222696 296.799319 
L 85.027712 296.799319 
L 73.832727 269.837617 
z
" clip-path="url(#p6de7e426c7)" style="fill: #1f77b4"/>
   </g>
   <g id="FillBetweenPolyCollection_2">
    <path d="M 73.832727 248.268255 
L 73.832727 269.837617 
L 85.027712 296.799319 
L 96.222696 296.799319 
L 107.41768 296.799319 
L 118.612665 296.799319 
L 129.807649 296.799319 
L 141.002633 296.799319 
L 152.197618 296.799319 
L 163.392602 296.799319 
L 174.587586 296.799319 
L 185.782571 296.799319 
L 196.977555 296.799319 
L 208.172539 296.799319 
L 219.367524 307.584 
L 230.562508 307.584 
L 241.757492 307.584 
L 252.952476 307.584 
L 264.147461 307.584 
L 275.342445 307.584 
L 286.537429 307.584 
L 297.732414 307.584 
L 308.927398 307.584 
L 320.122382 307.584 
L 331.317367 307.584 
L 342.512351 307.584 
L 353.707335 307.584 
L 364.90232 307.584 
L 376.097304 307.584 
L 387.292288 307.584 
L 398.487273 307.584 
L 398.487273 307.584 
L 398.487273 307.584 
L 387.292288 307.584 
L 376.097304 307.584 
L 364.90232 307.584 
L 353.707335 307.584 
L 342.512351 307.584 
L 331.317367 307.584 
L 320.122382 307.584 
L 308.927398 307.584 
L 297.732414 307.584 
L 286.537429 307.584 
L 275.342445 307.584 
L 264.147461 296.799319 
L 252.952476 296.799319 
L 241.757492 296.799319 
L 230.562508 296.799319 
L 219.367524 296.799319 
L 208.172539 286.014638 
L 196.977555 286.014638 
L 185.782571 286.014638 
L 174.587586 286.014638 
L 163.392602 286.014638 
L 152.197618 286.014638 
L 141.002633 286.014638 
L 129.807649 286.014638 
L 118.612665 286.014638 
L 107.41768 286.014638 
L 96.222696 280.622298 
L 85.027712 275.229957 
L 73.832727 248.268255 
z
" clip-path="url(#p6de7e426c7)" style="fill: #ff7f0e"/>
   </g>
   <g id="FillBetweenPolyCollection_3">
    <path d="M 73.832727 205.129532 
L 73.832727 248.268255 
L 85.027712 275.229957 
L 96.222696 280.622298 
L 107.41768 286.014638 
L 118.612665 286.014638 
L 129.807649 286.014638 
L 141.002633 286.014638 
L 152.197618 286.014638 
L 163.392602 286.014638 
L 174.587586 286.014638 
L 185.782571 286.014638 
L 196.977555 286.014638 
L 208.172539 286.014638 
L 219.367524 296.799319 
L 230.562508 296.799319 
L 241.757492 296.799319 
L 252.952476 296.799319 
L 264.147461 296.799319 
L 275.342445 307.584 
L 286.537429 307.584 
L 297.732414 307.584 
L 308.927398 307.584 
L 320.122382 307.584 
L 331.317367 307.584 
L 342.512351 307.584 
L 353.707335 307.584 
L 364.90232 307.584 
L 376.097304 307.584 
L 387.292288 307.584 
L 398.487273 307.584 
L 398.487273 296.799319 
L 398.487273 296.799319 
L 387.292288 296.799319 
L 376.097304 291.406979 
L 364.90232 296.799319 
L 353.707335 291.406979 
L 342.512351 296.799319 
L 331.317367 302.19166 
L 320.122382 296.799319 
L 308.927398 291.406979 
L 297.732414 296.799319 
L 286.537429 291.406979 
L 275.342445 296.799319 
L 264.147461 280.622298 
L 252.952476 286.014638 
L 241.757492 286.014638 
L 230.562508 286.014638 
L 219.367524 286.014638 
L 208.172539 275.229957 
L 196.977555 275.229957 
L 185.782571 275.229957 
L 174.587586 275.229957 
L 163.392602 275.229957 
L 152.197618 275.229957 
L 141.002633 275.229957 
L 129.807649 275.229957 
L 118.612665 275.229957 
L 107.41768 269.837617 
L 96.222696 253.660596 
L 85.027712 248.268255 
L 73.832727 205.129532 
z
" clip-path="url(#p6de7e426c7)" style="fill: #2ca02c"/>
   </g>
   <g id="FillBetweenPolyCollection_4">
    <path d="M 73.832727 194.344851 
L 73.832727 205.129532 
L 85.027712 248.268255 
L 96.222696 253.660596 
L 107.41768 269.837617 
L 118.612665 275.229957 
L 129.807649 275.229957 
L 141.002633 275.229957 
L 152.197618 275.229957 
L 163.392602 275.229957 
L 174.587586 275.229957 
L 185.782571 275.229957 
L 196.977555 275.229957 
L 208.172539 275.229957 
L 219.367524 286.014638 
L 230.562508 286.014638 
L 241.757492 286.014638 
L 252.952476 286.014638 
L 264.147461 280.622298 
L 275.342445 296.799319 
L 286.537429 291.406979 
L 297.732414 296.799319 
L 308.927398 291.406979 
L 320.122382 296.799319 
L 331.317367 302.19166 
L 342.512351 296.799319 
L 353.707335 291.406979 
L 364.90232 296.799319 
L 376.097304 291.406979 
L 387.292288 296.799319 
L 398.487273 296.799319 
L 398.487273 296.799319 
L 398.487273 296.799319 
L 387.292288 296.799319 
L 376.097304 291.406979 
L 364.90232 296.799319 
L 353.707335 291.406979 
L 342.512351 296.799319 
L 331.317367 302.19166 
L 320.122382 296.799319 
L 308.927398 291.406979 
L 297.732414 296.799319 
L 286.537429 291.406979 
L 275.342445 296.799319 
L 264.147461 269.837617 
L 252.952476 275.229957 
L 241.757492 275.229957 
L 230.562508 275.229957 
L 219.367524 275.229957 
L 208.172539 264.445277 
L 196.977555 264.445277 
L 185.782571 264.445277 
L 174.587586 264.445277 
L 163.392602 264.445277 
L 152.197618 264.445277 
L 141.002633 264.445277 
L 129.807649 264.445277 
L 118.612665 264.445277 
L 107.41768 259.052936 
L 96.222696 242.875915 
L 85.027712 232.091234 
L 73.832727 194.344851 
z
" clip-path="url(#p6de7e426c7)" style="fill: #d62728"/>
   </g>
   <g id="FillBetweenPolyCollection_5">
    <path d="M 73.832727 188.952511 
L 73.832727 194.344851 
L 85.027712 232.091234 
L 96.222696 242.875915 
L 107.41768 259.052936 
L 118.612665 264.445277 
L 129.807649 264.445277 
L 141.002633 264.445277 
L 152.197618 264.445277 
L 163.392602 264.445277 
L 174.587586 264.445277 
L 185.782571 264.445277 
L 196.977555 264.445277 
L 208.172539 264.445277 
L 219.367524 275.229957 
L 230.562508 275.229957 
L 241.757492 275.229957 
L 252.952476 275.229957 
L 264.147461 269.837617 
L 275.342445 296.799319 
L 286.537429 291.406979 
L 297.732414 296.799319 
L 308.927398 291.406979 
L 320.122382 296.799319 
L 331.317367 302.19166 
L 342.512351 296.799319 
L 353.707335 291.406979 
L 364.90232 296.799319 
L 376.097304 291.406979 
L 387.292288 296.799319 
L 398.487273 296.799319 
L 398.487273 296.799319 
L 398.487273 296.799319 
L 387.292288 296.799319 
L 376.097304 291.406979 
L 364.90232 296.799319 
L 353.707335 291.406979 
L 342.512351 296.799319 
L 331.317367 302.19166 
L 320.122382 296.799319 
L 308.927398 291.406979 
L 297.732414 296.799319 
L 286.537429 291.406979 
L 275.342445 296.799319 
L 264.147461 269.837617 
L 252.952476 264.445277 
L 241.757492 264.445277 
L 230.562508 264.445277 
L 219.367524 264.445277 
L 208.172539 253.660596 
L 196.977555 253.660596 
L 185.782571 253.660596 
L 174.587586 253.660596 
L 163.392602 253.660596 
L 152.197618 248.268255 
L 141.002633 253.660596 
L 129.807649 253.660596 
L 118.612665 253.660596 
L 107.41768 253.660596 
L 96.222696 232.091234 
L 85.027712 210.521872 
L 73.832727 188.952511 
z
" clip-path="url(#p6de7e426c7)" style="fill: #9467bd"/>
   </g>
   <g id="FillBetweenPolyCollection_6">
    <path d="M 73.832727 178.16783 
L 73.832727 188.952511 
L 85.027712 210.521872 
L 96.222696 232.091234 
L 107.41768 253.660596 
L 118.612665 253.660596 
L 129.807649 253.660596 
L 141.002633 253.660596 
L 152.197618 248.268255 
L 163.392602 253.660596 
L 174.587586 253.660596 
L 185.782571 253.660596 
L 196.977555 253.660596 
L 208.172539 253.660596 
L 219.367524 264.445277 
L 230.562508 264.445277 
L 241.757492 264.445277 
L 252.952476 264.445277 
L 264.147461 269.837617 
L 275.342445 296.799319 
L 286.537429 291.406979 
L 297.732414 296.799319 
L 308.927398 291.406979 
L 320.122382 296.799319 
L 331.317367 302.19166 
L 342.512351 296.799319 
L 353.707335 291.406979 
L 364.90232 296.799319 
L 376.097304 291.406979 
L 387.292288 296.799319 
L 398.487273 296.799319 
L 398.487273 280.622298 
L 398.487273 280.622298 
L 387.292288 286.014638 
L 376.097304 275.229957 
L 364.90232 286.014638 
L 353.707335 275.229957 
L 342.512351 286.014638 
L 331.317367 291.406979 
L 320.122382 280.622298 
L 308.927398 280.622298 
L 297.732414 286.014638 
L 286.537429 275.229957 
L 275.342445 286.014638 
L 264.147461 253.660596 
L 252.952476 253.660596 
L 241.757492 253.660596 
L 230.562508 253.660596 
L 219.367524 253.660596 
L 208.172539 242.875915 
L 196.977555 242.875915 
L 185.782571 242.875915 
L 174.587586 242.875915 
L 163.392602 242.875915 
L 152.197618 237.483574 
L 141.002633 242.875915 
L 129.807649 242.875915 
L 118.612665 242.875915 
L 107.41768 248.268255 
L 96.222696 215.914213 
L 85.027712 205.129532 
L 73.832727 178.16783 
z
" clip-path="url(#p6de7e426c7)" style="fill: #8c564b"/>
   </g>
   <g id="FillBetweenPolyCollection_7">
    <path d="M 73.832727 156.598468 
L 73.832727 178.16783 
L 85.027712 205.129532 
L 96.222696 215.914213 
L 107.41768 248.268255 
L 118.612665 242.875915 
L 129.807649 242.875915 
L 141.002633 242.875915 
L 152.197618 237.483574 
L 163.392602 242.875915 
L 174.587586 242.875915 
L 185.782571 242.875915 
L 196.977555 242.875915 
L 208.172539 242.875915 
L 219.367524 253.660596 
L 230.562508 253.660596 
L 241.757492 253.660596 
L 252.952476 253.660596 
L 264.147461 253.660596 
L 275.342445 286.014638 
L 286.537429 275.229957 
L 297.732414 286.014638 
L 308.927398 280.622298 
L 320.122382 280.622298 
L 331.317367 291.406979 
L 342.512351 286.014638 
L 353.707335 275.229957 
L 364.90232 286.014638 
L 376.097304 275.229957 
L 387.292288 286.014638 
L 398.487273 280.622298 
L 398.487273 280.622298 
L 398.487273 280.622298 
L 387.292288 286.014638 
L 376.097304 275.229957 
L 364.90232 286.014638 
L 353.707335 275.229957 
L 342.512351 275.229957 
L 331.317367 286.014638 
L 320.122382 264.445277 
L 308.927398 269.837617 
L 297.732414 269.837617 
L 286.537429 264.445277 
L 275.342445 269.837617 
L 264.147461 237.483574 
L 252.952476 242.875915 
L 241.757492 242.875915 
L 230.562508 242.875915 
L 219.367524 242.875915 
L 208.172539 232.091234 
L 196.977555 232.091234 
L 185.782571 232.091234 
L 174.587586 232.091234 
L 163.392602 232.091234 
L 152.197618 226.698894 
L 141.002633 232.091234 
L 129.807649 232.091234 
L 118.612665 232.091234 
L 107.41768 237.483574 
L 96.222696 210.521872 
L 85.027712 194.344851 
L 73.832727 156.598468 
z
" clip-path="url(#p6de7e426c7)" style="fill: #e377c2"/>
   </g>
   <g id="FillBetweenPolyCollection_8">
    <path d="M 73.832727 140.421447 
L 73.832727 156.598468 
L 85.027712 194.344851 
L 96.222696 210.521872 
L 107.41768 237.483574 
L 118.612665 232.091234 
L 129.807649 232.091234 
L 141.002633 232.091234 
L 152.197618 226.698894 
L 163.392602 232.091234 
L 174.587586 232.091234 
L 185.782571 232.091234 
L 196.977555 232.091234 
L 208.172539 232.091234 
L 219.367524 242.875915 
L 230.562508 242.875915 
L 241.757492 242.875915 
L 252.952476 242.875915 
L 264.147461 237.483574 
L 275.342445 269.837617 
L 286.537429 264.445277 
L 297.732414 269.837617 
L 308.927398 269.837617 
L 320.122382 264.445277 
L 331.317367 286.014638 
L 342.512351 275.229957 
L 353.707335 275.229957 
L 364.90232 286.014638 
L 376.097304 275.229957 
L 387.292288 286.014638 
L 398.487273 280.622298 
L 398.487273 280.622298 
L 398.487273 280.622298 
L 387.292288 286.014638 
L 376.097304 275.229957 
L 364.90232 275.229957 
L 353.707335 264.445277 
L 342.512351 264.445277 
L 331.317367 275.229957 
L 320.122382 253.660596 
L 308.927398 259.052936 
L 297.732414 259.052936 
L 286.537429 253.660596 
L 275.342445 259.052936 
L 264.147461 226.698894 
L 252.952476 232.091234 
L 241.757492 232.091234 
L 230.562508 232.091234 
L 219.367524 232.091234 
L 208.172539 221.306553 
L 196.977555 221.306553 
L 185.782571 221.306553 
L 174.587586 221.306553 
L 163.392602 221.306553 
L 152.197618 215.914213 
L 141.002633 221.306553 
L 129.807649 221.306553 
L 118.612665 221.306553 
L 107.41768 226.698894 
L 96.222696 194.344851 
L 85.027712 183.56017 
L 73.832727 140.421447 
z
" clip-path="url(#p6de7e426c7)" style="fill: #7f7f7f"/>
   </g>
   <g id="FillBetweenPolyCollection_9">
    <path d="M 73.832727 113.459745 
L 73.832727 140.421447 
L 85.027712 183.56017 
L 96.222696 194.344851 
L 107.41768 226.698894 
L 118.612665 221.306553 
L 129.807649 221.306553 
L 141.002633 221.306553 
L 152.197618 215.914213 
L 163.392602 221.306553 
L 174.587586 221.306553 
L 185.782571 221.306553 
L 196.977555 221.306553 
L 208.172539 221.306553 
L 219.367524 232.091234 
L 230.562508 232.091234 
L 241.757492 232.091234 
L 252.952476 232.091234 
L 264.147461 226.698894 
L 275.342445 259.052936 
L 286.537429 253.660596 
L 297.732414 259.052936 
L 308.927398 259.052936 
L 320.122382 253.660596 
L 331.317367 275.229957 
L 342.512351 264.445277 
L 353.707335 264.445277 
L 364.90232 275.229957 
L 376.097304 275.229957 
L 387.292288 286.014638 
L 398.487273 280.622298 
L 398.487273 280.622298 
L 398.487273 280.622298 
L 387.292288 286.014638 
L 376.097304 275.229957 
L 364.90232 275.229957 
L 353.707335 248.268255 
L 342.512351 253.660596 
L 331.317367 259.052936 
L 320.122382 237.483574 
L 308.927398 248.268255 
L 297.732414 242.875915 
L 286.537429 242.875915 
L 275.342445 242.875915 
L 264.147461 210.521872 
L 252.952476 221.306553 
L 241.757492 221.306553 
L 230.562508 221.306553 
L 219.367524 221.306553 
L 208.172539 210.521872 
L 196.977555 210.521872 
L 185.782571 210.521872 
L 174.587586 210.521872 
L 163.392602 210.521872 
L 152.197618 199.737191 
L 141.002633 210.521872 
L 129.807649 199.737191 
L 118.612665 199.737191 
L 107.41768 210.521872 
L 96.222696 172.775489 
L 85.027712 161.990809 
L 73.832727 113.459745 
z
" clip-path="url(#p6de7e426c7)" style="fill: #bcbd22"/>
   </g>
   <g id="FillBetweenPolyCollection_10">
    <path d="M 73.832727 108.067404 
L 73.832727 113.459745 
L 85.027712 161.990809 
L 96.222696 172.775489 
L 107.41768 210.521872 
L 118.612665 199.737191 
L 129.807649 199.737191 
L 141.002633 210.521872 
L 152.197618 199.737191 
L 163.392602 210.521872 
L 174.587586 210.521872 
L 185.782571 210.521872 
L 196.977555 210.521872 
L 208.172539 210.521872 
L 219.367524 221.306553 
L 230.562508 221.306553 
L 241.757492 221.306553 
L 252.952476 221.306553 
L 264.147461 210.521872 
L 275.342445 242.875915 
L 286.537429 242.875915 
L 297.732414 242.875915 
L 308.927398 248.268255 
L 320.122382 237.483574 
L 331.317367 259.052936 
L 342.512351 253.660596 
L 353.707335 248.268255 
L 364.90232 275.229957 
L 376.097304 275.229957 
L 387.292288 286.014638 
L 398.487273 280.622298 
L 398.487273 280.622298 
L 398.487273 280.622298 
L 387.292288 286.014638 
L 376.097304 275.229957 
L 364.90232 275.229957 
L 353.707335 237.483574 
L 342.512351 242.875915 
L 331.317367 248.268255 
L 320.122382 226.698894 
L 308.927398 237.483574 
L 297.732414 232.091234 
L 286.537429 232.091234 
L 275.342445 232.091234 
L 264.147461 199.737191 
L 252.952476 210.521872 
L 241.757492 210.521872 
L 230.562508 210.521872 
L 219.367524 210.521872 
L 208.172539 199.737191 
L 196.977555 199.737191 
L 185.782571 199.737191 
L 174.587586 199.737191 
L 163.392602 199.737191 
L 152.197618 188.952511 
L 141.002633 199.737191 
L 129.807649 188.952511 
L 118.612665 188.952511 
L 107.41768 199.737191 
L 96.222696 161.990809 
L 85.027712 151.206128 
L 73.832727 108.067404 
z
" clip-path="url(#p6de7e426c7)" style="fill: #17becf"/>
   </g>
   <g id="FillBetweenPolyCollection_11">
    <path d="M 73.832727 97.282723 
L 73.832727 108.067404 
L 85.027712 151.206128 
L 96.222696 161.990809 
L 107.41768 199.737191 
L 118.612665 188.952511 
L 129.807649 188.952511 
L 141.002633 199.737191 
L 152.197618 188.952511 
L 163.392602 199.737191 
L 174.587586 199.737191 
L 185.782571 199.737191 
L 196.977555 199.737191 
L 208.172539 199.737191 
L 219.367524 210.521872 
L 230.562508 210.521872 
L 241.757492 210.521872 
L 252.952476 210.521872 
L 264.147461 199.737191 
L 275.342445 232.091234 
L 286.537429 232.091234 
L 297.732414 232.091234 
L 308.927398 237.483574 
L 320.122382 226.698894 
L 331.317367 248.268255 
L 342.512351 242.875915 
L 353.707335 237.483574 
L 364.90232 275.229957 
L 376.097304 275.229957 
L 387.292288 286.014638 
L 398.487273 280.622298 
L 398.487273 280.622298 
L 398.487273 280.622298 
L 387.292288 286.014638 
L 376.097304 275.229957 
L 364.90232 264.445277 
L 353.707335 226.698894 
L 342.512351 232.091234 
L 331.317367 237.483574 
L 320.122382 215.914213 
L 308.927398 226.698894 
L 297.732414 221.306553 
L 286.537429 221.306553 
L 275.342445 221.306553 
L 264.147461 188.952511 
L 252.952476 199.737191 
L 241.757492 199.737191 
L 230.562508 199.737191 
L 219.367524 199.737191 
L 208.172539 188.952511 
L 196.977555 188.952511 
L 185.782571 188.952511 
L 174.587586 188.952511 
L 163.392602 188.952511 
L 152.197618 178.16783 
L 141.002633 188.952511 
L 129.807649 178.16783 
L 118.612665 183.56017 
L 107.41768 188.952511 
L 96.222696 151.206128 
L 85.027712 135.029106 
L 73.832727 97.282723 
z
" clip-path="url(#p6de7e426c7)" style="fill: #1f77b4"/>
   </g>
   <g id="FillBetweenPolyCollection_12">
    <path d="M 73.832727 91.890383 
L 73.832727 97.282723 
L 85.027712 135.029106 
L 96.222696 151.206128 
L 107.41768 188.952511 
L 118.612665 183.56017 
L 129.807649 178.16783 
L 141.002633 188.952511 
L 152.197618 178.16783 
L 163.392602 188.952511 
L 174.587586 188.952511 
L 185.782571 188.952511 
L 196.977555 188.952511 
L 208.172539 188.952511 
L 219.367524 199.737191 
L 230.562508 199.737191 
L 241.757492 199.737191 
L 252.952476 199.737191 
L 264.147461 188.952511 
L 275.342445 221.306553 
L 286.537429 221.306553 
L 297.732414 221.306553 
L 308.927398 226.698894 
L 320.122382 215.914213 
L 331.317367 237.483574 
L 342.512351 232.091234 
L 353.707335 226.698894 
L 364.90232 264.445277 
L 376.097304 275.229957 
L 387.292288 286.014638 
L 398.487273 280.622298 
L 398.487273 280.622298 
L 398.487273 280.622298 
L 387.292288 286.014638 
L 376.097304 275.229957 
L 364.90232 264.445277 
L 353.707335 226.698894 
L 342.512351 232.091234 
L 331.317367 237.483574 
L 320.122382 215.914213 
L 308.927398 226.698894 
L 297.732414 221.306553 
L 286.537429 221.306553 
L 275.342445 221.306553 
L 264.147461 188.952511 
L 252.952476 188.952511 
L 241.757492 188.952511 
L 230.562508 188.952511 
L 219.367524 188.952511 
L 208.172539 178.16783 
L 196.977555 178.16783 
L 185.782571 178.16783 
L 174.587586 178.16783 
L 163.392602 178.16783 
L 152.197618 167.383149 
L 141.002633 178.16783 
L 129.807649 167.383149 
L 118.612665 172.775489 
L 107.41768 172.775489 
L 96.222696 145.813787 
L 85.027712 118.852085 
L 73.832727 91.890383 
z
" clip-path="url(#p6de7e426c7)" style="fill: #ff7f0e"/>
   </g>
   <g id="FillBetweenPolyCollection_13">
    <path d="M 73.832727 91.890383 
L 73.832727 91.890383 
L 85.027712 118.852085 
L 96.222696 145.813787 
L 107.41768 172.775489 
L 118.612665 172.775489 
L 129.807649 167.383149 
L 141.002633 178.16783 
L 152.197618 167.383149 
L 163.392602 178.16783 
L 174.587586 178.16783 
L 185.782571 178.16783 
L 196.977555 178.16783 
L 208.172539 178.16783 
L 219.367524 188.952511 
L 230.562508 188.952511 
L 241.757492 188.952511 
L 252.952476 188.952511 
L 264.147461 188.952511 
L 275.342445 221.306553 
L 286.537429 221.306553 
L 297.732414 221.306553 
L 308.927398 226.698894 
L 320.122382 215.914213 
L 331.317367 237.483574 
L 342.512351 232.091234 
L 353.707335 226.698894 
L 364.90232 264.445277 
L 376.097304 275.229957 
L 387.292288 286.014638 
L 398.487273 280.622298 
L 398.487273 269.837617 
L 398.487273 269.837617 
L 387.292288 275.229957 
L 376.097304 264.445277 
L 364.90232 253.660596 
L 353.707335 215.914213 
L 342.512351 221.306553 
L 331.317367 226.698894 
L 320.122382 205.129532 
L 308.927398 215.914213 
L 297.732414 210.521872 
L 286.537429 210.521872 
L 275.342445 205.129532 
L 264.147461 178.16783 
L 252.952476 178.16783 
L 241.757492 178.16783 
L 230.562508 178.16783 
L 219.367524 178.16783 
L 208.172539 167.383149 
L 196.977555 167.383149 
L 185.782571 167.383149 
L 174.587586 167.383149 
L 163.392602 167.383149 
L 152.197618 156.598468 
L 141.002633 167.383149 
L 129.807649 156.598468 
L 118.612665 161.990809 
L 107.41768 167.383149 
L 96.222696 129.636766 
L 85.027712 113.459745 
L 73.832727 91.890383 
z
" clip-path="url(#p6de7e426c7)" style="fill: #2ca02c"/>
   </g>
   <g id="FillBetweenPolyCollection_14">
    <path d="M 73.832727 91.890383 
L 73.832727 91.890383 
L 85.027712 113.459745 
L 96.222696 129.636766 
L 107.41768 167.383149 
L 118.612665 161.990809 
L 129.807649 156.598468 
L 141.002633 167.383149 
L 152.197618 156.598468 
L 163.392602 167.383149 
L 174.587586 167.383149 
L 185.782571 167.383149 
L 196.977555 167.383149 
L 208.172539 167.383149 
L 219.367524 178.16783 
L 230.562508 178.16783 
L 241.757492 178.16783 
L 252.952476 178.16783 
L 264.147461 178.16783 
L 275.342445 205.129532 
L 286.537429 210.521872 
L 297.732414 210.521872 
L 308.927398 215.914213 
L 320.122382 205.129532 
L 331.317367 226.698894 
L 342.512351 221.306553 
L 353.707335 215.914213 
L 364.90232 253.660596 
L 376.097304 264.445277 
L 387.292288 275.229957 
L 398.487273 269.837617 
L 398.487273 269.837617 
L 398.487273 269.837617 
L 387.292288 275.229957 
L 376.097304 264.445277 
L 364.90232 253.660596 
L 353.707335 215.914213 
L 342.512351 210.521872 
L 331.317367 210.521872 
L 320.122382 194.344851 
L 308.927398 199.737191 
L 297.732414 199.737191 
L 286.537429 194.344851 
L 275.342445 194.344851 
L 264.147461 161.990809 
L 252.952476 167.383149 
L 241.757492 167.383149 
L 230.562508 167.383149 
L 219.367524 167.383149 
L 208.172539 156.598468 
L 196.977555 156.598468 
L 185.782571 156.598468 
L 174.587586 156.598468 
L 163.392602 156.598468 
L 152.197618 140.421447 
L 141.002633 156.598468 
L 129.807649 145.813787 
L 118.612665 151.206128 
L 107.41768 151.206128 
L 96.222696 108.067404 
L 85.027712 97.282723 
L 73.832727 91.890383 
z
" clip-path="url(#p6de7e426c7)" style="fill: #d62728"/>
   </g>
   <g id="FillBetweenPolyCollection_15">
    <path d="M 73.832727 91.890383 
L 73.832727 91.890383 
L 85.027712 97.282723 
L 96.222696 108.067404 
L 107.41768 151.206128 
L 118.612665 151.206128 
L 129.807649 145.813787 
L 141.002633 156.598468 
L 152.197618 140.421447 
L 163.392602 156.598468 
L 174.587586 156.598468 
L 185.782571 156.598468 
L 196.977555 156.598468 
L 208.172539 156.598468 
L 219.367524 167.383149 
L 230.562508 167.383149 
L 241.757492 167.383149 
L 252.952476 167.383149 
L 264.147461 161.990809 
L 275.342445 194.344851 
L 286.537429 194.344851 
L 297.732414 199.737191 
L 308.927398 199.737191 
L 320.122382 194.344851 
L 331.317367 210.521872 
L 342.512351 210.521872 
L 353.707335 215.914213 
L 364.90232 253.660596 
L 376.097304 264.445277 
L 387.292288 275.229957 
L 398.487273 269.837617 
L 398.487273 269.837617 
L 398.487273 269.837617 
L 387.292288 275.229957 
L 376.097304 264.445277 
L 364.90232 242.875915 
L 353.707335 205.129532 
L 342.512351 199.737191 
L 331.317367 199.737191 
L 320.122382 183.56017 
L 308.927398 188.952511 
L 297.732414 188.952511 
L 286.537429 183.56017 
L 275.342445 183.56017 
L 264.147461 151.206128 
L 252.952476 156.598468 
L 241.757492 156.598468 
L 230.562508 156.598468 
L 219.367524 156.598468 
L 208.172539 145.813787 
L 196.977555 145.813787 
L 185.782571 145.813787 
L 174.587586 145.813787 
L 163.392602 145.813787 
L 152.197618 129.636766 
L 141.002633 145.813787 
L 129.807649 135.029106 
L 118.612665 140.421447 
L 107.41768 140.421447 
L 96.222696 102.675064 
L 85.027712 97.282723 
L 73.832727 91.890383 
z
" clip-path="url(#p6de7e426c7)" style="fill: #9467bd"/>
   </g>
   <g id="FillBetweenPolyCollection_16">
    <path d="M 73.832727 91.890383 
L 73.832727 91.890383 
L 85.027712 97.282723 
L 96.222696 102.675064 
L 107.41768 140.421447 
L 118.612665 140.421447 
L 129.807649 135.029106 
L 141.002633 145.813787 
L 152.197618 129.636766 
L 163.392602 145.813787 
L 174.587586 145.813787 
L 185.782571 145.813787 
L 196.977555 145.813787 
L 208.172539 145.813787 
L 219.367524 156.598468 
L 230.562508 156.598468 
L 241.757492 156.598468 
L 252.952476 156.598468 
L 264.147461 151.206128 
L 275.342445 183.56017 
L 286.537429 183.56017 
L 297.732414 188.952511 
L 308.927398 188.952511 
L 320.122382 183.56017 
L 331.317367 199.737191 
L 342.512351 199.737191 
L 353.707335 205.129532 
L 364.90232 242.875915 
L 376.097304 264.445277 
L 387.292288 275.229957 
L 398.487273 269.837617 
L 398.487273 269.837617 
L 398.487273 269.837617 
L 387.292288 275.229957 
L 376.097304 264.445277 
L 364.90232 242.875915 
L 353.707335 205.129532 
L 342.512351 199.737191 
L 331.317367 199.737191 
L 320.122382 183.56017 
L 308.927398 188.952511 
L 297.732414 188.952511 
L 286.537429 172.775489 
L 275.342445 172.775489 
L 264.147461 140.421447 
L 252.952476 145.813787 
L 241.757492 145.813787 
L 230.562508 145.813787 
L 219.367524 145.813787 
L 208.172539 135.029106 
L 196.977555 135.029106 
L 185.782571 135.029106 
L 174.587586 135.029106 
L 163.392602 135.029106 
L 152.197618 118.852085 
L 141.002633 135.029106 
L 129.807649 124.244426 
L 118.612665 129.636766 
L 107.41768 124.244426 
L 96.222696 97.282723 
L 85.027712 97.282723 
L 73.832727 91.890383 
z
" clip-path="url(#p6de7e426c7)" style="fill: #8c564b"/>
   </g>
   <g id="FillBetweenPolyCollection_17">
    <path d="M 73.832727 91.890383 
L 73.832727 91.890383 
L 85.027712 97.282723 
L 96.222696 97.282723 
L 107.41768 124.244426 
L 118.612665 129.636766 
L 129.807649 124.244426 
L 141.002633 135.029106 
L 152.197618 118.852085 
L 163.392602 135.029106 
L 174.587586 135.029106 
L 185.782571 135.029106 
L 196.977555 135.029106 
L 208.172539 135.029106 
L 219.367524 145.813787 
L 230.562508 145.813787 
L 241.757492 145.813787 
L 252.952476 145.813787 
L 264.147461 140.421447 
L 275.342445 172.775489 
L 286.537429 172.775489 
L 297.732414 188.952511 
L 308.927398 188.952511 
L 320.122382 183.56017 
L 331.317367 199.737191 
L 342.512351 199.737191 
L 353.707335 205.129532 
L 364.90232 242.875915 
L 376.097304 264.445277 
L 387.292288 275.229957 
L 398.487273 269.837617 
L 398.487273 259.052936 
L 398.487273 259.052936 
L 387.292288 269.837617 
L 376.097304 248.268255 
L 364.90232 226.698894 
L 353.707335 194.344851 
L 342.512351 183.56017 
L 331.317367 188.952511 
L 320.122382 167.383149 
L 308.927398 178.16783 
L 297.732414 172.775489 
L 286.537429 161.990809 
L 275.342445 156.598468 
L 264.147461 124.244426 
L 252.952476 135.029106 
L 241.757492 135.029106 
L 230.562508 135.029106 
L 219.367524 135.029106 
L 208.172539 124.244426 
L 196.977555 124.244426 
L 185.782571 124.244426 
L 174.587586 124.244426 
L 163.392602 129.636766 
L 152.197618 108.067404 
L 141.002633 124.244426 
L 129.807649 113.459745 
L 118.612665 113.459745 
L 107.41768 113.459745 
L 96.222696 91.890383 
L 85.027712 97.282723 
L 73.832727 91.890383 
z
" clip-path="url(#p6de7e426c7)" style="fill: #e377c2"/>
   </g>
   <g id="FillBetweenPolyCollection_18">
    <path d="M 73.832727 91.890383 
L 73.832727 91.890383 
L 85.027712 97.282723 
L 96.222696 91.890383 
L 107.41768 113.459745 
L 118.612665 113.459745 
L 129.807649 113.459745 
L 141.002633 124.244426 
L 152.197618 108.067404 
L 163.392602 129.636766 
L 174.587586 124.244426 
L 185.782571 124.244426 
L 196.977555 124.244426 
L 208.172539 124.244426 
L 219.367524 135.029106 
L 230.562508 135.029106 
L 241.757492 135.029106 
L 252.952476 135.029106 
L 264.147461 124.244426 
L 275.342445 156.598468 
L 286.537429 161.990809 
L 297.732414 172.775489 
L 308.927398 178.16783 
L 320.122382 167.383149 
L 331.317367 188.952511 
L 342.512351 183.56017 
L 353.707335 194.344851 
L 364.90232 226.698894 
L 376.097304 248.268255 
L 387.292288 269.837617 
L 398.487273 259.052936 
L 398.487273 259.052936 
L 398.487273 259.052936 
L 387.292288 269.837617 
L 376.097304 248.268255 
L 364.90232 226.698894 
L 353.707335 194.344851 
L 342.512351 183.56017 
L 331.317367 188.952511 
L 320.122382 167.383149 
L 308.927398 178.16783 
L 297.732414 172.775489 
L 286.537429 161.990809 
L 275.342445 140.421447 
L 264.147461 113.459745 
L 252.952476 124.244426 
L 241.757492 124.244426 
L 230.562508 124.244426 
L 219.367524 124.244426 
L 208.172539 113.459745 
L 196.977555 113.459745 
L 185.782571 113.459745 
L 174.587586 113.459745 
L 163.392602 118.852085 
L 152.197618 91.890383 
L 141.002633 113.459745 
L 129.807649 102.675064 
L 118.612665 102.675064 
L 107.41768 97.282723 
L 96.222696 86.498043 
L 85.027712 97.282723 
L 73.832727 91.890383 
z
" clip-path="url(#p6de7e426c7)" style="fill: #7f7f7f"/>
   </g>
   <g id="FillBetweenPolyCollection_19">
    <path d="M 73.832727 91.890383 
L 73.832727 91.890383 
L 85.027712 97.282723 
L 96.222696 86.498043 
L 107.41768 97.282723 
L 118.612665 102.675064 
L 129.807649 102.675064 
L 141.002633 113.459745 
L 152.197618 91.890383 
L 163.392602 118.852085 
L 174.587586 113.459745 
L 185.782571 113.459745 
L 196.977555 113.459745 
L 208.172539 113.459745 
L 219.367524 124.244426 
L 230.562508 124.244426 
L 241.757492 124.244426 
L 252.952476 124.244426 
L 264.147461 113.459745 
L 275.342445 140.421447 
L 286.537429 161.990809 
L 297.732414 172.775489 
L 308.927398 178.16783 
L 320.122382 167.383149 
L 331.317367 188.952511 
L 342.512351 183.56017 
L 353.707335 194.344851 
L 364.90232 226.698894 
L 376.097304 248.268255 
L 387.292288 269.837617 
L 398.487273 259.052936 
L 398.487273 259.052936 
L 398.487273 259.052936 
L 387.292288 269.837617 
L 376.097304 248.268255 
L 364.90232 226.698894 
L 353.707335 194.344851 
L 342.512351 183.56017 
L 331.317367 188.952511 
L 320.122382 167.383149 
L 308.927398 178.16783 
L 297.732414 172.775489 
L 286.537429 161.990809 
L 275.342445 140.421447 
L 264.147461 113.459745 
L 252.952476 124.244426 
L 241.757492 113.459745 
L 230.562508 113.459745 
L 219.367524 113.459745 
L 208.172539 102.675064 
L 196.977555 102.675064 
L 185.782571 102.675064 
L 174.587586 102.675064 
L 163.392602 108.067404 
L 152.197618 81.105702 
L 141.002633 102.675064 
L 129.807649 91.890383 
L 118.612665 86.498043 
L 107.41768 91.890383 
L 96.222696 86.498043 
L 85.027712 97.282723 
L 73.832727 91.890383 
z
" clip-path="url(#p6de7e426c7)" style="fill: #bcbd22"/>
   </g>
   <g id="FillBetweenPolyCollection_20">
    <path d="M 73.832727 91.890383 
L 73.832727 91.890383 
L 85.027712 97.282723 
L 96.222696 86.498043 
L 107.41768 91.890383 
L 118.612665 86.498043 
L 129.807649 91.890383 
L 141.002633 102.675064 
L 152.197618 81.105702 
L 163.392602 108.067404 
L 174.587586 102.675064 
L 185.782571 102.675064 
L 196.977555 102.675064 
L 208.172539 102.675064 
L 219.367524 113.459745 
L 230.562508 113.459745 
L 241.757492 113.459745 
L 252.952476 124.244426 
L 264.147461 113.459745 
L 275.342445 140.421447 
L 286.537429 161.990809 
L 297.732414 172.775489 
L 308.927398 178.16783 
L 320.122382 167.383149 
L 331.317367 188.952511 
L 342.512351 183.56017 
L 353.707335 194.344851 
L 364.90232 226.698894 
L 376.097304 248.268255 
L 387.292288 269.837617 
L 398.487273 259.052936 
L 398.487273 242.875915 
L 398.487273 242.875915 
L 387.292288 248.268255 
L 376.097304 232.091234 
L 364.90232 215.914213 
L 353.707335 178.16783 
L 342.512351 172.775489 
L 331.317367 172.775489 
L 320.122382 156.598468 
L 308.927398 161.990809 
L 297.732414 161.990809 
L 286.537429 156.598468 
L 275.342445 129.636766 
L 264.147461 97.282723 
L 252.952476 113.459745 
L 241.757492 102.675064 
L 230.562508 102.675064 
L 219.367524 102.675064 
L 208.172539 91.890383 
L 196.977555 91.890383 
L 185.782571 91.890383 
L 174.587586 91.890383 
L 163.392602 102.675064 
L 152.197618 70.321021 
L 141.002633 91.890383 
L 129.807649 81.105702 
L 118.612665 75.713362 
L 107.41768 86.498043 
L 96.222696 86.498043 
L 85.027712 97.282723 
L 73.832727 91.890383 
z
" clip-path="url(#p6de7e426c7)" style="fill: #17becf"/>
   </g>
   <g id="FillBetweenPolyCollection_21">
    <path d="M 73.832727 91.890383 
L 73.832727 91.890383 
L 85.027712 97.282723 
L 96.222696 86.498043 
L 107.41768 86.498043 
L 118.612665 75.713362 
L 129.807649 81.105702 
L 141.002633 91.890383 
L 152.197618 70.321021 
L 163.392602 102.675064 
L 174.587586 91.890383 
L 185.782571 91.890383 
L 196.977555 91.890383 
L 208.172539 91.890383 
L 219.367524 102.675064 
L 230.562508 102.675064 
L 241.757492 102.675064 
L 252.952476 113.459745 
L 264.147461 97.282723 
L 275.342445 129.636766 
L 286.537429 156.598468 
L 297.732414 161.990809 
L 308.927398 161.990809 
L 320.122382 156.598468 
L 331.317367 172.775489 
L 342.512351 172.775489 
L 353.707335 178.16783 
L 364.90232 215.914213 
L 376.097304 232.091234 
L 387.292288 248.268255 
L 398.487273 242.875915 
L 398.487273 242.875915 
L 398.487273 242.875915 
L 387.292288 248.268255 
L 376.097304 232.091234 
L 364.90232 215.914213 
L 353.707335 178.16783 
L 342.512351 161.990809 
L 331.317367 161.990809 
L 320.122382 145.813787 
L 308.927398 151.206128 
L 297.732414 151.206128 
L 286.537429 145.813787 
L 275.342445 118.852085 
L 264.147461 86.498043 
L 252.952476 102.675064 
L 241.757492 91.890383 
L 230.562508 91.890383 
L 219.367524 91.890383 
L 208.172539 81.105702 
L 196.977555 81.105702 
L 185.782571 81.105702 
L 174.587586 81.105702 
L 163.392602 86.498043 
L 152.197618 64.928681 
L 141.002633 91.890383 
L 129.807649 81.105702 
L 118.612665 75.713362 
L 107.41768 86.498043 
L 96.222696 86.498043 
L 85.027712 97.282723 
L 73.832727 91.890383 
z
" clip-path="url(#p6de7e426c7)" style="fill: #1f77b4"/>
   </g>
   <g id="FillBetweenPolyCollection_22">
    <path d="M 73.832727 91.890383 
L 73.832727 91.890383 
L 85.027712 97.282723 
L 96.222696 86.498043 
L 107.41768 86.498043 
L 118.612665 75.713362 
L 129.807649 81.105702 
L 141.002633 91.890383 
L 152.197618 64.928681 
L 163.392602 86.498043 
L 174.587586 81.105702 
L 185.782571 81.105702 
L 196.977555 81.105702 
L 208.172539 81.105702 
L 219.367524 91.890383 
L 230.562508 91.890383 
L 241.757492 91.890383 
L 252.952476 102.675064 
L 264.147461 86.498043 
L 275.342445 118.852085 
L 286.537429 145.813787 
L 297.732414 151.206128 
L 308.927398 151.206128 
L 320.122382 145.813787 
L 331.317367 161.990809 
L 342.512351 161.990809 
L 353.707335 178.16783 
L 364.90232 215.914213 
L 376.097304 232.091234 
L 387.292288 248.268255 
L 398.487273 242.875915 
L 398.487273 232.091234 
L 398.487273 232.091234 
L 387.292288 237.483574 
L 376.097304 221.306553 
L 364.90232 205.129532 
L 353.707335 167.383149 
L 342.512351 151.206128 
L 331.317367 151.206128 
L 320.122382 135.029106 
L 308.927398 140.421447 
L 297.732414 140.421447 
L 286.537429 135.029106 
L 275.342445 108.067404 
L 264.147461 75.713362 
L 252.952476 91.890383 
L 241.757492 81.105702 
L 230.562508 81.105702 
L 219.367524 81.105702 
L 208.172539 70.321021 
L 196.977555 70.321021 
L 185.782571 70.321021 
L 174.587586 70.321021 
L 163.392602 75.713362 
L 152.197618 59.53634 
L 141.002633 91.890383 
L 129.807649 81.105702 
L 118.612665 75.713362 
L 107.41768 86.498043 
L 96.222696 86.498043 
L 85.027712 97.282723 
L 73.832727 91.890383 
z
" clip-path="url(#p6de7e426c7)" style="fill: #ff7f0e"/>
   </g>
   <g id="FillBetweenPolyCollection_23">
    <path d="M 73.832727 91.890383 
L 73.832727 91.890383 
L 85.027712 97.282723 
L 96.222696 86.498043 
L 107.41768 86.498043 
L 118.612665 75.713362 
L 129.807649 81.105702 
L 141.002633 91.890383 
L 152.197618 59.53634 
L 163.392602 75.713362 
L 174.587586 70.321021 
L 185.782571 70.321021 
L 196.977555 70.321021 
L 208.172539 70.321021 
L 219.367524 81.105702 
L 230.562508 81.105702 
L 241.757492 81.105702 
L 252.952476 91.890383 
L 264.147461 75.713362 
L 275.342445 108.067404 
L 286.537429 135.029106 
L 297.732414 140.421447 
L 308.927398 140.421447 
L 320.122382 135.029106 
L 331.317367 151.206128 
L 342.512351 151.206128 
L 353.707335 167.383149 
L 364.90232 205.129532 
L 376.097304 221.306553 
L 387.292288 237.483574 
L 398.487273 232.091234 
L 398.487273 232.091234 
L 398.487273 232.091234 
L 387.292288 237.483574 
L 376.097304 221.306553 
L 364.90232 205.129532 
L 353.707335 167.383149 
L 342.512351 151.206128 
L 331.317367 151.206128 
L 320.122382 135.029106 
L 308.927398 129.636766 
L 297.732414 124.244426 
L 286.537429 124.244426 
L 275.342445 102.675064 
L 264.147461 64.928681 
L 252.952476 81.105702 
L 241.757492 70.321021 
L 230.562508 70.321021 
L 219.367524 70.321021 
L 208.172539 59.53634 
L 196.977555 59.53634 
L 185.782571 59.53634 
L 174.587586 59.53634 
L 163.392602 59.53634 
L 152.197618 54.144 
L 141.002633 91.890383 
L 129.807649 81.105702 
L 118.612665 75.713362 
L 107.41768 86.498043 
L 96.222696 86.498043 
L 85.027712 97.282723 
L 73.832727 91.890383 
z
" clip-path="url(#p6de7e426c7)" style="fill: #2ca02c"/>
   </g>
   <g id="FillBetweenPolyCollection_24">
    <path d="M 73.832727 91.890383 
L 73.832727 91.890383 
L 85.027712 97.282723 
L 96.222696 86.498043 
L 107.41768 86.498043 
L 118.612665 75.713362 
L 129.807649 81.105702 
L 141.002633 91.890383 
L 152.197618 54.144 
L 163.392602 59.53634 
L 174.587586 59.53634 
L 185.782571 59.53634 
L 196.977555 59.53634 
L 208.172539 59.53634 
L 219.367524 70.321021 
L 230.562508 70.321021 
L 241.757492 70.321021 
L 252.952476 81.105702 
L 264.147461 64.928681 
L 275.342445 102.675064 
L 286.537429 124.244426 
L 297.732414 124.244426 
L 308.927398 129.636766 
L 320.122382 135.029106 
L 331.317367 151.206128 
L 342.512351 151.206128 
L 353.707335 167.383149 
L 364.90232 205.129532 
L 376.097304 221.306553 
L 387.292288 237.483574 
L 398.487273 232.091234 
L 398.487273 221.306553 
L 398.487273 221.306553 
L 387.292288 226.698894 
L 376.097304 210.521872 
L 364.90232 188.952511 
L 353.707335 156.598468 
L 342.512351 140.421447 
L 331.317367 135.029106 
L 320.122382 124.244426 
L 308.927398 113.459745 
L 297.732414 113.459745 
L 286.537429 108.067404 
L 275.342445 81.105702 
L 264.147461 59.53634 
L 252.952476 81.105702 
L 241.757492 70.321021 
L 230.562508 70.321021 
L 219.367524 70.321021 
L 208.172539 59.53634 
L 196.977555 59.53634 
L 185.782571 59.53634 
L 174.587586 59.53634 
L 163.392602 59.53634 
L 152.197618 54.144 
L 141.002633 91.890383 
L 129.807649 81.105702 
L 118.612665 75.713362 
L 107.41768 86.498043 
L 96.222696 86.498043 
L 85.027712 97.282723 
L 73.832727 91.890383 
z
" clip-path="url(#p6de7e426c7)" style="fill: #d62728"/>
   </g>
   <g id="FillBetweenPolyCollection_25">
    <path d="M 73.832727 91.890383 
L 73.832727 91.890383 
L 85.027712 97.282723 
L 96.222696 86.498043 
L 107.41768 86.498043 
L 118.612665 75.713362 
L 129.807649 81.105702 
L 141.002633 91.890383 
L 152.197618 54.144 
L 163.392602 59.53634 
L 174.587586 59.53634 
L 185.782571 59.53634 
L 196.977555 59.53634 
L 208.172539 59.53634 
L 219.367524 70.321021 
L 230.562508 70.321021 
L 241.757492 70.321021 
L 252.952476 81.105702 
L 264.147461 59.53634 
L 275.342445 81.105702 
L 286.537429 108.067404 
L 297.732414 113.459745 
L 308.927398 113.459745 
L 320.122382 124.244426 
L 331.317367 135.029106 
L 342.512351 140.421447 
L 353.707335 156.598468 
L 364.90232 188.952511 
L 376.097304 210.521872 
L 387.292288 226.698894 
L 398.487273 221.306553 
L 398.487273 210.521872 
L 398.487273 210.521872 
L 387.292288 215.914213 
L 376.097304 199.737191 
L 364.90232 172.775489 
L 353.707335 145.813787 
L 342.512351 129.636766 
L 331.317367 124.244426 
L 320.122382 108.067404 
L 308.927398 102.675064 
L 297.732414 97.282723 
L 286.537429 97.282723 
L 275.342445 75.713362 
L 264.147461 59.53634 
L 252.952476 81.105702 
L 241.757492 70.321021 
L 230.562508 70.321021 
L 219.367524 70.321021 
L 208.172539 59.53634 
L 196.977555 59.53634 
L 185.782571 59.53634 
L 174.587586 59.53634 
L 163.392602 59.53634 
L 152.197618 54.144 
L 141.002633 91.890383 
L 129.807649 81.105702 
L 118.612665 75.713362 
L 107.41768 86.498043 
L 96.222696 86.498043 
L 85.027712 97.282723 
L 73.832727 91.890383 
z
" clip-path="url(#p6de7e426c7)" style="fill: #9467bd"/>
   </g>
   <g id="FillBetweenPolyCollection_26">
    <path d="M 73.832727 91.890383 
L 73.832727 91.890383 
L 85.027712 97.282723 
L 96.222696 86.498043 
L 107.41768 86.498043 
L 118.612665 75.713362 
L 129.807649 81.105702 
L 141.002633 91.890383 
L 152.197618 54.144 
L 163.392602 59.53634 
L 174.587586 59.53634 
L 185.782571 59.53634 
L 196.977555 59.53634 
L 208.172539 59.53634 
L 219.367524 70.321021 
L 230.562508 70.321021 
L 241.757492 70.321021 
L 252.952476 81.105702 
L 264.147461 59.53634 
L 275.342445 75.713362 
L 286.537429 97.282723 
L 297.732414 97.282723 
L 308.927398 102.675064 
L 320.122382 108.067404 
L 331.317367 124.244426 
L 342.512351 129.636766 
L 353.707335 145.813787 
L 364.90232 172.775489 
L 376.097304 199.737191 
L 387.292288 215.914213 
L 398.487273 210.521872 
L 398.487273 194.344851 
L 398.487273 194.344851 
L 387.292288 205.129532 
L 376.097304 183.56017 
L 364.90232 167.383149 
L 353.707335 124.244426 
L 342.512351 118.852085 
L 331.317367 108.067404 
L 320.122382 91.890383 
L 308.927398 91.890383 
L 297.732414 81.105702 
L 286.537429 86.498043 
L 275.342445 75.713362 
L 264.147461 59.53634 
L 252.952476 81.105702 
L 241.757492 70.321021 
L 230.562508 70.321021 
L 219.367524 70.321021 
L 208.172539 59.53634 
L 196.977555 59.53634 
L 185.782571 59.53634 
L 174.587586 59.53634 
L 163.392602 59.53634 
L 152.197618 54.144 
L 141.002633 91.890383 
L 129.807649 81.105702 
L 118.612665 75.713362 
L 107.41768 86.498043 
L 96.222696 86.498043 
L 85.027712 97.282723 
L 73.832727 91.890383 
z
" clip-path="url(#p6de7e426c7)" style="fill: #8c564b"/>
   </g>
   <g id="FillBetweenPolyCollection_27">
    <path d="M 73.832727 91.890383 
L 73.832727 91.890383 
L 85.027712 97.282723 
L 96.222696 86.498043 
L 107.41768 86.498043 
L 118.612665 75.713362 
L 129.807649 81.105702 
L 141.002633 91.890383 
L 152.197618 54.144 
L 163.392602 59.53634 
L 174.587586 59.53634 
L 185.782571 59.53634 
L 196.977555 59.53634 
L 208.172539 59.53634 
L 219.367524 70.321021 
L 230.562508 70.321021 
L 241.757492 70.321021 
L 252.952476 81.105702 
L 264.147461 59.53634 
L 275.342445 75.713362 
L 286.537429 86.498043 
L 297.732414 81.105702 
L 308.927398 91.890383 
L 320.122382 91.890383 
L 331.317367 108.067404 
L 342.512351 118.852085 
L 353.707335 124.244426 
L 364.90232 167.383149 
L 376.097304 183.56017 
L 387.292288 205.129532 
L 398.487273 194.344851 
L 398.487273 183.56017 
L 398.487273 183.56017 
L 387.292288 188.952511 
L 376.097304 172.775489 
L 364.90232 151.206128 
L 353.707335 113.459745 
L 342.512351 108.067404 
L 331.317367 91.890383 
L 320.122382 81.105702 
L 308.927398 86.498043 
L 297.732414 81.105702 
L 286.537429 86.498043 
L 275.342445 75.713362 
L 264.147461 59.53634 
L 252.952476 81.105702 
L 241.757492 70.321021 
L 230.562508 70.321021 
L 219.367524 70.321021 
L 208.172539 59.53634 
L 196.977555 59.53634 
L 185.782571 59.53634 
L 174.587586 59.53634 
L 163.392602 59.53634 
L 152.197618 54.144 
L 141.002633 91.890383 
L 129.807649 81.105702 
L 118.612665 75.713362 
L 107.41768 86.498043 
L 96.222696 86.498043 
L 85.027712 97.282723 
L 73.832727 91.890383 
z
" clip-path="url(#p6de7e426c7)" style="fill: #e377c2"/>
   </g>
   <g id="FillBetweenPolyCollection_28">
    <path d="M 73.832727 91.890383 
L 73.832727 91.890383 
L 85.027712 97.282723 
L 96.222696 86.498043 
L 107.41768 86.498043 
L 118.612665 75.713362 
L 129.807649 81.105702 
L 141.002633 91.890383 
L 152.197618 54.144 
L 163.392602 59.53634 
L 174.587586 59.53634 
L 185.782571 59.53634 
L 196.977555 59.53634 
L 208.172539 59.53634 
L 219.367524 70.321021 
L 230.562508 70.321021 
L 241.757492 70.321021 
L 252.952476 81.105702 
L 264.147461 59.53634 
L 275.342445 75.713362 
L 286.537429 86.498043 
L 297.732414 81.105702 
L 308.927398 86.498043 
L 320.122382 81.105702 
L 331.317367 91.890383 
L 342.512351 108.067404 
L 353.707335 113.459745 
L 364.90232 151.206128 
L 376.097304 172.775489 
L 387.292288 188.952511 
L 398.487273 183.56017 
L 398.487273 167.383149 
L 398.487273 167.383149 
L 387.292288 178.16783 
L 376.097304 151.206128 
L 364.90232 135.029106 
L 353.707335 102.675064 
L 342.512351 91.890383 
L 331.317367 70.321021 
L 320.122382 70.321021 
L 308.927398 86.498043 
L 297.732414 81.105702 
L 286.537429 86.498043 
L 275.342445 75.713362 
L 264.147461 59.53634 
L 252.952476 81.105702 
L 241.757492 70.321021 
L 230.562508 70.321021 
L 219.367524 70.321021 
L 208.172539 59.53634 
L 196.977555 59.53634 
L 185.782571 59.53634 
L 174.587586 59.53634 
L 163.392602 59.53634 
L 152.197618 54.144 
L 141.002633 91.890383 
L 129.807649 81.105702 
L 118.612665 75.713362 
L 107.41768 86.498043 
L 96.222696 86.498043 
L 85.027712 97.282723 
L 73.832727 91.890383 
z
" clip-path="url(#p6de7e426c7)" style="fill: #7f7f7f"/>
   </g>
   <g id="FillBetweenPolyCollection_29">
    <path d="M 73.832727 91.890383 
L 73.832727 91.890383 
L 85.027712 97.282723 
L 96.222696 86.498043 
L 107.41768 86.498043 
L 118.612665 75.713362 
L 129.807649 81.105702 
L 141.002633 91.890383 
L 152.197618 54.144 
L 163.392602 59.53634 
L 174.587586 59.53634 
L 185.782571 59.53634 
L 196.977555 59.53634 
L 208.172539 59.53634 
L 219.367524 70.321021 
L 230.562508 70.321021 
L 241.757492 70.321021 
L 252.952476 81.105702 
L 264.147461 59.53634 
L 275.342445 75.713362 
L 286.537429 86.498043 
L 297.732414 81.105702 
L 308.927398 86.498043 
L 320.122382 70.321021 
L 331.317367 70.321021 
L 342.512351 91.890383 
L 353.707335 102.675064 
L 364.90232 135.029106 
L 376.097304 151.206128 
L 387.292288 178.16783 
L 398.487273 167.383149 
L 398.487273 156.598468 
L 398.487273 156.598468 
L 387.292288 167.383149 
L 376.097304 140.421447 
L 364.90232 124.244426 
L 353.707335 91.890383 
L 342.512351 81.105702 
L 331.317367 64.928681 
L 320.122382 70.321021 
L 308.927398 86.498043 
L 297.732414 81.105702 
L 286.537429 86.498043 
L 275.342445 75.713362 
L 264.147461 59.53634 
L 252.952476 81.105702 
L 241.757492 70.321021 
L 230.562508 70.321021 
L 219.367524 70.321021 
L 208.172539 59.53634 
L 196.977555 59.53634 
L 185.782571 59.53634 
L 174.587586 59.53634 
L 163.392602 59.53634 
L 152.197618 54.144 
L 141.002633 91.890383 
L 129.807649 81.105702 
L 118.612665 75.713362 
L 107.41768 86.498043 
L 96.222696 86.498043 
L 85.027712 97.282723 
L 73.832727 91.890383 
z
" clip-path="url(#p6de7e426c7)" style="fill: #bcbd22"/>
   </g>
   <g id="FillBetweenPolyCollection_30">
    <path d="M 73.832727 91.890383 
L 73.832727 91.890383 
L 85.027712 97.282723 
L 96.222696 86.498043 
L 107.41768 86.498043 
L 118.612665 75.713362 
L 129.807649 81.105702 
L 141.002633 91.890383 
L 152.197618 54.144 
L 163.392602 59.53634 
L 174.587586 59.53634 
L 185.782571 59.53634 
L 196.977555 59.53634 
L 208.172539 59.53634 
L 219.367524 70.321021 
L 230.562508 70.321021 
L 241.757492 70.321021 
L 252.952476 81.105702 
L 264.147461 59.53634 
L 275.342445 75.713362 
L 286.537429 86.498043 
L 297.732414 81.105702 
L 308.927398 86.498043 
L 320.122382 70.321021 
L 331.317367 64.928681 
L 342.512351 81.105702 
L 353.707335 91.890383 
L 364.90232 124.244426 
L 376.097304 140.421447 
L 387.292288 167.383149 
L 398.487273 156.598468 
L 398.487273 140.421447 
L 398.487273 140.421447 
L 387.292288 145.813787 
L 376.097304 124.244426 
L 364.90232 108.067404 
L 353.707335 81.105702 
L 342.512351 75.713362 
L 331.317367 64.928681 
L 320.122382 70.321021 
L 308.927398 86.498043 
L 297.732414 81.105702 
L 286.537429 86.498043 
L 275.342445 75.713362 
L 264.147461 59.53634 
L 252.952476 81.105702 
L 241.757492 70.321021 
L 230.562508 70.321021 
L 219.367524 70.321021 
L 208.172539 59.53634 
L 196.977555 59.53634 
L 185.782571 59.53634 
L 174.587586 59.53634 
L 163.392602 59.53634 
L 152.197618 54.144 
L 141.002633 91.890383 
L 129.807649 81.105702 
L 118.612665 75.713362 
L 107.41768 86.498043 
L 96.222696 86.498043 
L 85.027712 97.282723 
L 73.832727 91.890383 
z
" clip-path="url(#p6de7e426c7)" style="fill: #17becf"/>
   </g>
   <g id="FillBetweenPolyCollection_31">
    <path d="M 73.832727 91.890383 
L 73.832727 91.890383 
L 85.027712 97.282723 
L 96.222696 86.498043 
L 107.41768 86.498043 
L 118.612665 75.713362 
L 129.807649 81.105702 
L 141.002633 91.890383 
L 152.197618 54.144 
L 163.392602 59.53634 
L 174.587586 59.53634 
L 185.782571 59.53634 
L 196.977555 59.53634 
L 208.172539 59.53634 
L 219.367524 70.321021 
L 230.562508 70.321021 
L 241.757492 70.321021 
L 252.952476 81.105702 
L 264.147461 59.53634 
L 275.342445 75.713362 
L 286.537429 86.498043 
L 297.732414 81.105702 
L 308.927398 86.498043 
L 320.122382 70.321021 
L 331.317367 64.928681 
L 342.512351 75.713362 
L 353.707335 81.105702 
L 364.90232 108.067404 
L 376.097304 124.244426 
L 387.292288 145.813787 
L 398.487273 140.421447 
L 398.487273 129.636766 
L 398.487273 129.636766 
L 387.292288 135.029106 
L 376.097304 113.459745 
L 364.90232 97.282723 
L 353.707335 70.321021 
L 342.512351 70.321021 
L 331.317367 64.928681 
L 320.122382 70.321021 
L 308.927398 86.498043 
L 297.732414 81.105702 
L 286.537429 86.498043 
L 275.342445 75.713362 
L 264.147461 59.53634 
L 252.952476 81.105702 
L 241.757492 70.321021 
L 230.562508 70.321021 
L 219.367524 70.321021 
L 208.172539 59.53634 
L 196.977555 59.53634 
L 185.782571 59.53634 
L 174.587586 59.53634 
L 163.392602 59.53634 
L 152.197618 54.144 
L 141.002633 91.890383 
L 129.807649 81.105702 
L 118.612665 75.713362 
L 107.41768 86.498043 
L 96.222696 86.498043 
L 85.027712 97.282723 
L 73.832727 91.890383 
z
" clip-path="url(#p6de7e426c7)" style="fill: #1f77b4"/>
   </g>
   <g id="FillBetweenPolyCollection_32">
    <path d="M 73.832727 91.890383 
L 73.832727 91.890383 
L 85.027712 97.282723 
L 96.222696 86.498043 
L 107.41768 86.498043 
L 118.612665 75.713362 
L 129.807649 81.105702 
L 141.002633 91.890383 
L 152.197618 54.144 
L 163.392602 59.53634 
L 174.587586 59.53634 
L 185.782571 59.53634 
L 196.977555 59.53634 
L 208.172539 59.53634 
L 219.367524 70.321021 
L 230.562508 70.321021 
L 241.757492 70.321021 
L 252.952476 81.105702 
L 264.147461 59.53634 
L 275.342445 75.713362 
L 286.537429 86.498043 
L 297.732414 81.105702 
L 308.927398 86.498043 
L 320.122382 70.321021 
L 331.317367 64.928681 
L 342.512351 70.321021 
L 353.707335 70.321021 
L 364.90232 97.282723 
L 376.097304 113.459745 
L 387.292288 135.029106 
L 398.487273 129.636766 
L 398.487273 118.852085 
L 398.487273 118.852085 
L 387.292288 124.244426 
L 376.097304 102.675064 
L 364.90232 86.498043 
L 353.707335 64.928681 
L 342.512351 64.928681 
L 331.317367 64.928681 
L 320.122382 70.321021 
L 308.927398 86.498043 
L 297.732414 81.105702 
L 286.537429 86.498043 
L 275.342445 75.713362 
L 264.147461 59.53634 
L 252.952476 81.105702 
L 241.757492 70.321021 
L 230.562508 70.321021 
L 219.367524 70.321021 
L 208.172539 59.53634 
L 196.977555 59.53634 
L 185.782571 59.53634 
L 174.587586 59.53634 
L 163.392602 59.53634 
L 152.197618 54.144 
L 141.002633 91.890383 
L 129.807649 81.105702 
L 118.612665 75.713362 
L 107.41768 86.498043 
L 96.222696 86.498043 
L 85.027712 97.282723 
L 73.832727 91.890383 
z
" clip-path="url(#p6de7e426c7)" style="fill: #ff7f0e"/>
   </g>
   <g id="FillBetweenPolyCollection_33">
    <path d="M 73.832727 91.890383 
L 73.832727 91.890383 
L 85.027712 97.282723 
L 96.222696 86.498043 
L 107.41768 86.498043 
L 118.612665 75.713362 
L 129.807649 81.105702 
L 141.002633 91.890383 
L 152.197618 54.144 
L 163.392602 59.53634 
L 174.587586 59.53634 
L 185.782571 59.53634 
L 196.977555 59.53634 
L 208.172539 59.53634 
L 219.367524 70.321021 
L 230.562508 70.321021 
L 241.757492 70.321021 
L 252.952476 81.105702 
L 264.147461 59.53634 
L 275.342445 75.713362 
L 286.537429 86.498043 
L 297.732414 81.105702 
L 308.927398 86.498043 
L 320.122382 70.321021 
L 331.317367 64.928681 
L 342.512351 64.928681 
L 353.707335 64.928681 
L 364.90232 86.498043 
L 376.097304 102.675064 
L 387.292288 124.244426 
L 398.487273 118.852085 
L 398.487273 102.675064 
L 398.487273 102.675064 
L 387.292288 108.067404 
L 376.097304 81.105702 
L 364.90232 75.713362 
L 353.707335 64.928681 
L 342.512351 64.928681 
L 331.317367 64.928681 
L 320.122382 70.321021 
L 308.927398 86.498043 
L 297.732414 81.105702 
L 286.537429 86.498043 
L 275.342445 75.713362 
L 264.147461 59.53634 
L 252.952476 81.105702 
L 241.757492 70.321021 
L 230.562508 70.321021 
L 219.367524 70.321021 
L 208.172539 59.53634 
L 196.977555 59.53634 
L 185.782571 59.53634 
L 174.587586 59.53634 
L 163.392602 59.53634 
L 152.197618 54.144 
L 141.002633 91.890383 
L 129.807649 81.105702 
L 118.612665 75.713362 
L 107.41768 86.498043 
L 96.222696 86.498043 
L 85.027712 97.282723 
L 73.832727 91.890383 
z
" clip-path="url(#p6de7e426c7)" style="fill: #2ca02c"/>
   </g>
   <g id="FillBetweenPolyCollection_34">
    <path d="M 73.832727 91.890383 
L 73.832727 91.890383 
L 85.027712 97.282723 
L 96.222696 86.498043 
L 107.41768 86.498043 
L 118.612665 75.713362 
L 129.807649 81.105702 
L 141.002633 91.890383 
L 152.197618 54.144 
L 163.392602 59.53634 
L 174.587586 59.53634 
L 185.782571 59.53634 
L 196.977555 59.53634 
L 208.172539 59.53634 
L 219.367524 70.321021 
L 230.562508 70.321021 
L 241.757492 70.321021 
L 252.952476 81.105702 
L 264.147461 59.53634 
L 275.342445 75.713362 
L 286.537429 86.498043 
L 297.732414 81.105702 
L 308.927398 86.498043 
L 320.122382 70.321021 
L 331.317367 64.928681 
L 342.512351 64.928681 
L 353.707335 64.928681 
L 364.90232 75.713362 
L 376.097304 81.105702 
L 387.292288 108.067404 
L 398.487273 102.675064 
L 398.487273 91.890383 
L 398.487273 91.890383 
L 387.292288 91.890383 
L 376.097304 75.713362 
L 364.90232 75.713362 
L 353.707335 64.928681 
L 342.512351 64.928681 
L 331.317367 64.928681 
L 320.122382 70.321021 
L 308.927398 86.498043 
L 297.732414 81.105702 
L 286.537429 86.498043 
L 275.342445 75.713362 
L 264.147461 59.53634 
L 252.952476 81.105702 
L 241.757492 70.321021 
L 230.562508 70.321021 
L 219.367524 70.321021 
L 208.172539 59.53634 
L 196.977555 59.53634 
L 185.782571 59.53634 
L 174.587586 59.53634 
L 163.392602 59.53634 
L 152.197618 54.144 
L 141.002633 91.890383 
L 129.807649 81.105702 
L 118.612665 75.713362 
L 107.41768 86.498043 
L 96.222696 86.498043 
L 85.027712 97.282723 
L 73.832727 91.890383 
z
" clip-path="url(#p6de7e426c7)" style="fill: #d62728"/>
   </g>
   <g id="FillBetweenPolyCollection_35">
    <path d="M 73.832727 91.890383 
L 73.832727 91.890383 
L 85.027712 97.282723 
L 96.222696 86.498043 
L 107.41768 86.498043 
L 118.612665 75.713362 
L 129.807649 81.105702 
L 141.002633 91.890383 
L 152.197618 54.144 
L 163.392602 59.53634 
L 174.587586 59.53634 
L 185.782571 59.53634 
L 196.977555 59.53634 
L 208.172539 59.53634 
L 219.367524 70.321021 
L 230.562508 70.321021 
L 241.757492 70.321021 
L 252.952476 81.105702 
L 264.147461 59.53634 
L 275.342445 75.713362 
L 286.537429 86.498043 
L 297.732414 81.105702 
L 308.927398 86.498043 
L 320.122382 70.321021 
L 331.317367 64.928681 
L 342.512351 64.928681 
L 353.707335 64.928681 
L 364.90232 75.713362 
L 376.097304 75.713362 
L 387.292288 91.890383 
L 398.487273 91.890383 
L 398.487273 81.105702 
L 398.487273 81.105702 
L 387.292288 81.105702 
L 376.097304 70.321021 
L 364.90232 75.713362 
L 353.707335 64.928681 
L 342.512351 64.928681 
L 331.317367 64.928681 
L 320.122382 70.321021 
L 308.927398 86.498043 
L 297.732414 81.105702 
L 286.537429 86.498043 
L 275.342445 75.713362 
L 264.147461 59.53634 
L 252.952476 81.105702 
L 241.757492 70.321021 
L 230.562508 70.321021 
L 219.367524 70.321021 
L 208.172539 59.53634 
L 196.977555 59.53634 
L 185.782571 59.53634 
L 174.587586 59.53634 
L 163.392602 59.53634 
L 152.197618 54.144 
L 141.002633 91.890383 
L 129.807649 81.105702 
L 118.612665 75.713362 
L 107.41768 86.498043 
L 96.222696 86.498043 
L 85.027712 97.282723 
L 73.832727 91.890383 
z
" clip-path="url(#p6de7e426c7)" style="fill: #9467bd"/>
   </g>
   <g id="FillBetweenPolyCollection_36">
    <path d="M 73.832727 91.890383 
L 73.832727 91.890383 
L 85.027712 97.282723 
L 96.222696 86.498043 
L 107.41768 86.498043 
L 118.612665 75.713362 
L 129.807649 81.105702 
L 141.002633 91.890383 
L 152.197618 54.144 
L 163.392602 59.53634 
L 174.587586 59.53634 
L 185.782571 59.53634 
L 196.977555 59.53634 
L 208.172539 59.53634 
L 219.367524 70.321021 
L 230.562508 70.321021 
L 241.757492 70.321021 
L 252.952476 81.105702 
L 264.147461 59.53634 
L 275.342445 75.713362 
L 286.537429 86.498043 
L 297.732414 81.105702 
L 308.927398 86.498043 
L 320.122382 70.321021 
L 331.317367 64.928681 
L 342.512351 64.928681 
L 353.707335 64.928681 
L 364.90232 75.713362 
L 376.097304 70.321021 
L 387.292288 81.105702 
L 398.487273 81.105702 
L 398.487273 70.321021 
L 398.487273 70.321021 
L 387.292288 75.713362 
L 376.097304 70.321021 
L 364.90232 75.713362 
L 353.707335 64.928681 
L 342.512351 64.928681 
L 331.317367 64.928681 
L 320.122382 70.321021 
L 308.927398 86.498043 
L 297.732414 81.105702 
L 286.537429 86.498043 
L 275.342445 75.713362 
L 264.147461 59.53634 
L 252.952476 81.105702 
L 241.757492 70.321021 
L 230.562508 70.321021 
L 219.367524 70.321021 
L 208.172539 59.53634 
L 196.977555 59.53634 
L 185.782571 59.53634 
L 174.587586 59.53634 
L 163.392602 59.53634 
L 152.197618 54.144 
L 141.002633 91.890383 
L 129.807649 81.105702 
L 118.612665 75.713362 
L 107.41768 86.498043 
L 96.222696 86.498043 
L 85.027712 97.282723 
L 73.832727 91.890383 
z
" clip-path="url(#p6de7e426c7)" style="fill: #8c564b"/>
   </g>
   <g id="FillBetweenPolyCollection_37">
    <path d="M 73.832727 91.890383 
L 73.832727 91.890383 
L 85.027712 97.282723 
L 96.222696 86.498043 
L 107.41768 86.498043 
L 118.612665 75.713362 
L 129.807649 81.105702 
L 141.002633 91.890383 
L 152.197618 54.144 
L 163.392602 59.53634 
L 174.587586 59.53634 
L 185.782571 59.53634 
L 196.977555 59.53634 
L 208.172539 59.53634 
L 219.367524 70.321021 
L 230.562508 70.321021 
L 241.757492 70.321021 
L 252.952476 81.105702 
L 264.147461 59.53634 
L 275.342445 75.713362 
L 286.537429 86.498043 
L 297.732414 81.105702 
L 308.927398 86.498043 
L 320.122382 70.321021 
L 331.317367 64.928681 
L 342.512351 64.928681 
L 353.707335 64.928681 
L 364.90232 75.713362 
L 376.097304 70.321021 
L 387.292288 75.713362 
L 398.487273 70.321021 
L 398.487273 64.928681 
L 398.487273 64.928681 
L 387.292288 75.713362 
L 376.097304 70.321021 
L 364.90232 75.713362 
L 353.707335 64.928681 
L 342.512351 64.928681 
L 331.317367 64.928681 
L 320.122382 70.321021 
L 308.927398 86.498043 
L 297.732414 81.105702 
L 286.537429 86.498043 
L 275.342445 75.713362 
L 264.147461 59.53634 
L 252.952476 81.105702 
L 241.757492 70.321021 
L 230.562508 70.321021 
L 219.367524 70.321021 
L 208.172539 59.53634 
L 196.977555 59.53634 
L 185.782571 59.53634 
L 174.587586 59.53634 
L 163.392602 59.53634 
L 152.197618 54.144 
L 141.002633 91.890383 
L 129.807649 81.105702 
L 118.612665 75.713362 
L 107.41768 86.498043 
L 96.222696 86.498043 
L 85.027712 97.282723 
L 73.832727 91.890383 
z
" clip-path="url(#p6de7e426c7)" style="fill: #e377c2"/>
   </g>
   <g id="matplotlib.axis_1">
    <g id="xtick_1">
     <g id="line2d_1">
      <defs>
       <path id="m06835b2118" d="M 0 0 
L 0 3.5 
" style="stroke: #000000; stroke-width: 0.8"/>
      </defs>
      <g>
       <use xlink:href="#m06835b2118" x="73.832727" y="307.584" style="stroke: #000000; stroke-width: 0.8"/>
      </g>
     </g>
     <g id="text_1">
      <!-- 0 -->
      <g transform="translate(70.651477 322.182437) scale(0.1 -0.1)">
       <defs>
        <path id="DejaVuSans-30" d="M 2034 4250 
Q 1547 4250 1301 3770 
Q 1056 3291 1056 2328 
Q 1056 1369 1301 889 
Q 1547 409 2034 409 
Q 2525 409 2770 889 
Q 3016 1369 3016 2328 
Q 3016 3291 2770 3770 
Q 2525 4250 2034 4250 
z
M 2034 4750 
Q 2819 4750 3233 4129 
Q 3647 3509 3647 2328 
Q 3647 1150 3233 529 
Q 2819 -91 2034 -91 
Q 1250 -91 836 529 
Q 422 1150 422 2328 
Q 422 3509 836 4129 
Q 1250 4750 2034 4750 
z
" transform="scale(0.015625)"/>
       </defs>
       <use xlink:href="#DejaVuSans-30"/>
      </g>
     </g>
    </g>
    <g id="xtick_2">
     <g id="line2d_2">
      <g>
       <use xlink:href="#m06835b2118" x="129.807649" y="307.584" style="stroke: #000000; stroke-width: 0.8"/>
      </g>
     </g>
     <g id="text_2">
      <!-- 5 -->
      <g transform="translate(126.626399 322.182437) scale(0.1 -0.1)">
       <defs>
        <path id="DejaVuSans-35" d="M 691 4666 
L 3169 4666 
L 3169 4134 
L 1269 4134 
L 1269 2991 
Q 1406 3038 1543 3061 
Q 1681 3084 1819 3084 
Q 2600 3084 3056 2656 
Q 3513 2228 3513 1497 
Q 3513 744 3044 326 
Q 2575 -91 1722 -91 
Q 1428 -91 1123 -41 
Q 819 9 494 109 
L 494 744 
Q 775 591 1075 516 
Q 1375 441 1709 441 
Q 2250 441 2565 725 
Q 2881 1009 2881 1497 
Q 2881 1984 2565 2268 
Q 2250 2553 1709 2553 
Q 1456 2553 1204 2497 
Q 953 2441 691 2322 
L 691 4666 
z
" transform="scale(0.015625)"/>
       </defs>
       <use xlink:href="#DejaVuSans-35"/>
      </g>
     </g>
    </g>
    <g id="xtick_3">
     <g id="line2d_3">
      <g>
       <use xlink:href="#m06835b2118" x="185.782571" y="307.584" style="stroke: #000000; stroke-width: 0.8"/>
      </g>
     </g>
     <g id="text_3">
      <!-- 10 -->
      <g transform="translate(179.420071 322.182437) scale(0.1 -0.1)">
       <defs>
        <path id="DejaVuSans-31" d="M 794 531 
L 1825 531 
L 1825 4091 
L 703 3866 
L 703 4441 
L 1819 4666 
L 2450 4666 
L 2450 531 
L 3481 531 
L 3481 0 
L 794 0 
L 794 531 
z
" transform="scale(0.015625)"/>
       </defs>
       <use xlink:href="#DejaVuSans-31"/>
       <use xlink:href="#DejaVuSans-30" transform="translate(63.623047 0)"/>
      </g>
     </g>
    </g>
    <g id="xtick_4">
     <g id="line2d_4">
      <g>
       <use xlink:href="#m06835b2118" x="241.757492" y="307.584" style="stroke: #000000; stroke-width: 0.8"/>
      </g>
     </g>
     <g id="text_4">
      <!-- 15 -->
      <g transform="translate(235.394992 322.182437) scale(0.1 -0.1)">
       <use xlink:href="#DejaVuSans-31"/>
       <use xlink:href="#DejaVuSans-35" transform="translate(63.623047 0)"/>
      </g>
     </g>
    </g>
    <g id="xtick_5">
     <g id="line2d_5">
      <g>
       <use xlink:href="#m06835b2118" x="297.732414" y="307.584" style="stroke: #000000; stroke-width: 0.8"/>
      </g>
     </g>
     <g id="text_5">
      <!-- 20 -->
      <g transform="translate(291.369914 322.182437) scale(0.1 -0.1)">
       <defs>
        <path id="DejaVuSans-32" d="M 1228 531 
L 3431 531 
L 3431 0 
L 469 0 
L 469 531 
Q 828 903 1448 1529 
Q 2069 2156 2228 2338 
Q 2531 2678 2651 2914 
Q 2772 3150 2772 3378 
Q 2772 3750 2511 3984 
Q 2250 4219 1831 4219 
Q 1534 4219 1204 4116 
Q 875 4013 500 3803 
L 500 4441 
Q 881 4594 1212 4672 
Q 1544 4750 1819 4750 
Q 2544 4750 2975 4387 
Q 3406 4025 3406 3419 
Q 3406 3131 3298 2873 
Q 3191 2616 2906 2266 
Q 2828 2175 2409 1742 
Q 1991 1309 1228 531 
z
" transform="scale(0.015625)"/>
       </defs>
       <use xlink:href="#DejaVuSans-32"/>
       <use xlink:href="#DejaVuSans-30" transform="translate(63.623047 0)"/>
      </g>
     </g>
    </g>
    <g id="xtick_6">
     <g id="line2d_6">
      <g>
       <use xlink:href="#m06835b2118" x="353.707335" y="307.584" style="stroke: #000000; stroke-width: 0.8"/>
      </g>
     </g>
     <g id="text_6">
      <!-- 25 -->
      <g transform="translate(347.344835 322.182437) scale(0.1 -0.1)">
       <use xlink:href="#DejaVuSans-32"/>
       <use xlink:href="#DejaVuSans-35" transform="translate(63.623047 0)"/>
      </g>
     </g>
    </g>
    <g id="xtick_7">
     <g id="line2d_7">
      <g>
       <use xlink:href="#m06835b2118" x="409.682257" y="307.584" style="stroke: #000000; stroke-width: 0.8"/>
      </g>
     </g>
     <g id="text_7">
      <!-- 30 -->
      <g transform="translate(403.319757 322.182437) scale(0.1 -0.1)">
       <defs>
        <path id="DejaVuSans-33" d="M 2597 2516 
Q 3050 2419 3304 2112 
Q 3559 1806 3559 1356 
Q 3559 666 3084 287 
Q 2609 -91 1734 -91 
Q 1441 -91 1130 -33 
Q 819 25 488 141 
L 488 750 
Q 750 597 1062 519 
Q 1375 441 1716 441 
Q 2309 441 2620 675 
Q 2931 909 2931 1356 
Q 2931 1769 2642 2001 
Q 2353 2234 1838 2234 
L 1294 2234 
L 1294 2753 
L 1863 2753 
Q 2328 2753 2575 2939 
Q 2822 3125 2822 3475 
Q 2822 3834 2567 4026 
Q 2313 4219 1838 4219 
Q 1578 4219 1281 4162 
Q 984 4106 628 3988 
L 628 4550 
Q 988 4650 1302 4700 
Q 1616 4750 1894 4750 
Q 2613 4750 3031 4423 
Q 3450 4097 3450 3541 
Q 3450 3153 3228 2886 
Q 3006 2619 2597 2516 
z
" transform="scale(0.015625)"/>
       </defs>
       <use xlink:href="#DejaVuSans-33"/>
       <use xlink:href="#DejaVuSans-30" transform="translate(63.623047 0)"/>
      </g>
     </g>
    </g>
    <g id="text_8">
     <!-- Generations -->
     <g transform="translate(205.662344 335.860562) scale(0.1 -0.1)">
      <defs>
       <path id="DejaVuSans-47" d="M 3809 666 
L 3809 1919 
L 2778 1919 
L 2778 2438 
L 4434 2438 
L 4434 434 
Q 4069 175 3628 42 
Q 3188 -91 2688 -91 
Q 1594 -91 976 548 
Q 359 1188 359 2328 
Q 359 3472 976 4111 
Q 1594 4750 2688 4750 
Q 3144 4750 3555 4637 
Q 3966 4525 4313 4306 
L 4313 3634 
Q 3963 3931 3569 4081 
Q 3175 4231 2741 4231 
Q 1884 4231 1454 3753 
Q 1025 3275 1025 2328 
Q 1025 1384 1454 906 
Q 1884 428 2741 428 
Q 3075 428 3337 486 
Q 3600 544 3809 666 
z
" transform="scale(0.015625)"/>
       <path id="DejaVuSans-65" d="M 3597 1894 
L 3597 1613 
L 953 1613 
Q 991 1019 1311 708 
Q 1631 397 2203 397 
Q 2534 397 2845 478 
Q 3156 559 3463 722 
L 3463 178 
Q 3153 47 2828 -22 
Q 2503 -91 2169 -91 
Q 1331 -91 842 396 
Q 353 884 353 1716 
Q 353 2575 817 3079 
Q 1281 3584 2069 3584 
Q 2775 3584 3186 3129 
Q 3597 2675 3597 1894 
z
M 3022 2063 
Q 3016 2534 2758 2815 
Q 2500 3097 2075 3097 
Q 1594 3097 1305 2825 
Q 1016 2553 972 2059 
L 3022 2063 
z
" transform="scale(0.015625)"/>
       <path id="DejaVuSans-6e" d="M 3513 2113 
L 3513 0 
L 2938 0 
L 2938 2094 
Q 2938 2591 2744 2837 
Q 2550 3084 2163 3084 
Q 1697 3084 1428 2787 
Q 1159 2491 1159 1978 
L 1159 0 
L 581 0 
L 581 3500 
L 1159 3500 
L 1159 2956 
Q 1366 3272 1645 3428 
Q 1925 3584 2291 3584 
Q 2894 3584 3203 3211 
Q 3513 2838 3513 2113 
z
" transform="scale(0.015625)"/>
       <path id="DejaVuSans-72" d="M 2631 2963 
Q 2534 3019 2420 3045 
Q 2306 3072 2169 3072 
Q 1681 3072 1420 2755 
Q 1159 2438 1159 1844 
L 1159 0 
L 581 0 
L 581 3500 
L 1159 3500 
L 1159 2956 
Q 1341 3275 1631 3429 
Q 1922 3584 2338 3584 
Q 2397 3584 2469 3576 
Q 2541 3569 2628 3553 
L 2631 2963 
z
" transform="scale(0.015625)"/>
       <path id="DejaVuSans-61" d="M 2194 1759 
Q 1497 1759 1228 1600 
Q 959 1441 959 1056 
Q 959 750 1161 570 
Q 1363 391 1709 391 
Q 2188 391 2477 730 
Q 2766 1069 2766 1631 
L 2766 1759 
L 2194 1759 
z
M 3341 1997 
L 3341 0 
L 2766 0 
L 2766 531 
Q 2569 213 2275 61 
Q 1981 -91 1556 -91 
Q 1019 -91 701 211 
Q 384 513 384 1019 
Q 384 1609 779 1909 
Q 1175 2209 1959 2209 
L 2766 2209 
L 2766 2266 
Q 2766 2663 2505 2880 
Q 2244 3097 1772 3097 
Q 1472 3097 1187 3025 
Q 903 2953 641 2809 
L 641 3341 
Q 956 3463 1253 3523 
Q 1550 3584 1831 3584 
Q 2591 3584 2966 3190 
Q 3341 2797 3341 1997 
z
" transform="scale(0.015625)"/>
       <path id="DejaVuSans-74" d="M 1172 4494 
L 1172 3500 
L 2356 3500 
L 2356 3053 
L 1172 3053 
L 1172 1153 
Q 1172 725 1289 603 
Q 1406 481 1766 481 
L 2356 481 
L 2356 0 
L 1766 0 
Q 1100 0 847 248 
Q 594 497 594 1153 
L 594 3053 
L 172 3053 
L 172 3500 
L 594 3500 
L 594 4494 
L 1172 4494 
z
" transform="scale(0.015625)"/>
       <path id="DejaVuSans-69" d="M 603 3500 
L 1178 3500 
L 1178 0 
L 603 0 
L 603 3500 
z
M 603 4863 
L 1178 4863 
L 1178 4134 
L 603 4134 
L 603 4863 
z
" transform="scale(0.015625)"/>
       <path id="DejaVuSans-6f" d="M 1959 3097 
Q 1497 3097 1228 2736 
Q 959 2375 959 1747 
Q 959 1119 1226 758 
Q 1494 397 1959 397 
Q 2419 397 2687 759 
Q 2956 1122 2956 1747 
Q 2956 2369 2687 2733 
Q 2419 3097 1959 3097 
z
M 1959 3584 
Q 2709 3584 3137 3096 
Q 3566 2609 3566 1747 
Q 3566 888 3137 398 
Q 2709 -91 1959 -91 
Q 1206 -91 779 398 
Q 353 888 353 1747 
Q 353 2609 779 3096 
Q 1206 3584 1959 3584 
z
" transform="scale(0.015625)"/>
       <path id="DejaVuSans-73" d="M 2834 3397 
L 2834 2853 
Q 2591 2978 2328 3040 
Q 2066 3103 1784 3103 
Q 1356 3103 1142 2972 
Q 928 2841 928 2578 
Q 928 2378 1081 2264 
Q 1234 2150 1697 2047 
L 1894 2003 
Q 2506 1872 2764 1633 
Q 3022 1394 3022 966 
Q 3022 478 2636 193 
Q 2250 -91 1575 -91 
Q 1294 -91 989 -36 
Q 684 19 347 128 
L 347 722 
Q 666 556 975 473 
Q 1284 391 1588 391 
Q 1994 391 2212 530 
Q 2431 669 2431 922 
Q 2431 1156 2273 1281 
Q 2116 1406 1581 1522 
L 1381 1569 
Q 847 1681 609 1914 
Q 372 2147 372 2553 
Q 372 3047 722 3315 
Q 1072 3584 1716 3584 
Q 2034 3584 2315 3537 
Q 2597 3491 2834 3397 
z
" transform="scale(0.015625)"/>
      </defs>
      <use xlink:href="#DejaVuSans-47"/>
      <use xlink:href="#DejaVuSans-65" transform="translate(77.490234 0)"/>
      <use xlink:href="#DejaVuSans-6e" transform="translate(139.013672 0)"/>
      <use xlink:href="#DejaVuSans-65" transform="translate(202.392578 0)"/>
      <use xlink:href="#DejaVuSans-72" transform="translate(263.916016 0)"/>
      <use xlink:href="#DejaVuSans-61" transform="translate(305.029297 0)"/>
      <use xlink:href="#DejaVuSans-74" transform="translate(366.308594 0)"/>
      <use xlink:href="#DejaVuSans-69" transform="translate(405.517578 0)"/>
      <use xlink:href="#DejaVuSans-6f" transform="translate(433.300781 0)"/>
      <use xlink:href="#DejaVuSans-6e" transform="translate(494.482422 0)"/>
      <use xlink:href="#DejaVuSans-73" transform="translate(557.861328 0)"/>
     </g>
    </g>
   </g>
   <g id="matplotlib.axis_2">
    <g id="ytick_1">
     <g id="line2d_8">
      <defs>
       <path id="m97506ac4e5" d="M 0 0 
L -3.5 0 
" style="stroke: #000000; stroke-width: 0.8"/>
      </defs>
      <g>
       <use xlink:href="#m97506ac4e5" x="57.6" y="307.584" style="stroke: #000000; stroke-width: 0.8"/>
      </g>
     </g>
     <g id="text_9">
      <!-- 0 -->
      <g transform="translate(44.2375 311.383219) scale(0.1 -0.1)">
       <use xlink:href="#DejaVuSans-30"/>
      </g>
     </g>
    </g>
    <g id="ytick_2">
     <g id="line2d_9">
      <g>
       <use xlink:href="#m97506ac4e5" x="57.6" y="253.660596" style="stroke: #000000; stroke-width: 0.8"/>
      </g>
     </g>
     <g id="text_10">
      <!-- 10 -->
      <g transform="translate(37.875 257.459814) scale(0.1 -0.1)">
       <use xlink:href="#DejaVuSans-31"/>
       <use xlink:href="#DejaVuSans-30" transform="translate(63.623047 0)"/>
      </g>
     </g>
    </g>
    <g id="ytick_3">
     <g id="line2d_10">
      <g>
       <use xlink:href="#m97506ac4e5" x="57.6" y="199.737191" style="stroke: #000000; stroke-width: 0.8"/>
      </g>
     </g>
     <g id="text_11">
      <!-- 20 -->
      <g transform="translate(37.875 203.53641) scale(0.1 -0.1)">
       <use xlink:href="#DejaVuSans-32"/>
       <use xlink:href="#DejaVuSans-30" transform="translate(63.623047 0)"/>
      </g>
     </g>
    </g>
    <g id="ytick_4">
     <g id="line2d_11">
      <g>
       <use xlink:href="#m97506ac4e5" x="57.6" y="145.813787" style="stroke: #000000; stroke-width: 0.8"/>
      </g>
     </g>
     <g id="text_12">
      <!-- 30 -->
      <g transform="translate(37.875 149.613006) scale(0.1 -0.1)">
       <use xlink:href="#DejaVuSans-33"/>
       <use xlink:href="#DejaVuSans-30" transform="translate(63.623047 0)"/>
      </g>
     </g>
    </g>
    <g id="ytick_5">
     <g id="line2d_12">
      <g>
       <use xlink:href="#m97506ac4e5" x="57.6" y="91.890383" style="stroke: #000000; stroke-width: 0.8"/>
      </g>
     </g>
     <g id="text_13">
      <!-- 40 -->
      <g transform="translate(37.875 95.689602) scale(0.1 -0.1)">
       <defs>
        <path id="DejaVuSans-34" d="M 2419 4116 
L 825 1625 
L 2419 1625 
L 2419 4116 
z
M 2253 4666 
L 3047 4666 
L 3047 1625 
L 3713 1625 
L 3713 1100 
L 3047 1100 
L 3047 0 
L 2419 0 
L 2419 1100 
L 313 1100 
L 313 1709 
L 2253 4666 
z
" transform="scale(0.015625)"/>
       </defs>
       <use xlink:href="#DejaVuSans-34"/>
       <use xlink:href="#DejaVuSans-30" transform="translate(63.623047 0)"/>
      </g>
     </g>
    </g>
    <g id="text_14">
     <!-- Size per Species -->
     <g transform="translate(31.795312 215.520969) rotate(-90) scale(0.1 -0.1)">
      <defs>
       <path id="DejaVuSans-53" d="M 3425 4513 
L 3425 3897 
Q 3066 4069 2747 4153 
Q 2428 4238 2131 4238 
Q 1616 4238 1336 4038 
Q 1056 3838 1056 3469 
Q 1056 3159 1242 3001 
Q 1428 2844 1947 2747 
L 2328 2669 
Q 3034 2534 3370 2195 
Q 3706 1856 3706 1288 
Q 3706 609 3251 259 
Q 2797 -91 1919 -91 
Q 1588 -91 1214 -16 
Q 841 59 441 206 
L 441 856 
Q 825 641 1194 531 
Q 1563 422 1919 422 
Q 2459 422 2753 634 
Q 3047 847 3047 1241 
Q 3047 1584 2836 1778 
Q 2625 1972 2144 2069 
L 1759 2144 
Q 1053 2284 737 2584 
Q 422 2884 422 3419 
Q 422 4038 858 4394 
Q 1294 4750 2059 4750 
Q 2388 4750 2728 4690 
Q 3069 4631 3425 4513 
z
" transform="scale(0.015625)"/>
       <path id="DejaVuSans-7a" d="M 353 3500 
L 3084 3500 
L 3084 2975 
L 922 459 
L 3084 459 
L 3084 0 
L 275 0 
L 275 525 
L 2438 3041 
L 353 3041 
L 353 3500 
z
" transform="scale(0.015625)"/>
       <path id="DejaVuSans-20" transform="scale(0.015625)"/>
       <path id="DejaVuSans-70" d="M 1159 525 
L 1159 -1331 
L 581 -1331 
L 581 3500 
L 1159 3500 
L 1159 2969 
Q 1341 3281 1617 3432 
Q 1894 3584 2278 3584 
Q 2916 3584 3314 3078 
Q 3713 2572 3713 1747 
Q 3713 922 3314 415 
Q 2916 -91 2278 -91 
Q 1894 -91 1617 61 
Q 1341 213 1159 525 
z
M 3116 1747 
Q 3116 2381 2855 2742 
Q 2594 3103 2138 3103 
Q 1681 3103 1420 2742 
Q 1159 2381 1159 1747 
Q 1159 1113 1420 752 
Q 1681 391 2138 391 
Q 2594 391 2855 752 
Q 3116 1113 3116 1747 
z
" transform="scale(0.015625)"/>
       <path id="DejaVuSans-63" d="M 3122 3366 
L 3122 2828 
Q 2878 2963 2633 3030 
Q 2388 3097 2138 3097 
Q 1578 3097 1268 2742 
Q 959 2388 959 1747 
Q 959 1106 1268 751 
Q 1578 397 2138 397 
Q 2388 397 2633 464 
Q 2878 531 3122 666 
L 3122 134 
Q 2881 22 2623 -34 
Q 2366 -91 2075 -91 
Q 1284 -91 818 406 
Q 353 903 353 1747 
Q 353 2603 823 3093 
Q 1294 3584 2113 3584 
Q 2378 3584 2631 3529 
Q 2884 3475 3122 3366 
z
" transform="scale(0.015625)"/>
      </defs>
      <use xlink:href="#DejaVuSans-53"/>
      <use xlink:href="#DejaVuSans-69" transform="translate(63.476562 0)"/>
      <use xlink:href="#DejaVuSans-7a" transform="translate(91.259766 0)"/>
      <use xlink:href="#DejaVuSans-65" transform="translate(143.75 0)"/>
      <use xlink:href="#DejaVuSans-20" transform="translate(205.273438 0)"/>
      <use xlink:href="#DejaVuSans-70" transform="translate(237.060547 0)"/>
      <use xlink:href="#DejaVuSans-65" transform="translate(300.537109 0)"/>
      <use xlink:href="#DejaVuSans-72" transform="translate(362.060547 0)"/>
      <use xlink:href="#DejaVuSans-20" transform="translate(403.173828 0)"/>
      <use xlink:href="#DejaVuSans-53" transform="translate(434.960938 0)"/>
      <use xlink:href="#DejaVuSans-70" transform="translate(498.4375 0)"/>
      <use xlink:href="#DejaVuSans-65" transform="translate(561.914062 0)"/>
      <use xlink:href="#DejaVuSans-63" transform="translate(623.4375 0)"/>
      <use xlink:href="#DejaVuSans-69" transform="translate(678.417969 0)"/>
      <use xlink:href="#DejaVuSans-65" transform="translate(706.201172 0)"/>
      <use xlink:href="#DejaVuSans-73" transform="translate(767.724609 0)"/>
     </g>
    </g>
   </g>
   <g id="patch_3">
    <path d="M 57.6 307.584 
L 57.6 41.472 
" style="fill: none; stroke: #000000; stroke-width: 0.8; stroke-linejoin: miter; stroke-linecap: square"/>
   </g>
   <g id="patch_4">
    <path d="M 414.72 307.584 
L 414.72 41.472 
" style="fill: none; stroke: #000000; stroke-width: 0.8; stroke-linejoin: miter; stroke-linecap: square"/>
   </g>
   <g id="patch_5">
    <path d="M 57.6 307.584 
L 414.72 307.584 
" style="fill: none; stroke: #000000; stroke-width: 0.8; stroke-linejoin: miter; stroke-linecap: square"/>
   </g>
   <g id="patch_6">
    <path d="M 57.6 41.472 
L 414.72 41.472 
" style="fill: none; stroke: #000000; stroke-width: 0.8; stroke-linejoin: miter; stroke-linecap: square"/>
   </g>
   <g id="text_15">
    <!-- Speciation -->
    <g transform="translate(204.714375 35.472) scale(0.12 -0.12)">
     <use xlink:href="#DejaVuSans-53"/>
     <use xlink:href="#DejaVuSans-70" transform="translate(63.476562 0)"/>
     <use xlink:href="#DejaVuSans-65" transform="translate(126.953125 0)"/>
     <use xlink:href="#DejaVuSans-63" transform="translate(188.476562 0)"/>
     <use xlink:href="#DejaVuSans-69" transform="translate(243.457031 0)"/>
     <use xlink:href="#DejaVuSans-61" transform="translate(271.240234 0)"/>
     <use xlink:href="#DejaVuSans-74" transform="translate(332.519531 0)"/>
     <use xlink:href="#DejaVuSans-69" transform="translate(371.728516 0)"/>
     <use xlink:href="#DejaVuSans-6f" transform="translate(399.511719 0)"/>
     <use xlink:href="#DejaVuSans-6e" transform="translate(460.693359 0)"/>
    </g>
   </g>
  </g>
 </g>
 <defs>
  <clipPath id="p6de7e426c7">
   <rect x="57.6" y="41.472" width="357.12" height="266.112"/>
  </clipPath>
 </defs>
</svg>
