<?xml version="1.0" encoding="UTF-8" standalone="no"?>
<!DOCTYPE svg PUBLIC "-//W3C//DTD SVG 1.1//EN"
 "http://www.w3.org/Graphics/SVG/1.1/DTD/svg11.dtd">
<!-- Generated by graphviz version 14.0.2 (20251019.1705)
 -->
<!-- Pages: 1 -->
<svg width="694pt" height="148pt"
 viewBox="0.00 0.00 694.00 148.00" xmlns="http://www.w3.org/2000/svg" xmlns:xlink="http://www.w3.org/1999/xlink">
<g id="graph0" class="graph" transform="scale(1 1) rotate(0) translate(4 143.71)">
<polygon fill="white" stroke="none" points="-4,4 -4,-143.71 689.75,-143.71 689.75,4 -4,4"/>
<!-- Agent X -->
<g id="node1" class="node">
<title>Agent X</title>
<polygon fill="lightgray" stroke="black" points="204.12,-139.71 157.38,-139.71 157.38,-121.21 204.12,-121.21 204.12,-139.71"/>
<text xml:space="preserve" text-anchor="middle" x="180.75" y="-127.16" font-family="Times,serif" font-size="9.00">Agent X</text>
</g>
<!-- Left Wheel -->
<g id="node13" class="node">
<title>Left Wheel</title>
<ellipse fill="lightblue" stroke="black" cx="308.75" cy="-42.6" rx="38.89" ry="38.89"/>
<text xml:space="preserve" text-anchor="middle" x="308.75" y="-39.3" font-family="Times,serif" font-size="9.00">Left Wheel</text>
</g>
<!-- Agent X&#45;&gt;Left Wheel -->
<g id="edge1" class="edge">
<title>Agent X&#45;&gt;Left Wheel</title>
<path fill="none" stroke="red" stroke-width="0.73" d="M193.49,-120.91C210.61,-109.43 241.86,-88.47 267.5,-71.27"/>
<polygon fill="red" stroke="red" stroke-width="0.73" points="269.38,-74.22 275.74,-65.75 265.48,-68.41 269.38,-74.22"/>
</g>
<!-- Right Wheel -->
<g id="node14" class="node">
<title>Right Wheel</title>
<ellipse fill="lightblue" stroke="black" cx="407.75" cy="-42.6" rx="42.6" ry="42.6"/>
<text xml:space="preserve" text-anchor="middle" x="407.75" y="-39.3" font-family="Times,serif" font-size="9.00">Right Wheel</text>
</g>
<!-- Agent X&#45;&gt;Right Wheel -->
<g id="edge2" class="edge">
<title>Agent X&#45;&gt;Right Wheel</title>
<path fill="none" stroke="green" stroke-width="0.29" d="M204.51,-123.31C207.29,-122.6 210.08,-121.88 212.75,-121.21 276.69,-104.97 297.77,-114.77 356.75,-85.21 360.77,-83.19 364.75,-80.82 368.62,-78.24"/>
<polygon fill="green" stroke="green" stroke-width="0.29" points="370.42,-81.25 376.51,-72.59 366.34,-75.56 370.42,-81.25"/>
</g>
<!-- Agent Z -->
<g id="node2" class="node">
<title>Agent Z</title>
<polygon fill="lightgray" stroke="black" points="267.38,-139.71 222.12,-139.71 222.12,-121.21 267.38,-121.21 267.38,-139.71"/>
<text xml:space="preserve" text-anchor="middle" x="244.75" y="-127.16" font-family="Times,serif" font-size="9.00">Agent Z</text>
</g>
<!-- Agent Z&#45;&gt;Left Wheel -->
<g id="edge3" class="edge">
<title>Agent Z&#45;&gt;Left Wheel</title>
<path fill="none" stroke="red" stroke-width="0.19" d="M251.12,-120.91C257.9,-111.82 269.1,-96.8 279.83,-82.4"/>
<polygon fill="red" stroke="red" stroke-width="0.19" points="282.37,-84.84 285.54,-74.74 276.76,-80.66 282.37,-84.84"/>
</g>
<!-- Agent Z&#45;&gt;Right Wheel -->
<g id="edge4" class="edge">
<title>Agent Z&#45;&gt;Right Wheel</title>
<path fill="none" stroke="green" stroke-width="0.3" d="M267.58,-122.73C290.9,-115.34 327.71,-102.23 356.75,-85.21 360.46,-83.03 364.19,-80.59 367.85,-78.02"/>
<polygon fill="green" stroke="green" stroke-width="0.3" points="369.89,-80.86 375.83,-72.09 365.72,-75.24 369.89,-80.86"/>
</g>
<!-- Target X -->
<g id="node3" class="node">
<title>Target X</title>
<polygon fill="lightgray" stroke="black" points="47.5,-139.71 0,-139.71 0,-121.21 47.5,-121.21 47.5,-139.71"/>
<text xml:space="preserve" text-anchor="middle" x="23.75" y="-127.16" font-family="Times,serif" font-size="9.00">Target X</text>
</g>
<!-- Target X&#45;&gt;Left Wheel -->
<g id="edge5" class="edge">
<title>Target X&#45;&gt;Left Wheel</title>
<path fill="none" stroke="green" stroke-width="0.33" d="M47.56,-122.28C94.57,-108.12 200.11,-76.33 261.67,-57.79"/>
<polygon fill="green" stroke="green" stroke-width="0.33" points="262.49,-61.19 271.06,-54.96 260.47,-54.49 262.49,-61.19"/>
</g>
<!-- Target Z -->
<g id="node4" class="node">
<title>Target Z</title>
<polygon fill="lightgray" stroke="black" points="331.75,-139.71 285.75,-139.71 285.75,-121.21 331.75,-121.21 331.75,-139.71"/>
<text xml:space="preserve" text-anchor="middle" x="308.75" y="-127.16" font-family="Times,serif" font-size="9.00">Target Z</text>
</g>
<!-- Target Z&#45;&gt;Left Wheel -->
<g id="edge6" class="edge">
<title>Target Z&#45;&gt;Left Wheel</title>
<path fill="none" stroke="green" stroke-width="1.19" d="M308.75,-120.91C308.75,-114.12 308.75,-104.02 308.75,-93.34"/>
<polygon fill="green" stroke="green" stroke-width="1.19" points="312.25,-93.45 308.75,-83.45 305.25,-93.45 312.25,-93.45"/>
</g>
<!-- Target Z&#45;&gt;Right Wheel -->
<g id="edge7" class="edge">
<title>Target Z&#45;&gt;Right Wheel</title>
<path fill="none" stroke="red" stroke-width="0.66" d="M318.6,-120.91C330.14,-110.91 349.97,-93.71 368,-78.08"/>
<polygon fill="red" stroke="red" stroke-width="0.66" points="370.1,-80.89 375.36,-71.69 365.51,-75.6 370.1,-80.89"/>
</g>
<!-- Blob Visible -->
<g id="node5" class="node">
<title>Blob Visible</title>
<polygon fill="lightgray" stroke="black" points="409.88,-139.71 349.62,-139.71 349.62,-121.21 409.88,-121.21 409.88,-139.71"/>
<text xml:space="preserve" text-anchor="middle" x="379.75" y="-127.16" font-family="Times,serif" font-size="9.00">Blob Visible</text>
</g>
<!-- Blob Visible&#45;&gt;Left Wheel -->
<g id="edge8" class="edge">
<title>Blob Visible&#45;&gt;Left Wheel</title>
<path fill="none" stroke="green" stroke-width="0.44" d="M372.68,-120.91C364.99,-111.61 352.15,-96.08 339.99,-81.38"/>
<polygon fill="green" stroke="green" stroke-width="0.44" points="342.83,-79.32 333.76,-73.84 337.44,-83.78 342.83,-79.32"/>
</g>
<!-- Blob Visible&#45;&gt;Right Wheel -->
<g id="edge9" class="edge">
<title>Blob Visible&#45;&gt;Right Wheel</title>
<path fill="none" stroke="red" stroke-width="0.2" d="M382.54,-120.91C384.76,-114.09 388.08,-103.92 391.58,-93.18"/>
<polygon fill="red" stroke="red" stroke-width="0.2" points="394.81,-94.55 394.59,-83.96 388.16,-92.38 394.81,-94.55"/>
</g>
<!-- Blob X -->
<g id="node6" class="node">
<title>Blob X</title>
<polygon fill="lightgray" stroke="black" points="469.88,-139.71 427.62,-139.71 427.62,-121.21 469.88,-121.21 469.88,-139.71"/>
<text xml:space="preserve" text-anchor="middle" x="448.75" y="-127.16" font-family="Times,serif" font-size="9.00">Blob X</text>
</g>
<!-- Blob X&#45;&gt;Left Wheel -->
<g id="edge10" class="edge">
<title>Blob X&#45;&gt;Left Wheel</title>
<path fill="none" stroke="green" d="M427.16,-121.21C407.71,-113.32 378.72,-100.4 355.75,-85.21 352.27,-82.91 348.79,-80.37 345.37,-77.71"/>
<polygon fill="green" stroke="green" points="347.67,-75.07 337.72,-71.44 343.23,-80.48 347.67,-75.07"/>
</g>
<!-- Blob X&#45;&gt;Right Wheel -->
<g id="edge11" class="edge">
<title>Blob X&#45;&gt;Right Wheel</title>
<path fill="none" stroke="green" stroke-width="0.27" d="M444.67,-120.91C441.18,-113.61 435.87,-102.5 430.36,-90.94"/>
<polygon fill="green" stroke="green" stroke-width="0.27" points="433.56,-89.54 426.1,-82.02 427.25,-92.55 433.56,-89.54"/>
</g>
<!-- Blob Y -->
<g id="node7" class="node">
<title>Blob Y</title>
<polygon fill="lightgray" stroke="black" points="529.5,-139.71 488,-139.71 488,-121.21 529.5,-121.21 529.5,-139.71"/>
<text xml:space="preserve" text-anchor="middle" x="508.75" y="-127.16" font-family="Times,serif" font-size="9.00">Blob Y</text>
</g>
<!-- Blob Y&#45;&gt;Left Wheel -->
<g id="edge12" class="edge">
<title>Blob Y&#45;&gt;Left Wheel</title>
<path fill="none" stroke="green" stroke-width="0.26" d="M487.52,-123.58C446.9,-112.31 361.64,-88.45 355.75,-85.21 351.72,-82.99 347.74,-80.37 343.91,-77.55"/>
<polygon fill="green" stroke="green" stroke-width="0.26" points="346.11,-74.82 336.09,-71.36 341.76,-80.31 346.11,-74.82"/>
</g>
<!-- Blob Y&#45;&gt;Right Wheel -->
<g id="edge13" class="edge">
<title>Blob Y&#45;&gt;Right Wheel</title>
<path fill="none" stroke="green" stroke-width="0.14" d="M498.7,-120.91C486.72,-110.73 465.97,-93.09 447.31,-77.23"/>
<polygon fill="green" stroke="green" stroke-width="0.14" points="450.07,-74.99 440.19,-71.18 445.54,-80.32 450.07,-74.99"/>
</g>
<!-- Blob Size -->
<g id="node8" class="node">
<title>Blob Size</title>
<polygon fill="lightgray" stroke="black" points="598,-139.71 547.5,-139.71 547.5,-121.21 598,-121.21 598,-139.71"/>
<text xml:space="preserve" text-anchor="middle" x="572.75" y="-127.16" font-family="Times,serif" font-size="9.00">Blob Size</text>
</g>
<!-- Blob Size&#45;&gt;Left Wheel -->
<g id="edge14" class="edge">
<title>Blob Size&#45;&gt;Left Wheel</title>
<path fill="none" stroke="red" stroke-width="0.14" d="M547.16,-123.12C544.33,-122.46 541.48,-121.81 538.75,-121.21 457.79,-103.43 430.05,-121.96 355.75,-85.21 351.46,-83.08 347.26,-80.46 343.24,-77.58"/>
<polygon fill="red" stroke="red" stroke-width="0.14" points="345.48,-74.89 335.45,-71.5 341.17,-80.41 345.48,-74.89"/>
</g>
<!-- Blob Size&#45;&gt;Right Wheel -->
<g id="edge15" class="edge">
<title>Blob Size&#45;&gt;Right Wheel</title>
<path fill="none" stroke="red" stroke-width="0.14" d="M556.02,-120.75C532.33,-108.43 488.11,-85.41 454.1,-67.72"/>
<polygon fill="red" stroke="red" stroke-width="0.14" points="455.92,-64.72 445.43,-63.21 452.69,-70.93 455.92,-64.72"/>
</g>
<!-- &#45;9 -->
<g id="node9" class="node">
<title>&#45;9</title>
<polygon fill="lightgray" stroke="black" points="639.5,-139.71 616,-139.71 616,-121.21 639.5,-121.21 639.5,-139.71"/>
<text xml:space="preserve" text-anchor="middle" x="627.75" y="-127.16" font-family="Times,serif" font-size="9.00">&#45;9</text>
</g>
<!-- &#45;9&#45;&gt;Left Wheel -->
<g id="edge16" class="edge">
<title>&#45;9&#45;&gt;Left Wheel</title>
<path fill="none" stroke="red" stroke-width="0.35" d="M615.92,-124.26C612.97,-123.11 609.78,-122.01 606.75,-121.21 497.79,-92.41 458.02,-132.55 355.75,-85.21 351.52,-83.25 347.39,-80.78 343.45,-78.03"/>
<polygon fill="red" stroke="red" stroke-width="0.35" points="345.63,-75.3 335.57,-71.98 341.36,-80.85 345.63,-75.3"/>
</g>
<!-- &#45;9&#45;&gt;Right Wheel -->
<g id="edge17" class="edge">
<title>&#45;9&#45;&gt;Right Wheel</title>
<path fill="none" stroke="green" stroke-width="0.66" d="M615.76,-124.74C612.81,-123.58 609.67,-122.35 606.75,-121.21 555.92,-101.31 497.76,-78.64 457.5,-62.96"/>
<polygon fill="green" stroke="green" stroke-width="0.66" points="458.92,-59.76 448.33,-59.4 456.38,-66.29 458.92,-59.76"/>
</g>
<!-- &#45;10 -->
<g id="node10" class="node">
<title>&#45;10</title>
<polygon fill="lightgray" stroke="black" points="685.75,-139.71 657.75,-139.71 657.75,-121.21 685.75,-121.21 685.75,-139.71"/>
<text xml:space="preserve" text-anchor="middle" x="671.75" y="-127.16" font-family="Times,serif" font-size="9.00">&#45;10</text>
</g>
<!-- &#45;10&#45;&gt;Left Wheel -->
<g id="edge18" class="edge">
<title>&#45;10&#45;&gt;Left Wheel</title>
<path fill="none" stroke="green" stroke-width="0.27" d="M657.3,-123.72C654.49,-122.77 651.56,-121.87 648.75,-121.21 521.1,-90.87 475.37,-139.11 355.75,-85.21 351.38,-83.24 347.13,-80.72 343.09,-77.9"/>
<polygon fill="green" stroke="green" stroke-width="0.27" points="345.48,-75.33 335.42,-72.01 341.22,-80.88 345.48,-75.33"/>
</g>
<!-- &#45;10&#45;&gt;Right Wheel -->
<g id="edge19" class="edge">
<title>&#45;10&#45;&gt;Right Wheel</title>
<path fill="none" stroke="green" stroke-width="0.52" d="M657.67,-124.32C654.73,-123.27 651.64,-122.19 648.75,-121.21 583.29,-98.93 507.28,-74.73 458.4,-59.38"/>
<polygon fill="green" stroke="green" stroke-width="0.52" points="459.73,-56.13 449.14,-56.48 457.64,-62.81 459.73,-56.13"/>
</g>
<!-- &#45;11 -->
<g id="node11" class="node">
<title>&#45;11</title>
<polygon fill="lightgray" stroke="black" points="93.75,-139.71 65.75,-139.71 65.75,-121.21 93.75,-121.21 93.75,-139.71"/>
<text xml:space="preserve" text-anchor="middle" x="79.75" y="-127.16" font-family="Times,serif" font-size="9.00">&#45;11</text>
</g>
<!-- &#45;11&#45;&gt;Left Wheel -->
<g id="edge20" class="edge">
<title>&#45;11&#45;&gt;Left Wheel</title>
<path fill="none" stroke="red" stroke-width="0.22" d="M94.07,-124.09C127.26,-111.64 210.57,-80.41 263.11,-60.71"/>
<polygon fill="red" stroke="red" stroke-width="0.22" points="264.09,-64.08 272.23,-57.29 261.64,-57.53 264.09,-64.08"/>
</g>
<!-- &#45;11&#45;&gt;Right Wheel -->
<g id="edge21" class="edge">
<title>&#45;11&#45;&gt;Right Wheel</title>
<path fill="none" stroke="green" stroke-width="0.39" d="M94.21,-123.76C97.01,-122.81 99.95,-121.9 102.75,-121.21 213.43,-93.82 252.3,-130.92 356.75,-85.21 360.75,-83.45 364.7,-81.3 368.52,-78.89"/>
<polygon fill="green" stroke="green" stroke-width="0.39" points="370.43,-81.83 376.66,-73.26 366.45,-76.07 370.43,-81.83"/>
</g>
<!-- &#45;12 -->
<g id="node12" class="node">
<title>&#45;12</title>
<polygon fill="lightgray" stroke="black" points="139.75,-139.71 111.75,-139.71 111.75,-121.21 139.75,-121.21 139.75,-139.71"/>
<text xml:space="preserve" text-anchor="middle" x="125.75" y="-127.16" font-family="Times,serif" font-size="9.00">&#45;12</text>
</g>
<!-- &#45;12&#45;&gt;Left Wheel -->
<g id="edge22" class="edge">
<title>&#45;12&#45;&gt;Left Wheel</title>
<path fill="none" stroke="red" stroke-width="0.16" d="M140.11,-122.72C166.61,-110.29 224.18,-83.28 264.66,-64.29"/>
<polygon fill="red" stroke="red" stroke-width="0.16" points="266,-67.52 273.57,-60.11 263.03,-61.19 266,-67.52"/>
</g>
<!-- &#45;12&#45;&gt;Right Wheel -->
<g id="edge23" class="edge">
<title>&#45;12&#45;&gt;Right Wheel</title>
<path fill="none" stroke="red" stroke-width="0.21" d="M140.23,-123.83C143.03,-122.87 145.96,-121.94 148.75,-121.21 239.47,-97.28 271.39,-124.13 356.75,-85.21 360.84,-83.34 364.87,-81.07 368.77,-78.56"/>
<polygon fill="red" stroke="red" stroke-width="0.21" points="370.64,-81.53 376.82,-72.92 366.62,-75.79 370.64,-81.53"/>
</g>
</g>
</svg>
