<?xml version="1.0" encoding="UTF-8" standalone="no"?>
<!DOCTYPE svg PUBLIC "-//W3C//DTD SVG 1.1//EN"
 "http://www.w3.org/Graphics/SVG/1.1/DTD/svg11.dtd">
<!-- Generated by graphviz version 14.0.2 (20251019.1705)
 -->
<!-- Pages: 1 -->
<svg width="685pt" height="213pt"
 viewBox="0.00 0.00 685.00 213.00" xmlns="http://www.w3.org/2000/svg" xmlns:xlink="http://www.w3.org/1999/xlink">
<g id="graph0" class="graph" transform="scale(1 1) rotate(0) translate(4 208.7)">
<polygon fill="white" stroke="none" points="-4,4 -4,-208.7 680.64,-208.7 680.64,4 -4,4"/>
<!-- Agent X -->
<g id="node1" class="node">
<title>Agent X</title>
<polygon fill="lightgray" stroke="black" points="493.98,-144.95 447.23,-144.95 447.23,-126.45 493.98,-126.45 493.98,-144.95"/>
<text xml:space="preserve" text-anchor="middle" x="470.6" y="-132.4" font-family="Times,serif" font-size="9.00">Agent X</text>
</g>
<!-- Left Wheel -->
<g id="node13" class="node">
<title>Left Wheel</title>
<ellipse fill="lightblue" stroke="black" cx="293.6" cy="-42.6" rx="38.89" ry="38.89"/>
<text xml:space="preserve" text-anchor="middle" x="293.6" y="-39.3" font-family="Times,serif" font-size="9.00">Left Wheel</text>
</g>
<!-- Agent X&#45;&gt;Left Wheel -->
<g id="edge1" class="edge">
<title>Agent X&#45;&gt;Left Wheel</title>
<path fill="none" stroke="green" stroke-width="0.33" d="M450.19,-126.01C428.43,-116.57 393.12,-100.75 363.6,-85.21 354.31,-80.31 344.53,-74.76 335.31,-69.34"/>
<polygon fill="green" stroke="green" stroke-width="0.33" points="337.13,-66.35 326.75,-64.25 333.55,-72.37 337.13,-66.35"/>
</g>
<!-- Right Wheel -->
<g id="node14" class="node">
<title>Right Wheel</title>
<ellipse fill="lightblue" stroke="black" cx="415.6" cy="-42.6" rx="42.6" ry="42.6"/>
<text xml:space="preserve" text-anchor="middle" x="415.6" y="-39.3" font-family="Times,serif" font-size="9.00">Right Wheel</text>
</g>
<!-- Agent X&#45;&gt;Right Wheel -->
<g id="edge2" class="edge">
<title>Agent X&#45;&gt;Right Wheel</title>
<path fill="none" stroke="red" stroke-width="0.18" d="M465.33,-125.97C459.93,-117.03 451.13,-102.45 442.42,-88.03"/>
<polygon fill="red" stroke="red" stroke-width="0.18" points="445.64,-86.58 437.47,-79.83 439.65,-90.2 445.64,-86.58"/>
</g>
<!-- Agent Z -->
<g id="node2" class="node">
<title>Agent Z</title>
<polygon fill="lightgray" stroke="black" points="557.23,-144.95 511.98,-144.95 511.98,-126.45 557.23,-126.45 557.23,-144.95"/>
<text xml:space="preserve" text-anchor="middle" x="534.6" y="-132.4" font-family="Times,serif" font-size="9.00">Agent Z</text>
</g>
<!-- Agent Z&#45;&gt;Left Wheel -->
<g id="edge3" class="edge">
<title>Agent Z&#45;&gt;Left Wheel</title>
<path fill="none" stroke="green" stroke-width="0.65" d="M515.15,-125.96C511.04,-124.27 506.71,-122.6 502.6,-121.21 442.15,-100.75 422.51,-109.75 363.6,-85.21 354.01,-81.21 344.16,-76.08 334.99,-70.8"/>
<polygon fill="green" stroke="green" stroke-width="0.65" points="336.94,-67.89 326.56,-65.78 333.36,-73.9 336.94,-67.89"/>
</g>
<!-- Agent Z&#45;&gt;Right Wheel -->
<g id="edge4" class="edge">
<title>Agent Z&#45;&gt;Right Wheel</title>
<path fill="none" stroke="red" stroke-width="0.11" d="M523.19,-125.97C508.1,-114.41 480.68,-93.42 457.3,-75.53"/>
<polygon fill="red" stroke="red" stroke-width="0.11" points="459.43,-72.75 449.37,-69.45 455.18,-78.31 459.43,-72.75"/>
</g>
<!-- Target X -->
<g id="node3" class="node">
<title>Target X</title>
<polygon fill="lightgray" stroke="black" points="622.35,-144.95 574.85,-144.95 574.85,-126.45 622.35,-126.45 622.35,-144.95"/>
<text xml:space="preserve" text-anchor="middle" x="598.6" y="-132.4" font-family="Times,serif" font-size="9.00">Target X</text>
</g>
<!-- Target X&#45;&gt;Left Wheel -->
<g id="edge5" class="edge">
<title>Target X&#45;&gt;Left Wheel</title>
<path fill="none" stroke="red" stroke-width="0.18" d="M579.91,-125.99C575.6,-124.22 571,-122.5 566.6,-121.21 478.73,-95.24 449.49,-117.13 363.6,-85.21 353.56,-81.47 343.33,-76.31 333.9,-70.88"/>
<polygon fill="red" stroke="red" stroke-width="0.18" points="335.75,-67.91 325.37,-65.77 332.16,-73.91 335.75,-67.91"/>
</g>
<!-- Target X&#45;&gt;Right Wheel -->
<g id="edge6" class="edge">
<title>Target X&#45;&gt;Right Wheel</title>
<path fill="none" stroke="green" stroke-width="0.91" d="M581.06,-125.97C554.28,-112.64 502.28,-86.75 463.69,-67.54"/>
<polygon fill="green" stroke="green" stroke-width="0.91" points="465.45,-64.51 454.93,-63.18 462.33,-70.77 465.45,-64.51"/>
</g>
<!-- Target Z -->
<g id="node4" class="node">
<title>Target Z</title>
<polygon fill="lightgray" stroke="black" points="60.6,-144.95 14.6,-144.95 14.6,-126.45 60.6,-126.45 60.6,-144.95"/>
<text xml:space="preserve" text-anchor="middle" x="37.6" y="-132.4" font-family="Times,serif" font-size="9.00">Target Z</text>
</g>
<!-- Target Z&#45;&gt;Left Wheel -->
<g id="edge7" class="edge">
<title>Target Z&#45;&gt;Left Wheel</title>
<path fill="none" stroke="green" stroke-width="0.25" d="M57.49,-126.08C61.48,-124.41 65.66,-122.72 69.6,-121.21 130.28,-97.93 201.33,-73.84 246.87,-58.8"/>
<polygon fill="green" stroke="green" stroke-width="0.25" points="247.71,-62.21 256.11,-55.76 245.52,-55.56 247.71,-62.21"/>
</g>
<!-- Blob Visible -->
<g id="node5" class="node">
<title>Blob Visible</title>
<polygon fill="lightgray" stroke="black" points="451.73,-204.7 391.48,-204.7 391.48,-186.2 451.73,-186.2 451.73,-204.7"/>
<text xml:space="preserve" text-anchor="middle" x="421.6" y="-192.15" font-family="Times,serif" font-size="9.00">Blob Visible</text>
</g>
<!-- Blob Visible&#45;&gt;Right Wheel -->
<g id="edge8" class="edge">
<title>Blob Visible&#45;&gt;Right Wheel</title>
<path fill="none" stroke="green" stroke-width="0.27" d="M451.86,-193.58C510.85,-191.17 637.82,-182.3 664.6,-150.2 721.76,-81.69 557.41,-56.18 468.5,-47.56"/>
<polygon fill="green" stroke="green" stroke-width="0.27" points="469,-44.09 458.71,-46.65 468.35,-51.06 469,-44.09"/>
</g>
<!-- 9 -->
<g id="node15" class="node">
<title>9</title>
<ellipse fill="white" stroke="black" cx="92.6" cy="-135.7" rx="14.5" ry="14.5"/>
<text xml:space="preserve" text-anchor="middle" x="92.6" y="-132.4" font-family="Times,serif" font-size="9.00">9</text>
</g>
<!-- Blob Visible&#45;&gt;9 -->
<g id="edge23" class="edge">
<title>Blob Visible&#45;&gt;9</title>
<path fill="none" stroke="green" stroke-width="0.32" d="M391.31,-193.71C335.51,-191.56 213.34,-183.14 116.6,-150.2 115.56,-149.84 114.51,-149.44 113.47,-149.01"/>
<polygon fill="green" stroke="green" stroke-width="0.32" points="115.34,-146.03 104.84,-144.69 112.21,-152.29 115.34,-146.03"/>
</g>
<!-- Blob X -->
<g id="node6" class="node">
<title>Blob X</title>
<polygon fill="lightgray" stroke="black" points="167.73,-144.95 125.48,-144.95 125.48,-126.45 167.73,-126.45 167.73,-144.95"/>
<text xml:space="preserve" text-anchor="middle" x="146.6" y="-132.4" font-family="Times,serif" font-size="9.00">Blob X</text>
</g>
<!-- Blob X&#45;&gt;Left Wheel -->
<g id="edge9" class="edge">
<title>Blob X&#45;&gt;Left Wheel</title>
<path fill="none" stroke="red" stroke-width="0.3" d="M160.7,-125.97C181.5,-113.08 221.25,-88.44 251.88,-69.46"/>
<polygon fill="red" stroke="red" stroke-width="0.3" points="253.61,-72.5 260.27,-64.26 249.93,-66.55 253.61,-72.5"/>
</g>
<!-- Blob X&#45;&gt;Right Wheel -->
<g id="edge10" class="edge">
<title>Blob X&#45;&gt;Right Wheel</title>
<path fill="none" stroke="green" stroke-width="0.28" d="M164.13,-126.09C168.16,-124.31 172.48,-122.57 176.6,-121.21 247.88,-97.68 271.45,-111.89 341.6,-85.21 351.52,-81.43 361.71,-76.49 371.24,-71.34"/>
<polygon fill="green" stroke="green" stroke-width="0.28" points="372.75,-74.51 379.77,-66.57 369.33,-68.4 372.75,-74.51"/>
</g>
<!-- Blob Y -->
<g id="node7" class="node">
<title>Blob Y</title>
<polygon fill="lightgray" stroke="black" points="227.35,-144.95 185.85,-144.95 185.85,-126.45 227.35,-126.45 227.35,-144.95"/>
<text xml:space="preserve" text-anchor="middle" x="206.6" y="-132.4" font-family="Times,serif" font-size="9.00">Blob Y</text>
</g>
<!-- Blob Y&#45;&gt;Left Wheel -->
<g id="edge11" class="edge">
<title>Blob Y&#45;&gt;Left Wheel</title>
<path fill="none" stroke="red" stroke-width="0.7" d="M214.94,-125.97C225.27,-115.15 243.49,-96.07 259.8,-79"/>
<polygon fill="red" stroke="red" stroke-width="0.7" points="262.01,-81.75 266.39,-72.1 256.95,-76.91 262.01,-81.75"/>
</g>
<!-- Blob Y&#45;&gt;Right Wheel -->
<g id="edge12" class="edge">
<title>Blob Y&#45;&gt;Right Wheel</title>
<path fill="none" stroke="red" stroke-width="0.24" d="M225.21,-126.01C228.96,-124.35 232.88,-122.68 236.6,-121.21 282.48,-103.07 296.58,-105.38 341.6,-85.21 351.18,-80.91 361.16,-75.79 370.58,-70.63"/>
<polygon fill="red" stroke="red" stroke-width="0.24" points="372.06,-73.81 379.07,-65.87 368.64,-67.7 372.06,-73.81"/>
</g>
<!-- Blob Size -->
<g id="node8" class="node">
<title>Blob Size</title>
<polygon fill="lightgray" stroke="black" points="295.85,-144.95 245.35,-144.95 245.35,-126.45 295.85,-126.45 295.85,-144.95"/>
<text xml:space="preserve" text-anchor="middle" x="270.6" y="-132.4" font-family="Times,serif" font-size="9.00">Blob Size</text>
</g>
<!-- Blob Size&#45;&gt;Left Wheel -->
<g id="edge13" class="edge">
<title>Blob Size&#45;&gt;Left Wheel</title>
<path fill="none" stroke="green" stroke-width="0.3" d="M272.81,-125.97C274.94,-117.51 278.36,-104 281.8,-90.34"/>
<polygon fill="green" stroke="green" stroke-width="0.3" points="285.14,-91.44 284.19,-80.88 278.35,-89.72 285.14,-91.44"/>
</g>
<!-- Blob Size&#45;&gt;Right Wheel -->
<g id="edge14" class="edge">
<title>Blob Size&#45;&gt;Right Wheel</title>
<path fill="none" stroke="red" stroke-width="0.22" d="M284.51,-125.97C304.31,-113.52 341.54,-90.13 371.28,-71.45"/>
<polygon fill="red" stroke="red" stroke-width="0.22" points="372.96,-74.52 379.57,-66.24 369.24,-68.6 372.96,-74.52"/>
</g>
<!-- &#45;9 -->
<g id="node9" class="node">
<title>&#45;9</title>
<polygon fill="lightgray" stroke="black" points="337.35,-144.95 313.85,-144.95 313.85,-126.45 337.35,-126.45 337.35,-144.95"/>
<text xml:space="preserve" text-anchor="middle" x="325.6" y="-132.4" font-family="Times,serif" font-size="9.00">&#45;9</text>
</g>
<!-- &#45;9&#45;&gt;Left Wheel -->
<g id="edge15" class="edge">
<title>&#45;9&#45;&gt;Left Wheel</title>
<path fill="none" stroke="red" stroke-width="0.12" d="M322.53,-125.97C319.45,-117.2 314.47,-103 309.49,-88.83"/>
<polygon fill="red" stroke="red" stroke-width="0.12" points="312.92,-88.03 306.3,-79.76 306.31,-90.35 312.92,-88.03"/>
</g>
<!-- &#45;9&#45;&gt;Right Wheel -->
<g id="edge16" class="edge">
<title>&#45;9&#45;&gt;Right Wheel</title>
<path fill="none" stroke="green" stroke-width="0.18" d="M334.23,-125.97C344.63,-115.45 362.75,-97.1 379.26,-80.39"/>
<polygon fill="green" stroke="green" stroke-width="0.18" points="381.49,-83.11 386.03,-73.54 376.51,-78.19 381.49,-83.11"/>
</g>
<!-- &#45;10 -->
<g id="node10" class="node">
<title>&#45;10</title>
<polygon fill="lightgray" stroke="black" points="106.6,-204.7 78.6,-204.7 78.6,-186.2 106.6,-186.2 106.6,-204.7"/>
<text xml:space="preserve" text-anchor="middle" x="92.6" y="-192.15" font-family="Times,serif" font-size="9.00">&#45;10</text>
</g>
<!-- &#45;10&#45;&gt;Left Wheel -->
<g id="edge17" class="edge">
<title>&#45;10&#45;&gt;Left Wheel</title>
<path fill="none" stroke="green" stroke-width="0.3" d="M78.37,-191.94C58.08,-187.51 21.55,-176.2 5.6,-150.2 -1.13,-139.21 -2.23,-131.43 5.6,-121.21 34.55,-83.42 170.46,-59.88 244.77,-49.62"/>
<polygon fill="green" stroke="green" stroke-width="0.3" points="244.94,-53.13 254.38,-48.32 244,-46.19 244.94,-53.13"/>
</g>
<!-- &#45;10&#45;&gt;Right Wheel -->
<g id="edge18" class="edge">
<title>&#45;10&#45;&gt;Right Wheel</title>
<path fill="none" stroke="red" stroke-width="0.4" d="M107.04,-193.81C190.98,-190.04 613.27,-170.09 631.6,-150.2 684.01,-93.32 547.96,-62.99 468.4,-50.53"/>
<polygon fill="red" stroke="red" stroke-width="0.4" points="469.05,-47.09 458.64,-49.05 468,-54.01 469.05,-47.09"/>
</g>
<!-- &#45;10&#45;&gt;9 -->
<g id="edge25" class="edge">
<title>&#45;10&#45;&gt;9</title>
<path fill="none" stroke="green" stroke-width="0.39" d="M92.6,-185.93C92.6,-179.33 92.6,-169.83 92.6,-160.95"/>
<polygon fill="green" stroke="green" stroke-width="0.39" points="96.1,-161.23 92.6,-151.23 89.1,-161.23 96.1,-161.23"/>
</g>
<!-- &#45;11 -->
<g id="node11" class="node">
<title>&#45;11</title>
<polygon fill="lightgray" stroke="black" points="383.6,-144.95 355.6,-144.95 355.6,-126.45 383.6,-126.45 383.6,-144.95"/>
<text xml:space="preserve" text-anchor="middle" x="369.6" y="-132.4" font-family="Times,serif" font-size="9.00">&#45;11</text>
</g>
<!-- &#45;11&#45;&gt;Left Wheel -->
<g id="edge19" class="edge">
<title>&#45;11&#45;&gt;Left Wheel</title>
<path fill="none" stroke="green" stroke-width="0.1" d="M362.32,-125.97C353.55,-115.46 338.28,-97.16 324.36,-80.47"/>
<polygon fill="green" stroke="green" stroke-width="0.1" points="327.27,-78.5 318.18,-73.06 321.9,-82.99 327.27,-78.5"/>
</g>
<!-- &#45;11&#45;&gt;Right Wheel -->
<g id="edge20" class="edge">
<title>&#45;11&#45;&gt;Right Wheel</title>
<path fill="none" stroke="red" stroke-width="0.23" d="M374.01,-125.97C378.33,-117.42 385.26,-103.7 392.23,-89.9"/>
<polygon fill="red" stroke="red" stroke-width="0.23" points="395.25,-91.68 396.63,-81.17 389,-88.52 395.25,-91.68"/>
</g>
<!-- &#45;12 -->
<g id="node12" class="node">
<title>&#45;12</title>
<polygon fill="lightgray" stroke="black" points="429.6,-144.95 401.6,-144.95 401.6,-126.45 429.6,-126.45 429.6,-144.95"/>
<text xml:space="preserve" text-anchor="middle" x="415.6" y="-132.4" font-family="Times,serif" font-size="9.00">&#45;12</text>
</g>
<!-- &#45;12&#45;&gt;Left Wheel -->
<g id="edge21" class="edge">
<title>&#45;12&#45;&gt;Left Wheel</title>
<path fill="none" stroke="red" stroke-width="0.12" d="M403.9,-125.97C387.62,-113.8 357.32,-91.18 332.59,-72.72"/>
<polygon fill="red" stroke="red" stroke-width="0.12" points="334.7,-69.93 324.6,-66.75 330.52,-75.53 334.7,-69.93"/>
</g>
<!-- &#45;12&#45;&gt;Right Wheel -->
<g id="edge22" class="edge">
<title>&#45;12&#45;&gt;Right Wheel</title>
<path fill="none" stroke="red" stroke-width="0.73" d="M415.6,-125.97C415.6,-118.81 415.6,-108.04 415.6,-96.62"/>
<polygon fill="red" stroke="red" stroke-width="0.73" points="419.1,-96.68 415.6,-86.68 412.1,-96.68 419.1,-96.68"/>
</g>
<!-- 9&#45;&gt;Left Wheel -->
<g id="edge24" class="edge">
<title>9&#45;&gt;Left Wheel</title>
<path fill="none" stroke="green" stroke-width="0.49" d="M104.69,-127.6C108.46,-125.46 112.67,-123.17 116.6,-121.21 160.38,-99.37 211.7,-77.24 247.77,-62.23"/>
<polygon fill="green" stroke="green" stroke-width="0.49" points="248.94,-65.53 256.84,-58.47 246.26,-59.06 248.94,-65.53"/>
</g>
</g>
</svg>
