<?xml version="1.0" encoding="UTF-8" standalone="no"?>
<!DOCTYPE svg PUBLIC "-//W3C//DTD SVG 1.1//EN"
 "http://www.w3.org/Graphics/SVG/1.1/DTD/svg11.dtd">
<!-- Generated by graphviz version 14.0.2 (20251019.1705)
 -->
<!-- Pages: 1 -->
<svg width="693pt" height="148pt"
 viewBox="0.00 0.00 693.00 148.00" xmlns="http://www.w3.org/2000/svg" xmlns:xlink="http://www.w3.org/1999/xlink">
<g id="graph0" class="graph" transform="scale(1 1) rotate(0) translate(4 143.71)">
<polygon fill="white" stroke="none" points="-4,4 -4,-143.71 689.25,-143.71 689.25,4 -4,4"/>
<!-- Agent X -->
<g id="node1" class="node">
<title>Agent X</title>
<polygon fill="lightgray" stroke="black" points="138.38,-139.71 91.62,-139.71 91.62,-121.21 138.38,-121.21 138.38,-139.71"/>
<text xml:space="preserve" text-anchor="middle" x="115" y="-127.16" font-family="Times,serif" font-size="9.00">Agent X</text>
</g>
<!-- Left Wheel -->
<g id="node13" class="node">
<title>Left Wheel</title>
<ellipse fill="lightblue" stroke="black" cx="379" cy="-42.6" rx="38.89" ry="38.89"/>
<text xml:space="preserve" text-anchor="middle" x="379" y="-39.3" font-family="Times,serif" font-size="9.00">Left Wheel</text>
</g>
<!-- Agent X&#45;&gt;Left Wheel -->
<g id="edge1" class="edge">
<title>Agent X&#45;&gt;Left Wheel</title>
<path fill="none" stroke="red" stroke-width="0.49" d="M138.73,-123.17C141.51,-122.48 144.31,-121.81 147,-121.21 228.7,-102.74 256.88,-122.27 332,-85.21 336.18,-83.14 340.28,-80.61 344.2,-77.82"/>
<polygon fill="red" stroke="red" stroke-width="0.49" points="346.14,-80.74 351.89,-71.84 341.84,-75.21 346.14,-80.74"/>
</g>
<!-- Right Wheel -->
<g id="node14" class="node">
<title>Right Wheel</title>
<ellipse fill="lightblue" stroke="black" cx="280" cy="-42.6" rx="42.6" ry="42.6"/>
<text xml:space="preserve" text-anchor="middle" x="280" y="-39.3" font-family="Times,serif" font-size="9.00">Right Wheel</text>
</g>
<!-- Agent X&#45;&gt;Right Wheel -->
<g id="edge2" class="edge">
<title>Agent X&#45;&gt;Right Wheel</title>
<path fill="none" stroke="red" stroke-width="0.46" d="M131.73,-120.75C155.32,-108.48 199.27,-85.61 233.22,-67.95"/>
<polygon fill="red" stroke="red" stroke-width="0.46" points="234.63,-71.15 241.89,-63.43 231.4,-64.95 234.63,-71.15"/>
</g>
<!-- Agent Z -->
<g id="node2" class="node">
<title>Agent Z</title>
<polygon fill="lightgray" stroke="black" points="201.62,-139.71 156.38,-139.71 156.38,-121.21 201.62,-121.21 201.62,-139.71"/>
<text xml:space="preserve" text-anchor="middle" x="179" y="-127.16" font-family="Times,serif" font-size="9.00">Agent Z</text>
</g>
<!-- Agent Z&#45;&gt;Left Wheel -->
<g id="edge3" class="edge">
<title>Agent Z&#45;&gt;Left Wheel</title>
<path fill="none" stroke="green" stroke-width="0.84" d="M201.82,-123.14C243.03,-111.7 326.19,-88.41 332,-85.21 335.81,-83.11 339.58,-80.65 343.22,-78"/>
<polygon fill="green" stroke="green" stroke-width="0.84" points="345.28,-80.84 350.97,-71.9 340.95,-75.34 345.28,-80.84"/>
</g>
<!-- Agent Z&#45;&gt;Right Wheel -->
<g id="edge4" class="edge">
<title>Agent Z&#45;&gt;Right Wheel</title>
<path fill="none" stroke="red" stroke-width="0.2" d="M189.05,-120.91C200.93,-110.82 221.42,-93.4 239.94,-77.65"/>
<polygon fill="red" stroke="red" stroke-width="0.2" points="242.14,-80.37 247.5,-71.23 237.61,-75.04 242.14,-80.37"/>
</g>
<!-- Target X -->
<g id="node3" class="node">
<title>Target X</title>
<polygon fill="lightgray" stroke="black" points="266.75,-139.71 219.25,-139.71 219.25,-121.21 266.75,-121.21 266.75,-139.71"/>
<text xml:space="preserve" text-anchor="middle" x="243" y="-127.16" font-family="Times,serif" font-size="9.00">Target X</text>
</g>
<!-- Target X&#45;&gt;Left Wheel -->
<g id="edge5" class="edge">
<title>Target X&#45;&gt;Left Wheel</title>
<path fill="none" stroke="green" stroke-width="0.19" d="M264.36,-120.74C282.95,-112.72 310.25,-99.86 332,-85.21 335.76,-82.67 339.54,-79.86 343.24,-76.93"/>
<polygon fill="green" stroke="green" stroke-width="0.19" points="345.45,-79.64 350.93,-70.57 340.99,-74.25 345.45,-79.64"/>
</g>
<!-- Target X&#45;&gt;Right Wheel -->
<g id="edge6" class="edge">
<title>Target X&#45;&gt;Right Wheel</title>
<path fill="none" stroke="green" stroke-width="0.68" d="M246.68,-120.91C249.74,-113.82 254.34,-103.13 259.17,-91.94"/>
<polygon fill="green" stroke="green" stroke-width="0.68" points="262.28,-93.57 263.02,-83 255.85,-90.8 262.28,-93.57"/>
</g>
<!-- Target Z -->
<g id="node4" class="node">
<title>Target Z</title>
<polygon fill="lightgray" stroke="black" points="331,-139.71 285,-139.71 285,-121.21 331,-121.21 331,-139.71"/>
<text xml:space="preserve" text-anchor="middle" x="308" y="-127.16" font-family="Times,serif" font-size="9.00">Target Z</text>
</g>
<!-- Target Z&#45;&gt;Left Wheel -->
<g id="edge7" class="edge">
<title>Target Z&#45;&gt;Left Wheel</title>
<path fill="none" stroke="green" stroke-width="0.27" d="M315.07,-120.91C322.83,-111.52 335.84,-95.79 348.1,-80.97"/>
<polygon fill="green" stroke="green" stroke-width="0.27" points="350.47,-83.59 354.15,-73.66 345.08,-79.13 350.47,-83.59"/>
</g>
<!-- Target Z&#45;&gt;Right Wheel -->
<g id="edge8" class="edge">
<title>Target Z&#45;&gt;Right Wheel</title>
<path fill="none" stroke="green" stroke-width="0.15" d="M305.21,-120.91C302.99,-114.09 299.67,-103.92 296.17,-93.18"/>
<polygon fill="green" stroke="green" stroke-width="0.15" points="299.57,-92.31 293.14,-83.89 292.91,-94.48 299.57,-92.31"/>
</g>
<!-- Blob Visible -->
<g id="node5" class="node">
<title>Blob Visible</title>
<polygon fill="lightgray" stroke="black" points="409.12,-139.71 348.88,-139.71 348.88,-121.21 409.12,-121.21 409.12,-139.71"/>
<text xml:space="preserve" text-anchor="middle" x="379" y="-127.16" font-family="Times,serif" font-size="9.00">Blob Visible</text>
</g>
<!-- Blob Visible&#45;&gt;Left Wheel -->
<g id="edge9" class="edge">
<title>Blob Visible&#45;&gt;Left Wheel</title>
<path fill="none" stroke="green" stroke-width="0.45" d="M379,-120.91C379,-113.9 379,-103.37 379,-92.31"/>
<polygon fill="green" stroke="green" stroke-width="0.45" points="382.5,-92.34 379,-82.34 375.5,-92.34 382.5,-92.34"/>
</g>
<!-- Blob Visible&#45;&gt;Right Wheel -->
<g id="edge10" class="edge">
<title>Blob Visible&#45;&gt;Right Wheel</title>
<path fill="none" stroke="red" stroke-width="0.43" d="M369.15,-120.91C357.51,-110.82 337.42,-93.4 319.27,-77.65"/>
<polygon fill="red" stroke="red" stroke-width="0.43" points="321.97,-75.37 312.12,-71.46 317.38,-80.65 321.97,-75.37"/>
</g>
<!-- Blob X -->
<g id="node6" class="node">
<title>Blob X</title>
<polygon fill="lightgray" stroke="black" points="469.12,-139.71 426.88,-139.71 426.88,-121.21 469.12,-121.21 469.12,-139.71"/>
<text xml:space="preserve" text-anchor="middle" x="448" y="-127.16" font-family="Times,serif" font-size="9.00">Blob X</text>
</g>
<!-- Blob X&#45;&gt;Left Wheel -->
<g id="edge11" class="edge">
<title>Blob X&#45;&gt;Left Wheel</title>
<path fill="none" stroke="green" stroke-width="0.5" d="M441.13,-120.91C433.65,-111.61 421.18,-96.08 409.36,-81.38"/>
<polygon fill="green" stroke="green" stroke-width="0.5" points="412.36,-79.53 403.37,-73.93 406.91,-83.91 412.36,-79.53"/>
</g>
<!-- Blob X&#45;&gt;Right Wheel -->
<g id="edge12" class="edge">
<title>Blob X&#45;&gt;Right Wheel</title>
<path fill="none" stroke="green" stroke-width="0.54" d="M426.8,-123.7C402.64,-116.63 362.42,-103.32 331,-85.21 327.37,-83.12 323.74,-80.77 320.18,-78.29"/>
<polygon fill="green" stroke="green" stroke-width="0.54" points="322.29,-75.5 312.16,-72.38 318.13,-81.13 322.29,-75.5"/>
</g>
<!-- Blob Y -->
<g id="node7" class="node">
<title>Blob Y</title>
<polygon fill="lightgray" stroke="black" points="528.75,-139.71 487.25,-139.71 487.25,-121.21 528.75,-121.21 528.75,-139.71"/>
<text xml:space="preserve" text-anchor="middle" x="508" y="-127.16" font-family="Times,serif" font-size="9.00">Blob Y</text>
</g>
<!-- Blob Y&#45;&gt;Left Wheel -->
<g id="edge13" class="edge">
<title>Blob Y&#45;&gt;Left Wheel</title>
<path fill="none" stroke="green" stroke-width="0.37" d="M495.16,-120.91C477.7,-109.29 445.65,-87.96 419.64,-70.65"/>
<polygon fill="green" stroke="green" stroke-width="0.37" points="421.81,-67.89 411.54,-65.26 417.93,-73.72 421.81,-67.89"/>
</g>
<!-- Blob Y&#45;&gt;Right Wheel -->
<g id="edge14" class="edge">
<title>Blob Y&#45;&gt;Right Wheel</title>
<path fill="none" stroke="red" stroke-width="0.46" d="M487.04,-123.61C484.01,-122.79 480.93,-121.97 478,-121.21 412.9,-104.29 391.21,-115.2 331,-85.21 327.09,-83.26 323.21,-80.96 319.43,-78.47"/>
<polygon fill="red" stroke="red" stroke-width="0.46" points="321.61,-75.72 311.44,-72.76 317.54,-81.42 321.61,-75.72"/>
</g>
<!-- Blob Size -->
<g id="node8" class="node">
<title>Blob Size</title>
<polygon fill="lightgray" stroke="black" points="685.25,-139.71 634.75,-139.71 634.75,-121.21 685.25,-121.21 685.25,-139.71"/>
<text xml:space="preserve" text-anchor="middle" x="660" y="-127.16" font-family="Times,serif" font-size="9.00">Blob Size</text>
</g>
<!-- Blob Size&#45;&gt;Left Wheel -->
<g id="edge15" class="edge">
<title>Blob Size&#45;&gt;Left Wheel</title>
<path fill="none" stroke="red" stroke-width="0.14" d="M634.57,-121.69C587.34,-107.26 485.49,-76.14 425.6,-57.84"/>
<polygon fill="red" stroke="red" stroke-width="0.14" points="426.79,-54.55 416.21,-54.97 424.75,-61.24 426.79,-54.55"/>
</g>
<!-- &#45;9 -->
<g id="node9" class="node">
<title>&#45;9</title>
<polygon fill="lightgray" stroke="black" points="570.75,-139.71 547.25,-139.71 547.25,-121.21 570.75,-121.21 570.75,-139.71"/>
<text xml:space="preserve" text-anchor="middle" x="559" y="-127.16" font-family="Times,serif" font-size="9.00">&#45;9</text>
</g>
<!-- &#45;9&#45;&gt;Left Wheel -->
<g id="edge16" class="edge">
<title>&#45;9&#45;&gt;Left Wheel</title>
<path fill="none" stroke="green" stroke-width="0.24" d="M546.91,-123.69C522.05,-111.83 464.09,-84.19 423.25,-64.71"/>
<polygon fill="green" stroke="green" stroke-width="0.24" points="424.91,-61.62 414.38,-60.48 421.89,-67.94 424.91,-61.62"/>
</g>
<!-- &#45;9&#45;&gt;Right Wheel -->
<g id="edge17" class="edge">
<title>&#45;9&#45;&gt;Right Wheel</title>
<path fill="none" stroke="red" stroke-width="0.19" d="M547.15,-124.32C544.2,-123.17 541.02,-122.05 538,-121.21 448.08,-96.01 415.95,-123.98 331,-85.21 326.91,-83.34 322.88,-81.07 318.98,-78.56"/>
<polygon fill="red" stroke="red" stroke-width="0.19" points="321.11,-75.78 310.92,-72.9 317.1,-81.51 321.11,-75.78"/>
</g>
<!-- &#45;10 -->
<g id="node10" class="node">
<title>&#45;10</title>
<polygon fill="lightgray" stroke="black" points="617,-139.71 589,-139.71 589,-121.21 617,-121.21 617,-139.71"/>
<text xml:space="preserve" text-anchor="middle" x="603" y="-127.16" font-family="Times,serif" font-size="9.00">&#45;10</text>
</g>
<!-- &#45;10&#45;&gt;Left Wheel -->
<g id="edge18" class="edge">
<title>&#45;10&#45;&gt;Left Wheel</title>
<path fill="none" stroke="green" stroke-width="0.14" d="M588.65,-123.96C556.17,-111.51 475.9,-80.74 424.64,-61.09"/>
<polygon fill="green" stroke="green" stroke-width="0.14" points="425.9,-57.83 415.31,-57.52 423.39,-64.37 425.9,-57.83"/>
</g>
<!-- &#45;10&#45;&gt;Right Wheel -->
<g id="edge19" class="edge">
<title>&#45;10&#45;&gt;Right Wheel</title>
<path fill="none" stroke="green" stroke-width="0.72" d="M588.54,-123.77C585.73,-122.81 582.8,-121.9 580,-121.21 471.49,-94.19 433.37,-130.18 331,-85.21 327.11,-83.5 323.27,-81.41 319.56,-79.08"/>
<polygon fill="green" stroke="green" stroke-width="0.72" points="321.72,-76.32 311.5,-73.52 317.74,-82.08 321.72,-76.32"/>
</g>
<!-- &#45;11 -->
<g id="node11" class="node">
<title>&#45;11</title>
<polygon fill="lightgray" stroke="black" points="28,-139.71 0,-139.71 0,-121.21 28,-121.21 28,-139.71"/>
<text xml:space="preserve" text-anchor="middle" x="14" y="-127.16" font-family="Times,serif" font-size="9.00">&#45;11</text>
</g>
<!-- &#45;11&#45;&gt;Left Wheel -->
<g id="edge20" class="edge">
<title>&#45;11&#45;&gt;Left Wheel</title>
<path fill="none" stroke="red" stroke-width="0.63" d="M28.45,-123.72C31.25,-122.77 34.19,-121.87 37,-121.21 165.52,-90.72 211.56,-139.43 332,-85.21 336.14,-83.34 340.17,-80.99 344.03,-78.35"/>
<polygon fill="red" stroke="red" stroke-width="0.63" points="346.06,-81.19 351.9,-72.35 341.82,-75.63 346.06,-81.19"/>
</g>
<!-- &#45;11&#45;&gt;Right Wheel -->
<g id="edge21" class="edge">
<title>&#45;11&#45;&gt;Right Wheel</title>
<path fill="none" stroke="green" stroke-width="0.61" d="M28.08,-124.32C31.02,-123.27 34.11,-122.19 37,-121.21 103.04,-98.83 179.76,-74.62 229.05,-59.3"/>
<polygon fill="green" stroke="green" stroke-width="0.61" points="230.04,-62.66 238.55,-56.35 227.96,-55.97 230.04,-62.66"/>
</g>
<!-- &#45;12 -->
<g id="node12" class="node">
<title>&#45;12</title>
<polygon fill="lightgray" stroke="black" points="74,-139.71 46,-139.71 46,-121.21 74,-121.21 74,-139.71"/>
<text xml:space="preserve" text-anchor="middle" x="60" y="-127.16" font-family="Times,serif" font-size="9.00">&#45;12</text>
</g>
<!-- &#45;12&#45;&gt;Left Wheel -->
<g id="edge22" class="edge">
<title>&#45;12&#45;&gt;Left Wheel</title>
<path fill="none" stroke="green" stroke-width="0.13" d="M74.46,-123.77C77.27,-122.81 80.2,-121.9 83,-121.21 191.51,-94.19 230.55,-132.23 332,-85.21 336.34,-83.19 340.58,-80.64 344.62,-77.81"/>
<polygon fill="green" stroke="green" stroke-width="0.13" points="346.66,-80.65 352.44,-71.77 342.39,-75.11 346.66,-80.65"/>
</g>
<!-- &#45;12&#45;&gt;Right Wheel -->
<g id="edge23" class="edge">
<title>&#45;12&#45;&gt;Right Wheel</title>
<path fill="none" stroke="green" stroke-width="0.66" d="M74.43,-123.82C105.56,-111.68 180.22,-82.54 230.46,-62.93"/>
<polygon fill="green" stroke="green" stroke-width="0.66" points="231.5,-66.29 239.55,-59.39 228.96,-59.76 231.5,-66.29"/>
</g>
</g>
</svg>
