<?xml version="1.0" encoding="UTF-8" standalone="no"?>
<!DOCTYPE svg PUBLIC "-//W3C//DTD SVG 1.1//EN"
 "http://www.w3.org/Graphics/SVG/1.1/DTD/svg11.dtd">
<!-- Generated by graphviz version 14.0.2 (20251019.1705)
 -->
<!-- Pages: 1 -->
<svg width="452pt" height="326pt"
 viewBox="0.00 0.00 452.00 326.00" xmlns="http://www.w3.org/2000/svg" xmlns:xlink="http://www.w3.org/1999/xlink">
<g id="graph0" class="graph" transform="scale(1 1) rotate(0) translate(4 322.48)">
<polygon fill="white" stroke="none" points="-4,4 -4,-322.48 447.62,-322.48 447.62,4 -4,4"/>
<!-- Agent X -->
<g id="node1" class="node">
<title>Agent X</title>
<polygon fill="lightgray" stroke="black" points="170,-234.34 123.25,-234.34 123.25,-215.84 170,-215.84 170,-234.34"/>
<text xml:space="preserve" text-anchor="middle" x="146.62" y="-221.79" font-family="Times,serif" font-size="9.00">Agent X</text>
</g>
<!-- 6 -->
<g id="node11" class="node">
<title>6</title>
<ellipse fill="white" stroke="black" cx="226.62" cy="-135.7" rx="14.5" ry="14.5"/>
<text xml:space="preserve" text-anchor="middle" x="226.62" y="-132.4" font-family="Times,serif" font-size="9.00">6</text>
</g>
<!-- Agent X&#45;&gt;6 -->
<g id="edge14" class="edge">
<title>Agent X&#45;&gt;6</title>
<path fill="none" stroke="green" stroke-width="0.17" d="M153.58,-215.52C159.95,-207.74 169.73,-196.03 178.62,-186.2 188.54,-175.24 200.05,-163.35 209.32,-153.96"/>
<polygon fill="green" stroke="green" stroke-width="0.17" points="211.74,-156.49 216.31,-146.93 206.78,-151.55 211.74,-156.49"/>
</g>
<!-- Agent Z -->
<g id="node2" class="node">
<title>Agent Z</title>
<polygon fill="lightgray" stroke="black" points="45.25,-318.48 0,-318.48 0,-299.98 45.25,-299.98 45.25,-318.48"/>
<text xml:space="preserve" text-anchor="middle" x="22.62" y="-305.93" font-family="Times,serif" font-size="9.00">Agent Z</text>
</g>
<!-- Left Wheel -->
<g id="node9" class="node">
<title>Left Wheel</title>
<ellipse fill="lightblue" stroke="black" cx="226.62" cy="-225.09" rx="38.89" ry="38.89"/>
<text xml:space="preserve" text-anchor="middle" x="226.62" y="-221.79" font-family="Times,serif" font-size="9.00">Left Wheel</text>
</g>
<!-- Agent Z&#45;&gt;Left Wheel -->
<g id="edge1" class="edge">
<title>Agent Z&#45;&gt;Left Wheel</title>
<path fill="none" stroke="red" stroke-width="0.14" d="M45.69,-302.22C86.13,-291.6 166.69,-270.08 178.62,-263.98 182.35,-262.08 186.06,-259.86 189.68,-257.48"/>
<polygon fill="red" stroke="red" stroke-width="0.14" points="191.59,-260.42 197.74,-251.8 187.55,-254.7 191.59,-260.42"/>
</g>
<!-- Right Wheel -->
<g id="node10" class="node">
<title>Right Wheel</title>
<ellipse fill="lightblue" stroke="black" cx="259.62" cy="-42.6" rx="42.6" ry="42.6"/>
<text xml:space="preserve" text-anchor="middle" x="259.62" y="-39.3" font-family="Times,serif" font-size="9.00">Right Wheel</text>
</g>
<!-- Agent Z&#45;&gt;Right Wheel -->
<g id="edge2" class="edge">
<title>Agent Z&#45;&gt;Right Wheel</title>
<path fill="none" stroke="red" stroke-width="0.11" d="M24.45,-299.65C30.95,-270.9 55.49,-176.71 108.62,-121.21 136.36,-92.23 177.27,-72.14 209.51,-59.66"/>
<polygon fill="red" stroke="red" stroke-width="0.11" points="210.49,-63.03 218.63,-56.25 208.04,-56.48 210.49,-63.03"/>
</g>
<!-- Target X -->
<g id="node3" class="node">
<title>Target X</title>
<polygon fill="lightgray" stroke="black" points="111.38,-318.48 63.88,-318.48 63.88,-299.98 111.38,-299.98 111.38,-318.48"/>
<text xml:space="preserve" text-anchor="middle" x="87.62" y="-305.93" font-family="Times,serif" font-size="9.00">Target X</text>
</g>
<!-- Target X&#45;&gt;Left Wheel -->
<g id="edge3" class="edge">
<title>Target X&#45;&gt;Left Wheel</title>
<path fill="none" stroke="green" stroke-width="1.15" d="M108.54,-299.6C127.43,-291.45 155.71,-278.36 178.62,-263.98 181.73,-262.03 184.87,-259.92 187.97,-257.73"/>
<polygon fill="green" stroke="green" stroke-width="1.15" points="189.77,-260.76 195.74,-252 185.61,-255.12 189.77,-260.76"/>
</g>
<!-- Target X&#45;&gt;Right Wheel -->
<g id="edge4" class="edge">
<title>Target X&#45;&gt;Right Wheel</title>
<path fill="none" stroke="green" stroke-width="0.24" d="M86.97,-299.87C85.2,-271.05 83.29,-174.63 131.62,-121.21 153.62,-96.9 185.01,-77.71 211.2,-64.49"/>
<polygon fill="green" stroke="green" stroke-width="0.24" points="212.46,-67.77 219.9,-60.22 209.38,-61.48 212.46,-67.77"/>
</g>
<!-- Target Z -->
<g id="node4" class="node">
<title>Target Z</title>
<polygon fill="lightgray" stroke="black" points="443.62,-144.95 397.62,-144.95 397.62,-126.45 443.62,-126.45 443.62,-144.95"/>
<text xml:space="preserve" text-anchor="middle" x="420.62" y="-132.4" font-family="Times,serif" font-size="9.00">Target Z</text>
</g>
<!-- Target Z&#45;&gt;Right Wheel -->
<g id="edge5" class="edge">
<title>Target Z&#45;&gt;Right Wheel</title>
<path fill="none" stroke="red" stroke-width="0.33" d="M405.19,-125.97C382.43,-113.09 338.95,-88.49 305.41,-69.51"/>
<polygon fill="red" stroke="red" stroke-width="0.33" points="307.55,-66.7 297.12,-64.82 304.1,-72.79 307.55,-66.7"/>
</g>
<!-- Blob Visible -->
<g id="node5" class="node">
<title>Blob Visible</title>
<polygon fill="lightgray" stroke="black" points="189.75,-318.48 129.5,-318.48 129.5,-299.98 189.75,-299.98 189.75,-318.48"/>
<text xml:space="preserve" text-anchor="middle" x="159.62" y="-305.93" font-family="Times,serif" font-size="9.00">Blob Visible</text>
</g>
<!-- Blob Visible&#45;&gt;Left Wheel -->
<g id="edge6" class="edge">
<title>Blob Visible&#45;&gt;Left Wheel</title>
<path fill="none" stroke="red" stroke-width="0.23" d="M166.54,-299.75C173.59,-291.11 185,-277.11 196.01,-263.63"/>
<polygon fill="red" stroke="red" stroke-width="0.23" points="198.57,-266.03 202.17,-256.06 193.14,-261.6 198.57,-266.03"/>
</g>
<!-- Blob Visible&#45;&gt;Right Wheel -->
<g id="edge7" class="edge">
<title>Blob Visible&#45;&gt;Right Wheel</title>
<path fill="none" stroke="red" stroke-width="0.63" d="M146.14,-299.55C135.34,-291.72 120.98,-279.14 114.62,-263.98 101.26,-232.1 101.26,-218.08 114.62,-186.2 134.88,-137.87 180.39,-97.65 215.06,-72.38"/>
<polygon fill="red" stroke="red" stroke-width="0.63" points="216.72,-75.49 222.84,-66.84 212.66,-69.79 216.72,-75.49"/>
</g>
<!-- Blob X -->
<g id="node6" class="node">
<title>Blob X</title>
<polygon fill="lightgray" stroke="black" points="249.75,-318.48 207.5,-318.48 207.5,-299.98 249.75,-299.98 249.75,-318.48"/>
<text xml:space="preserve" text-anchor="middle" x="228.62" y="-305.93" font-family="Times,serif" font-size="9.00">Blob X</text>
</g>
<!-- Blob X&#45;&gt;Left Wheel -->
<g id="edge8" class="edge">
<title>Blob X&#45;&gt;Left Wheel</title>
<path fill="none" stroke="red" stroke-width="0.5" d="M228.42,-299.75C228.27,-293.49 228.04,-284.41 227.81,-274.74"/>
<polygon fill="red" stroke="red" stroke-width="0.5" points="231.31,-274.81 227.57,-264.89 224.31,-274.98 231.31,-274.81"/>
</g>
<!-- Blob X&#45;&gt;Right Wheel -->
<g id="edge9" class="edge">
<title>Blob X&#45;&gt;Right Wheel</title>
<path fill="none" stroke="red" stroke-width="0.23" d="M242.41,-299.62C253.44,-291.84 268.12,-279.27 274.62,-263.98 298.06,-208.92 287.35,-139.1 275.42,-92.97"/>
<polygon fill="red" stroke="red" stroke-width="0.23" points="278.86,-92.29 272.87,-83.54 272.1,-94.11 278.86,-92.29"/>
</g>
<!-- Blob Y -->
<g id="node7" class="node">
<title>Blob Y</title>
<polygon fill="lightgray" stroke="black" points="318.38,-318.48 276.88,-318.48 276.88,-299.98 318.38,-299.98 318.38,-318.48"/>
<text xml:space="preserve" text-anchor="middle" x="297.62" y="-305.93" font-family="Times,serif" font-size="9.00">Blob Y</text>
</g>
<!-- Blob Y&#45;&gt;Left Wheel -->
<g id="edge10" class="edge">
<title>Blob Y&#45;&gt;Left Wheel</title>
<path fill="none" stroke="green" stroke-width="0.16" d="M290.29,-299.75C282.64,-290.89 270.11,-276.4 258.19,-262.6"/>
<polygon fill="green" stroke="green" stroke-width="0.16" points="261,-260.51 251.81,-255.23 255.7,-265.08 261,-260.51"/>
</g>
<!-- Blob Y&#45;&gt;Right Wheel -->
<g id="edge11" class="edge">
<title>Blob Y&#45;&gt;Right Wheel</title>
<path fill="none" stroke="green" stroke-width="0.11" d="M299,-299.5C302.97,-272.52 313.16,-188.26 297.62,-121.21 295.06,-110.13 290.68,-98.81 285.79,-88.36"/>
<polygon fill="green" stroke="green" stroke-width="0.11" points="289.02,-87 281.46,-79.58 282.74,-90.09 289.02,-87"/>
</g>
<!-- Blob Size -->
<g id="node8" class="node">
<title>Blob Size</title>
<polygon fill="lightgray" stroke="black" points="391.88,-318.48 341.38,-318.48 341.38,-299.98 391.88,-299.98 391.88,-318.48"/>
<text xml:space="preserve" text-anchor="middle" x="366.62" y="-305.93" font-family="Times,serif" font-size="9.00">Blob Size</text>
</g>
<!-- Blob Size&#45;&gt;Left Wheel -->
<g id="edge12" class="edge">
<title>Blob Size&#45;&gt;Left Wheel</title>
<path fill="none" stroke="green" stroke-width="0.24" d="M351.91,-299.59C332.4,-288.15 297.15,-267.47 269.01,-250.95"/>
<polygon fill="green" stroke="green" stroke-width="0.24" points="270.86,-247.98 260.46,-245.94 267.32,-254.02 270.86,-247.98"/>
</g>
<!-- Blob Size&#45;&gt;Right Wheel -->
<g id="edge13" class="edge">
<title>Blob Size&#45;&gt;Right Wheel</title>
<path fill="none" stroke="green" stroke-width="0.17" d="M365.33,-299.66C360.98,-272.46 345.45,-186.03 314.62,-121.21 308.58,-108.49 300.45,-95.63 292.31,-84.13"/>
<polygon fill="green" stroke="green" stroke-width="0.17" points="295.27,-82.26 286.56,-76.24 289.62,-86.38 295.27,-82.26"/>
</g>
<!-- Left Wheel&#45;&gt;6 -->
<g id="edge16" class="edge">
<title>Left Wheel&#45;&gt;6</title>
<path fill="none" stroke="red" stroke-width="0.42" d="M226.62,-185.76C226.62,-177.26 226.62,-168.48 226.62,-160.74"/>
<polygon fill="red" stroke="red" stroke-width="0.42" points="230.13,-160.93 226.63,-150.93 223.13,-160.93 230.13,-160.93"/>
</g>
<!-- 6&#45;&gt;Right Wheel -->
<g id="edge15" class="edge">
<title>6&#45;&gt;Right Wheel</title>
<path fill="none" stroke="red" stroke-width="0.35" d="M231.35,-121.65C234.16,-113.89 237.93,-103.51 241.79,-92.85"/>
<polygon fill="red" stroke="red" stroke-width="0.35" points="245.04,-94.15 245.15,-83.55 238.46,-91.76 245.04,-94.15"/>
</g>
</g>
</svg>
